<svg xmlns="http://www.w3.org/2000/svg" version="1.1" xmlns:xlink="http://www.w3.org/1999/xlink" xmlns:svgjs="http://svgjs.dev/svgjs" viewBox="0 0 800 800" opacity="1"><defs><linearGradient x1="50%" y1="0%" x2="50%" y2="100%" id="ccchaos-grad"><stop stop-color="hsl(230, 55%, 50%)" stop-opacity="1" offset="0%"></stop><stop stop-color="hsl(230, 55%, 70%)" stop-opacity="1" offset="100%"></stop></linearGradient></defs><g stroke-width="1.5" stroke="url(#ccchaos-grad)" fill="none" stroke-linecap="round"><path d="M374.71 70.4C385.52 73.39 396.09 76.41 406.39 79.27 416.69 81.33 426.74 83.07 436.54 84.5 446.37 85.14 456 85.67 465.43 86.23 474.97 86.44 484.4 87.06 493.76 88.25 503.33 89.64 512.94 91.92 522.65 95.18 532.68 99.01 542.94 103.95 553.45 109.93 564.4 116.56 575.7 124.17 587.35 132.62 599.46 141.54 611.92 151.12 624.67 161.2 637.74 171.47 650.97 182.05 664.18 192.84 677.37 203.57 690.26 214.38 702.58 225.21 714.38 235.85 725.21 246.48 734.78 257.09 743.27 267.46 750.13 277.85 755.13 288.27 758.66 298.5 760.15 308.82 759.54 319.27 757.52 329.58 753.58 340.09 747.87 350.8 741.35 361.45 733.63 372.36 725.07 383.55 716.73 394.72 708.33 406.2 700.27 418 693.56 429.79 687.97 441.63 683.69 453.47 681.27 465.31 680.22 477.13 680.43 488.86 682.3 500.55 685.05 512.09 688.42 523.38 692.73 534.54 697.05 545.35 701.09 555.69 705.21 565.75 708.49 575.2 710.72 583.91 712.35 592.2 712.6 599.64 711.38 606.11 709.24 612.11 705.57 617.14 700.43 621.18 694.36 624.89 686.96 627.8 678.39 630.03 669.09 632.37 658.85 634.44 647.84 636.48 636.39 639.3 624.4 642.61 612.04 646.66 599.5 652.09 586.75 658.6 573.91 666.27 561.06 675.4 548.22 685.53 535.48 696.41 522.79 707.98 510.23 719.54 497.84 730.54 485.52 740.81 473.36 749.48 461.38 756.01 449.47 760.52 437.7 762.27 426.1 761.11 414.53 757.76 403.1 751.88 391.81 743.91 380.53 735.11 369.63 725.72 359.12 716.44 348.58 708.33 338.4 701.4 328.58 696.01 318.72 692.76 309.19 691.18 300.01 691.07 290.74 692.7 281.79 695.12 273.15 697.86 264.4 701.1 255.91 703.73 247.7 705.36 239.33 706.28 231.18 705.6 223.26 703.18 215.13 699.49 207.18 693.98 199.41 686.81 191.41 678.45 183.57 668.73 175.9 657.9 168 646.38 160.28 634.17 152.76 621.53 145.06 608.71 137.6 595.76 130.43 582.86 123.17 570.12 116.26 557.56 109.75 545.24 103.27 533.2 97.26 521.4 91.78 509.84 86.42 498.53 81.66 487.37 77.53 476.33 73.59 465.45 70.32 454.6 67.76 443.75 65.41 432.97 63.77 422.11 62.85 411.17 62.14 400.24 62.14 389.19 62.87 378.02 63.75 366.86 65.3 355.84 67.47 345.01 69.69 334.19 72.48 323.59 75.79 313.26 79.05 302.98 82.77 293.02 86.89 283.42 90.87 273.92 95.2 264.84 99.84 256.22 104.26 247.71 108.95 239.7 113.89 232.2 118.57 224.78 123.5 217.85 128.66 211.39 133.6 204.91 138.79 198.81 144.25 193.04 149.55 187.05 155.16 181.23 161.1 175.51 166.97 169.36 173.21 163.14 179.83 156.81 186.47 149.89 193.52 142.79 200.98 135.51 208.51 127.7 216.47 119.8 224.82 111.94 233.27 103.87 242.11 96.11 251.3 88.85 260.59 81.87 270.21 75.75 280.09 70.67 290.06 66.31 300.27 63.23 310.66 61.49 321.1 60.57 331.7 60.91 342.39 62.44 353.11 64.37 363.89 67.1 374.7 70.39" stroke-dasharray="0 0" transform="rotate(0, 400, 400)" opacity="0.05"></path><path d="M373.06 82.01C383.45 84.99 393.66 88 403.68 90.88 413.7 92.99 423.55 94.81 433.21 96.34 442.92 97.09 452.49 97.7 461.95 98.31 471.51 98.52 481.04 99.07 490.56 100.1 500.29 101.24 510.1 103.18 520.05 106 530.3 109.31 540.78 113.65 551.51 118.99 562.61 124.94 574.02 131.86 585.73 139.63 597.8 147.9 610.12 156.87 622.64 166.41 635.36 176.21 648.1 186.41 660.72 196.88 673.21 207.39 685.28 218.04 696.71 228.78 707.55 239.4 717.38 250.05 725.96 260.69 733.47 271.17 739.41 281.65 743.58 292.15 746.41 302.49 747.34 312.88 746.34 323.36 744.08 333.72 740.08 344.21 734.49 354.85 728.21 365.43 720.85 376.21 712.73 387.2 704.86 398.16 696.92 409.36 689.28 420.79 682.87 432.22 677.47 443.62 673.24 454.93 670.7 466.24 669.39 477.44 669.24 488.48 670.63 499.45 672.86 510.19 675.68 520.61 679.44 530.88 683.29 540.72 686.93 550.04 690.77 559.09 693.91 567.51 696.15 575.17 698.26 585.73 694.91 602.06 689.21 607.86 684.13 611.3 677.77 614.13 670.26 616.49 662.06 619.14 652.9 621.7 642.94 624.4 632.52 627.96 621.49 632.09 610.02 636.99 598.32 643.2 586.32 650.4 574.17 658.63 561.94 668.1 549.66 678.36 537.39 689.14 525.15 700.4 512.98 711.45 500.93 721.8 488.93 731.32 477.06 739.24 465.35 745.08 453.69 749 442.17 750.34 430.81 748.98 419.48 745.62 408.28 739.93 397.24 732.29 386.2 723.9 375.55 714.91 365.27 705.97 354.97 698.04 345.03 691.14 335.44 685.58 325.79 681.97 316.47 679.88 307.48 679.18 298.4 680.16 289.62 681.97 281.12 684.21 272.51 687.08 264.15 689.56 256.03 691.28 247.75 692.54 239.68 692.45 231.81 690.84 223.74 688.16 215.84 683.81 208.1 677.88 200.15 670.85 192.35 662.43 184.72 652.85 176.88 642.51 169.22 631.36 161.75 619.63 154.14 607.58 146.77 595.25 139.68 582.82 132.53 570.4 125.72 558.04 119.32 545.84 112.95 533.8 107.05 521.96 101.68 510.32 96.43 498.88 91.77 487.6 87.73 476.48 83.9 465.5 80.72 454.6 78.23 443.77 75.98 433.01 74.42 422.26 73.59 411.5 72.97 400.77 73.05 389.99 73.86 379.19 74.83 368.39 76.45 357.82 78.68 347.5 80.97 337.18 83.8 327.14 87.13 317.42 90.42 307.72 94.14 298.38 98.25 289.42 102.21 280.53 106.51 272.05 111.09 264.03 115.47 256.06 120.09 248.55 124.95 241.51 129.55 234.48 134.39 227.87 139.43 221.65 144.24 215.33 149.3 209.3 154.6 203.51 159.72 197.45 165.13 191.48 170.83 185.55 176.44 179.15 182.39 172.67 188.69 166.05 194.97 158.89 201.64 151.57 208.69 144.1 215.78 136.2 223.26 128.28 231.13 120.47 239.06 112.54 247.36 104.99 256.01 98.01 264.73 91.37 273.78 85.6 283.11 80.88 292.49 76.88 302.13 74.11 311.98 72.63 321.87 71.92 331.93 72.42 342.12 74.03 352.33 76.01 362.65 78.73 373.05 82.01" stroke-dasharray="0 0" transform="rotate(2.821428571428571, 400, 400)" opacity="0.08"></path><path d="M372.5 93.62C382.5 96.58 392.39 99.59 402.15 102.48 411.92 104.64 421.57 106.53 431.12 108.15 440.71 109.01 450.23 109.72 459.71 110.39 469.29 110.64 478.89 111.14 488.54 112.05 498.38 113 508.34 114.64 518.45 117.06 528.83 119.9 539.43 123.68 550.27 128.4 561.41 133.68 572.81 139.89 584.44 146.97 596.34 154.54 608.41 162.84 620.56 171.77 632.81 181 644.98 190.7 656.91 200.75 668.63 210.9 679.85 221.28 690.35 231.79 700.23 242.27 709.08 252.82 716.68 263.39 723.27 273.86 728.35 284.35 731.76 294.84 733.94 305.22 734.38 315.63 733.04 326.08 730.6 336.44 726.59 346.89 721.14 357.42 715.11 367.91 708.11 378.53 700.44 389.28 693.01 400.02 685.53 410.92 678.29 421.96 672.19 433 666.97 443.92 662.79 454.68 660.16 465.43 658.63 476 658.15 486.31 659.1 496.57 660.83 506.51 663.13 516.06 666.35 525.47 669.71 534.4 672.94 542.77 676.45 550.91 679.4 558.4 681.59 565.17 683.91 574.53 681.95 589.1 677.38 594.49 673.18 597.86 667.77 600.81 661.26 603.48 654.11 606.56 645.99 609.71 637.06 613.13 627.66 617.45 617.62 622.37 607.07 628.06 596.25 634.95 585.08 642.73 573.67 651.37 562.15 661.05 550.49 671.32 538.79 681.9 527.08 692.75 515.37 703.23 503.74 712.9 492.14 721.69 480.62 728.87 469.23 734.04 457.88 737.42 446.65 738.38 435.57 736.84 424.51 733.49 413.57 727.99 402.78 720.68 391.99 712.68 381.58 704.09 371.53 695.49 361.46 687.77 351.73 680.91 342.33 675.23 332.89 671.31 323.75 668.77 314.92 667.51 306 667.86 297.36 669.06 288.98 670.76 280.48 673.21 272.21 675.45 264.17 677.14 255.96 678.59 247.95 678.92 240.12 677.97 232.1 676.15 224.24 672.82 216.54 668.03 208.63 662.24 200.88 655.09 193.29 646.76 185.52 637.66 177.92 627.65 170.53 616.95 163.01 605.84 155.73 594.31 148.74 582.53 141.71 570.66 135.03 558.71 128.74 546.82 122.51 534.99 116.73 523.29 111.48 511.74 106.36 500.33 101.82 489.07 97.89 477.97 94.17 466.99 91.1 456.12 88.71 445.36 86.55 434.67 85.09 424.05 84.34 413.49 83.8 402.95 83.97 392.44 84.85 381.99 85.89 371.53 87.58 361.37 89.85 351.51 92.2 341.65 95.07 332.11 98.41 322.91 101.72 313.74 105.44 304.93 109.53 296.51 113.48 288.13 117.75 280.15 122.29 272.6 126.62 265.06 131.19 257.93 135.98 251.2 140.52 244.43 145.28 238.01 150.22 231.9 154.94 225.63 159.88 219.58 165.04 213.68 170.01 207.47 175.24 201.3 180.74 195.11 186.13 188.47 191.83 181.71 197.84 174.83 203.81 167.46 210.14 159.96 216.82 152.37 223.5 144.44 230.56 136.56 237.97 128.86 245.43 121.13 253.24 113.84 261.39 107.17 269.58 100.89 278.1 95.49 286.91 91.15 295.75 87.5 304.86 85.04 314.2 83.83 323.56 83.32 333.12 83.96 342.85 85.64 352.59 87.66 362.48 90.38 372.49 93.62" stroke-dasharray="0 0" transform="rotate(5.642857142857142, 400, 400)" opacity="0.12"></path><path d="M373.05 105.23C382.7 108.17 392.29 111.16 401.81 114.05 411.34 116.26 420.81 118.23 430.24 119.93 439.72 120.9 449.18 121.72 458.65 122.47 468.23 122.78 477.87 123.27 487.58 124.1 497.47 124.89 507.51 126.28 517.7 128.36 528.12 130.76 538.74 134.03 549.56 138.16 560.63 142.79 571.9 148.32 583.32 154.68 594.93 161.54 606.62 169.14 618.3 177.38 629.99 185.98 641.5 195.09 652.68 204.6 663.58 214.29 673.91 224.26 683.48 234.43 692.41 244.63 700.3 254.96 706.97 265.34 712.68 275.68 716.96 286.06 719.67 296.46 721.28 306.77 721.28 317.12 719.67 327.47 717.09 337.77 713.09 348.11 707.81 358.49 702.05 368.84 695.42 379.26 688.17 389.75 681.19 400.22 674.14 410.78 667.3 421.41 661.49 432.03 656.47 442.46 652.36 452.66 649.65 462.84 647.93 472.76 647.15 482.37 647.69 491.92 648.95 501.09 650.76 509.83 653.46 518.44 656.33 526.55 659.15 534.08 662.29 541.42 665 548.14 667.08 554.19 669.48 562.63 668.62 576.07 665 581.35 661.57 584.84 657.03 588.07 651.43 591.18 645.25 594.79 638.13 598.59 630.19 602.75 621.8 607.79 612.73 613.45 603.11 619.84 593.21 627.29 582.89 635.52 572.27 644.44 561.51 654.2 550.55 664.36 539.47 674.64 528.36 685.01 517.2 694.88 506.05 703.85 494.91 711.89 483.81 718.36 472.8 722.9 461.82 725.76 450.92 726.37 440.14 724.68 429.38 721.35 418.73 716.05 408.21 709.07 397.68 701.46 387.51 693.26 377.68 685 367.84 677.5 358.31 670.73 349.1 664.97 339.84 660.78 330.86 657.83 322.17 656.07 313.4 655.82 304.87 656.41 296.59 657.56 288.19 659.53 280 661.45 272.01 663 263.88 664.5 255.92 665.12 248.12 664.66 240.15 663.53 232.33 661.08 224.66 657.3 216.82 652.64 209.12 646.69 201.58 639.58 193.88 631.71 186.36 622.89 179.06 613.3 171.65 603.24 164.49 592.64 157.61 581.68 150.72 570.53 144.17 559.19 138.02 547.79 131.94 536.37 126.31 524.99 121.19 513.7 116.22 502.49 111.81 491.39 108 480.44 104.41 469.57 101.46 458.83 99.17 448.22 97.13 437.66 95.76 427.21 95.09 416.87 94.65 406.55 94.9 396.32 95.84 386.19 96.95 376.07 98.69 366.27 101 356.82 103.39 347.37 106.28 338.26 109.63 329.52 112.95 320.79 116.67 312.42 120.74 304.44 124.68 296.46 128.92 288.87 133.42 281.66 137.71 274.43 142.24 267.55 146.97 261.02 151.46 254.4 156.15 248.05 161.02 241.94 165.65 235.63 170.49 229.46 175.54 223.4 180.38 216.99 185.47 210.58 190.8 204.12 196 197.24 201.48 190.24 207.25 183.13 212.94 175.6 218.97 167.98 225.32 160.34 231.65 152.43 238.32 144.66 245.34 137.13 252.36 129.66 259.73 122.68 267.42 116.35 275.14 110.46 283.17 105.45 291.49 101.48 299.84 98.19 308.46 96.04 317.32 95.07 326.2 94.76 335.3 95.53 344.6 97.27 353.9 99.32 363.39 102.03 373.04 105.23" stroke-dasharray="0 0" transform="rotate(8.464285714285714, 400, 400)" opacity="0.15"></path><path d="M374.7 116.85C384.02 119.75 393.32 122.72 402.61 125.61 411.91 127.86 421.21 129.89 430.51 131.68 439.86 132.77 449.25 133.7 458.68 134.54 468.21 134.92 477.83 135.44 487.56 136.22 497.43 136.9 507.45 138.09 517.63 139.87 527.99 141.9 538.53 144.7 549.22 148.29 560.1 152.31 571.12 157.18 582.23 162.84 593.43 168.97 604.65 175.84 615.76 183.37 626.8 191.27 637.58 199.71 647.96 208.61 658.01 217.73 667.44 227.18 676.07 236.89 684.07 246.69 691.04 256.67 696.83 266.75 701.72 276.83 705.26 286.98 707.35 297.17 708.45 307.32 708.07 317.49 706.23 327.67 703.57 337.81 699.62 347.97 694.51 358.14 689.02 368.28 682.76 378.45 675.94 388.63 669.39 398.8 662.77 409 656.31 419.18 650.79 429.36 645.96 439.29 641.93 448.93 639.18 458.55 637.29 467.85 636.24 476.78 636.4 485.66 637.23 494.13 638.57 502.14 640.77 510.04 643.16 517.43 645.55 524.26 649.53 534.01 655.03 550.38 655.76 557.07 654.97 563.27 647.5 574.28 640.84 579.74 635.54 583.94 629.34 588.41 622.34 593.28 614.91 599 606.79 605.31 598.09 612.28 589.11 620.18 579.66 628.71 569.86 637.78 559.9 647.5 549.67 657.43 539.28 667.32 528.82 677.15 518.25 686.37 507.65 694.62 497.03 701.94 486.41 707.71 475.82 711.65 465.25 714.03 454.74 714.33 444.3 712.51 433.88 709.22 423.54 704.11 413.3 697.46 403.06 690.23 393.14 682.42 383.54 674.51 373.92 667.24 364.59 660.58 355.56 654.77 346.47 650.37 337.65 647.07 329.09 644.84 320.45 644.03 312.03 644.04 303.83 644.63 295.53 646.09 287.41 647.62 279.48 648.95 271.41 650.38 263.5 651.13 255.75 651.02 247.84 650.41 240.07 648.67 232.44 645.76 224.66 642.1 217.03 637.25 209.56 631.28 201.96 624.61 194.54 616.98 187.34 608.52 180.06 599.57 173.03 590 166.29 579.98 159.55 569.68 153.16 559.1 147.16 548.36 141.25 537.53 135.78 526.64 130.81 515.78 126.01 504.92 121.75 494.14 118.09 483.46 114.64 472.84 111.81 462.32 109.64 451.94 107.71 441.6 106.44 431.38 105.86 421.3 105.51 411.23 105.83 401.28 106.83 391.47 108 381.67 109.78 372.21 112.12 363.13 114.54 354.03 117.44 345.3 120.79 336.93 124.12 328.56 127.83 320.54 131.87 312.9 135.79 305.22 140 297.9 144.46 290.93 148.72 283.89 153.21 277.16 157.89 270.71 162.34 264.12 166.97 257.75 171.78 251.57 176.35 245.14 181.12 238.81 186.06 232.53 190.81 225.91 195.78 219.25 200.97 212.54 206 205.44 211.3 198.24 216.86 190.95 222.33 183.32 228.09 175.65 234.16 168.02 240.18 160.22 246.52 152.61 253.17 145.32 259.82 138.15 266.79 131.52 274.07 125.58 281.36 120.08 288.96 115.48 296.84 111.89 304.74 108.95 312.91 107.1 321.34 106.37 329.77 106.25 338.45 107.13 347.35 108.93 356.25 110.99 365.37 113.68 374.69 116.84" stroke-dasharray="0 0" transform="rotate(11.285714285714285, 400, 400)" opacity="0.19"></path><path d="M377.37 128.46C386.38 131.32 395.42 134.26 404.48 137.14 413.55 139.43 422.67 141.52 431.83 143.39 441.03 144.6 450.31 145.65 459.65 146.59 469.09 147.06 478.63 147.63 488.29 148.39 498.07 149.01 508 150.04 518.06 151.59 528.26 153.3 538.61 155.69 549.07 158.78 559.65 162.25 570.32 166.49 580.99 171.48 591.71 176.89 602.35 183.03 612.81 189.83 623.14 196.99 633.15 204.72 642.7 212.93 651.88 221.4 660.4 230.25 668.11 239.39 675.21 248.68 681.31 258.19 686.26 267.84 690.4 277.55 693.27 287.35 694.8 297.21 695.45 307.08 694.76 316.98 692.75 326.88 690.03 336.78 686.16 346.68 681.26 356.55 676.05 366.42 670.15 376.28 663.75 386.11 657.62 395.93 651.4 405.73 645.32 415.45 640.09 425.18 635.45 434.61 631.52 443.7 628.73 452.77 626.7 461.48 625.41 469.8 625.24 478.08 625.66 485.92 626.56 493.3 628.28 500.6 630.21 507.4 632.17 513.68 635.6 522.71 640.61 538.14 641.47 544.68 641.08 551 635.14 563 629.53 569.28 625.04 574.07 619.68 579.19 613.55 584.72 607.03 591.04 599.81 597.89 592.01 605.32 583.92 613.53 575.34 622.23 566.36 631.32 557.21 640.87 547.76 650.48 538.07 659.9 528.31 669.14 518.38 677.68 508.36 685.22 498.31 691.82 488.21 696.92 478.1 700.29 467.99 702.24 457.89 702.26 447.84 700.33 437.79 697.08 427.79 692.17 417.85 685.84 407.91 678.99 398.26 671.57 388.9 664 379.51 656.99 370.39 650.45 361.54 644.64 352.63 640.08 343.97 636.47 335.53 633.83 327.02 632.5 318.71 631.95 310.6 632 302.4 632.92 294.36 634.01 286.49 635.04 278.49 636.3 270.64 637.06 262.94 637.14 255.1 636.9 247.4 635.72 239.84 633.52 232.15 630.71 224.6 626.82 217.22 621.9 209.74 616.34 202.44 609.84 195.36 602.51 188.23 594.69 181.36 586.19 174.78 577.17 168.22 567.84 162 558.13 156.17 548.17 150.45 538.07 145.16 527.82 140.37 517.52 135.74 507.18 131.65 496.85 128.14 486.58 124.85 476.32 122.16 466.14 120.11 456.08 118.3 446.04 117.14 436.12 116.65 426.33 116.38 416.56 116.77 406.92 117.82 397.42 119.04 387.93 120.86 378.8 123.21 370.03 125.64 361.25 128.55 352.83 131.89 344.76 135.21 336.67 138.9 328.93 142.91 321.52 146.81 314.06 150.99 306.92 155.4 300.07 159.64 293.14 164.09 286.45 168.72 280 173.14 273.38 177.73 266.92 182.48 260.59 187.01 254.01 191.71 247.48 196.58 240.97 201.25 234.14 206.12 227.27 211.19 220.33 216.1 213.05 221.25 205.71 226.63 198.32 231.91 190.65 237.45 183.01 243.27 175.47 249.03 167.84 255.08 160.47 261.43 153.46 267.74 146.65 274.37 140.4 281.29 134.86 288.19 129.79 295.4 125.6 302.9 122.38 310.39 119.79 318.16 118.23 326.19 117.73 334.22 117.78 342.52 118.76 351.05 120.61 359.58 122.68 368.35 125.35 377.36 128.45" stroke-dasharray="0 0" transform="rotate(14.107142857142858, 400, 400)" opacity="0.22"></path><path d="M380.96 140.07C389.67 142.89 398.45 145.8 407.28 148.66 416.12 150.97 425.04 153.12 434.02 155.07 443.05 156.39 452.18 157.55 461.39 158.61 470.67 159.19 480.08 159.82 489.59 160.61 499.2 161.19 508.94 162.12 518.79 163.48 528.74 164.93 538.8 166.97 548.92 169.64 559.11 172.59 569.32 176.26 579.48 180.62 589.62 185.35 599.61 190.78 609.37 196.84 618.95 203.25 628.14 210.24 636.83 217.72 645.14 225.48 652.78 233.65 659.6 242.15 665.84 250.83 671.1 259.77 675.29 268.89 678.73 278.11 681 287.46 682.04 296.89 682.3 306.36 681.36 315.88 679.22 325.42 676.48 334.96 672.72 344.51 668.04 354.03 663.12 363.55 657.58 373.04 651.59 382.46 645.86 391.9 640.05 401.26 634.33 410.52 629.39 419.78 624.95 428.71 621.11 437.28 618.3 445.83 616.16 454.01 614.67 461.79 614.19 469.53 614.24 476.84 614.74 483.7 616 490.51 617.48 496.87 619.02 502.75 621.88 511.29 626.27 526.26 627.14 532.89 627.02 539.52 622.31 552.74 617.61 559.86 613.81 565.23 609.21 570.94 603.87 577.05 598.18 583.86 591.82 591.14 584.86 598.89 577.63 607.27 569.89 616.01 561.73 624.99 553.4 634.26 544.71 643.46 535.76 652.35 526.71 660.95 517.45 668.8 508.05 675.62 498.61 681.53 489.06 686 479.46 688.84 469.85 690.38 460.2 690.15 450.56 688.14 440.92 684.95 431.29 680.24 421.68 674.23 412.07 667.74 402.71 660.71 393.6 653.49 384.47 646.74 375.57 640.36 366.89 634.58 358.18 629.89 349.68 626.03 341.37 623.03 333.01 621.23 324.82 620.15 316.81 619.67 308.71 620.05 300.76 620.68 292.97 621.34 285.06 622.34 277.29 622.99 269.66 623.14 261.92 623.12 254.3 622.33 246.83 620.68 239.25 618.56 231.82 615.49 224.55 611.49 217.21 606.93 210.06 601.49 203.13 595.23 196.18 588.5 189.48 581.08 183.08 573.09 176.72 564.77 170.7 556.01 165.07 546.92 159.55 537.65 154.46 528.15 149.86 518.53 145.43 508.83 141.52 499.07 138.17 489.31 135.04 479.54 132.5 469.8 130.59 460.14 128.9 450.5 127.85 440.93 127.45 431.49 127.26 422.06 127.71 412.75 128.81 403.57 130.08 394.4 131.91 385.57 134.27 377.09 136.71 368.6 139.61 360.44 142.93 352.61 146.23 344.74 149.89 337.19 153.86 329.94 157.73 322.63 161.87 315.58 166.25 308.79 170.45 301.88 174.87 295.18 179.45 288.65 183.84 281.95 188.39 275.36 193.09 268.86 197.58 262.11 202.24 255.39 207.05 248.66 211.66 241.65 216.45 234.59 221.43 227.49 226.24 220.1 231.26 212.68 236.5 205.26 241.62 197.64 246.99 190.11 252.6 182.73 258.14 175.34 263.95 168.26 270.03 161.6 276.06 155.17 282.38 149.35 288.99 144.23 295.56 139.59 302.43 135.81 309.57 132.97 316.7 130.71 324.11 129.43 331.8 129.14 339.46 129.35 347.4 130.43 355.6 132.31 363.79 134.39 372.24 137.02 380.95 140.07" stroke-dasharray="0 0" transform="rotate(16.928571428571427, 400, 400)" opacity="0.25"></path><path d="M385.33 151.68C393.75 154.46 402.26 157.32 410.85 160.15 419.45 162.49 428.15 164.68 436.93 166.7 445.75 168.13 454.67 169.41 463.69 170.58 472.77 171.28 481.96 172 491.25 172.83 500.61 173.43 510.08 174.3 519.63 175.52 529.24 176.77 538.92 178.52 548.6 180.82 558.31 183.34 567.99 186.49 577.55 190.27 587.05 194.37 596.34 199.11 605.35 204.46 614.14 210.13 622.51 216.37 630.34 223.11 637.79 230.12 644.56 237.57 650.54 245.37 655.96 253.37 660.46 261.65 663.94 270.17 666.76 278.8 668.49 287.59 669.1 296.5 669.04 305.47 667.89 314.52 665.67 323.6 662.95 332.71 659.32 341.82 654.87 350.91 650.24 360.01 645.05 369.08 639.46 378.06 634.13 387.06 628.7 395.97 623.34 404.76 618.67 413.55 614.43 422 610.71 430.09 607.91 438.16 605.67 445.86 604.01 453.17 603.25 460.45 602.98 467.34 603.1 473.8 604.46 483.26 608.41 500.17 610.31 507.72 612.07 515.09 612.89 529.05 611.56 536.01 610.18 541.03 608.05 546.17 605.17 551.53 601.97 557.41 598.03 563.63 593.4 570.21 588.46 577.39 582.87 584.96 576.7 592.89 570.28 601.31 563.35 609.96 555.98 618.71 548.43 627.62 540.51 636.33 532.28 644.63 523.95 652.57 515.38 659.72 506.61 665.83 497.8 671.07 488.83 674.94 479.76 677.29 470.68 678.46 461.52 678.01 452.32 675.93 443.12 672.82 433.88 668.32 424.63 662.62 415.38 656.49 406.33 649.83 397.48 642.97 388.63 636.49 379.96 630.29 371.49 624.57 362.99 619.81 354.66 615.75 346.51 612.44 338.31 610.21 330.26 608.66 322.36 607.67 314.39 607.52 306.55 607.66 298.85 607.92 291.07 608.59 283.41 609.05 275.87 609.14 268.25 609.2 260.75 608.65 253.39 607.39 245.95 605.81 238.66 603.4 231.55 600.16 224.38 596.48 217.4 591.97 210.65 586.69 203.9 580.99 197.41 574.6 191.21 567.62 185.08 560.32 179.28 552.53 173.86 544.36 168.57 535.98 163.7 527.32 159.3 518.45 155.08 509.49 151.36 500.4 148.19 491.24 145.24 482.05 142.86 472.84 141.07 463.66 139.52 454.48 138.58 445.34 138.26 436.29 138.16 427.24 138.67 418.29 139.8 409.44 141.1 400.59 142.95 392.06 145.3 383.84 147.74 375.61 150.62 367.68 153.9 360.04 157.17 352.36 160.79 344.95 164.72 337.79 168.55 330.57 172.65 323.57 176.97 316.77 181.15 309.85 185.52 303.09 190.06 296.45 194.41 289.65 198.93 282.92 203.59 276.25 208.05 269.35 212.66 262.46 217.42 255.56 221.98 248.41 226.72 241.23 231.61 234.03 236.35 226.61 241.27 219.19 246.4 211.82 251.39 204.34 256.61 196.98 262.05 189.85 267.41 182.76 273.01 176.03 278.87 169.76 284.66 163.76 290.73 158.38 297.06 153.71 303.35 149.5 309.92 146.13 316.76 143.65 323.57 141.72 330.66 140.71 338.02 140.61 345.36 140.97 352.98 142.13 360.87 144.03 368.74 146.11 376.89 148.69 385.32 151.68" stroke-dasharray="0 0" transform="rotate(19.75, 400, 400)" opacity="0.29"></path><path d="M390.28 163.29C398.42 166.01 406.67 168.82 415 171.63 423.34 173.97 431.79 176.2 440.32 178.28 448.9 179.81 457.57 181.21 466.33 182.49 475.15 183.32 484.06 184.15 493.05 185.05 502.09 185.68 511.21 186.54 520.37 187.68 529.56 188.78 538.77 190.31 547.94 192.31 557.1 194.45 566.17 197.15 575.08 200.42 583.89 203.94 592.45 208.06 600.67 212.74 608.66 217.7 616.21 223.21 623.2 229.21 629.82 235.47 635.76 242.17 640.93 249.24 645.59 256.51 649.39 264.09 652.23 271.93 654.49 279.9 655.75 288.07 655.99 296.38 655.67 304.77 654.36 313.26 652.1 321.81 649.43 330.4 645.95 339.01 641.74 347.61 637.41 356.24 632.58 364.82 627.38 373.34 622.42 381.87 617.37 390.31 612.35 398.63 607.96 406.95 603.92 414.94 600.32 422.59 597.53 430.22 595.23 437.51 593.42 444.43 592.43 451.33 591.85 457.88 591.63 464.06 592.4 473.15 595.19 489.72 596.63 497.34 598.05 504.91 598.75 519.76 597.65 527.36 596.53 532.81 594.75 538.43 592.31 544.27 589.61 550.58 586.23 557.2 582.21 564.12 577.94 571.54 573.05 579.27 567.6 587.24 561.93 595.57 555.75 604.01 549.12 612.42 542.33 620.87 535.15 629.03 527.63 636.7 520.01 643.97 512.12 650.41 503.99 655.85 495.81 660.44 487.44 663.75 478.93 665.65 470.4 666.48 461.75 665.84 453.01 663.72 444.27 660.69 435.45 656.4 426.58 651.01 417.71 645.23 408.99 638.94 400.44 632.43 391.89 626.23 383.48 620.23 375.24 614.62 366.97 609.82 358.84 605.61 350.87 602.04 342.85 599.45 334.96 597.46 327.2 596 319.39 595.35 311.7 595 304.12 594.83 296.48 595.12 288.96 595.3 281.55 595.25 274.09 595.27 266.74 594.82 259.53 593.81 252.27 592.6 245.15 590.69 238.21 588.07 231.25 585.11 224.48 581.4 217.94 576.98 211.42 572.2 205.16 566.77 199.19 560.74 193.3 554.41 187.74 547.58 182.56 540.32 177.51 532.87 172.88 525.07 168.7 517.01 164.7 508.84 161.19 500.47 158.21 491.99 155.44 483.45 153.22 474.83 151.58 466.19 150.16 457.54 149.32 448.88 149.09 440.26 149.06 431.65 149.63 423.07 150.79 414.57 152.11 406.07 153.97 397.83 156.3 389.87 158.72 381.88 161.57 374.15 164.81 366.67 168.04 359.15 171.62 351.85 175.48 344.76 179.27 337.6 183.32 330.61 187.58 323.78 191.71 316.83 196.03 310 200.52 303.26 204.85 296.36 209.32 289.51 213.94 282.69 218.37 275.68 222.94 268.67 227.65 261.65 232.18 254.44 236.87 247.21 241.7 240 246.37 232.63 251.22 225.31 256.25 218.08 261.14 210.8 266.24 203.71 271.55 196.88 276.75 190.17 282.19 183.84 287.85 178 293.45 172.45 299.3 167.52 305.39 163.3 311.44 159.53 317.75 156.56 324.32 154.44 330.85 152.82 337.66 152.06 344.73 152.15 351.78 152.64 359.1 153.87 366.69 155.78 374.27 157.84 382.13 160.38 390.27 163.29" stroke-dasharray="0 0" transform="rotate(22.57142857142857, 400, 400)" opacity="0.32"></path><path d="M395.64 174.91C403.49 177.56 411.45 180.32 419.5 183.08 427.57 185.43 435.74 187.69 443.99 189.81 452.27 191.44 460.65 192.95 469.1 194.35 477.59 195.31 486.16 196.25 494.78 197.24 503.43 197.94 512.12 198.82 520.82 199.92 529.52 200.93 538.2 202.29 546.79 204.05 555.34 205.9 563.76 208.22 571.98 211.05 580.06 214.06 587.86 217.61 595.29 221.68 602.49 225.99 609.22 230.81 615.39 236.1 621.21 241.62 626.37 247.57 630.8 253.91 634.76 260.43 637.91 267.29 640.19 274.42 641.95 281.69 642.81 289.18 642.75 296.84 642.21 304.59 640.8 312.47 638.54 320.42 635.94 328.43 632.63 336.49 628.67 344.56 624.63 352.65 620.14 360.73 615.32 368.75 610.74 376.78 606.04 384.75 601.36 392.6 597.23 400.46 593.4 408.02 589.93 415.27 587.17 422.51 584.83 429.43 582.91 436.04 581.71 442.64 580.87 448.93 580.35 454.91 580.57 463.78 582.24 480.29 583.2 488.08 584.26 495.95 584.68 511.74 583.7 519.94 582.76 525.78 581.24 531.8 579.14 538.02 576.84 544.66 573.93 551.55 570.44 558.69 566.73 566.21 562.46 573.95 557.65 581.83 552.65 589.95 547.16 598.06 541.22 606.05 535.14 613.98 528.66 621.53 521.83 628.55 514.9 635.13 507.66 640.89 500.17 645.66 492.63 649.64 484.86 652.43 476.91 653.91 468.94 654.44 460.8 653.64 452.55 651.5 444.29 648.56 435.91 644.48 427.45 639.4 418.99 633.96 410.63 628.04 402.4 621.88 394.17 615.98 386.05 610.19 378.06 604.71 370.06 599.91 362.16 595.61 354.39 591.84 346.59 588.94 338.89 586.57 331.31 584.68 323.69 583.55 316.17 582.73 308.76 582.12 301.3 582 293.94 581.85 286.71 581.56 279.43 581.44 272.27 580.98 265.25 580.08 258.2 579.09 251.3 577.53 244.57 575.37 237.85 572.97 231.31 569.91 225.01 566.22 218.75 562.24 212.74 557.65 207.03 552.48 201.41 547.06 196.12 541.13 191.19 534.76 186.4 528.19 182.02 521.25 178.08 514.01 174.31 506.65 171.02 499.05 168.23 491.26 165.65 483.42 163.6 475.45 162.1 467.39 160.81 459.31 160.09 451.17 159.93 443.02 159.98 434.86 160.59 426.7 161.78 418.56 163.12 410.42 164.97 402.49 167.28 394.77 169.67 387.05 172.48 379.51 175.66 372.18 178.84 364.81 182.35 357.61 186.14 350.57 189.88 343.47 193.86 336.49 198.05 329.63 202.13 322.67 206.4 315.78 210.84 308.96 215.12 302 219.55 295.07 224.12 288.16 228.51 281.1 233.05 274.04 237.72 266.99 242.21 259.79 246.85 252.61 251.63 245.48 256.25 238.24 261.04 231.1 265.98 224.11 270.8 217.12 275.8 210.36 280.99 203.9 286.07 197.6 291.37 191.72 296.87 186.34 302.3 181.27 307.96 176.81 313.85 173.04 319.69 169.71 325.77 167.12 332.1 165.34 338.39 164.02 344.94 163.49 351.75 163.74 358.53 164.35 365.58 165.63 372.89 167.55 380.19 169.58 387.77 172.06 395.63 174.9" stroke-dasharray="0 0" transform="rotate(25.392857142857146, 400, 400)" opacity="0.36"></path><path d="M401.17 186.52C408.73 189.11 416.39 191.8 424.14 194.51 431.9 196.85 439.76 199.13 447.68 201.3 455.63 203.01 463.66 204.61 471.75 206.12 479.86 207.22 488.02 208.29 496.21 209.37 504.41 210.17 512.62 211.09 520.79 212.19 528.95 213.16 537.04 214.43 545.01 216.01 552.91 217.63 560.65 219.65 568.14 222.1 575.48 224.69 582.52 227.75 589.17 231.28 595.58 234.99 601.53 239.18 606.93 243.81 611.99 248.64 616.42 253.88 620.17 259.5 623.49 265.29 626.07 271.42 627.85 277.83 629.18 284.38 629.7 291.17 629.4 298.15 628.69 305.22 627.21 312.45 624.98 319.79 622.48 327.18 619.35 334.65 615.65 342.15 611.91 349.68 607.76 357.22 603.3 364.74 599.07 372.26 594.73 379.75 590.37 387.16 586.51 394.57 582.87 401.72 579.54 408.6 576.84 415.49 574.48 422.11 572.46 428.46 571.09 434.81 570.03 440.92 569.23 446.78 568.96 455.52 569.58 472.14 570.07 480.17 570.73 488.36 570.75 505.04 569.8 513.75 568.96 519.9 567.62 526.21 565.77 532.71 563.78 539.54 561.25 546.57 558.19 553.78 554.97 561.27 551.22 568.89 546.97 576.55 542.57 584.34 537.7 592.04 532.39 599.53 526.96 606.88 521.13 613.8 514.94 620.15 508.66 626.04 502.06 631.12 495.19 635.26 488.26 638.67 481.08 640.98 473.7 642.09 466.28 642.36 458.68 641.42 450.92 639.28 443.16 636.44 435.24 632.57 427.21 627.78 419.17 622.69 411.2 617.13 403.32 611.32 395.44 605.71 387.64 600.17 379.93 594.83 372.22 590.09 364.59 585.73 357.06 581.82 349.5 578.67 342.04 575.97 334.67 573.7 327.27 572.13 319.96 570.86 312.76 569.82 305.52 569.27 298.38 568.76 291.36 568.19 284.31 567.85 277.37 567.26 270.58 566.36 263.77 565.46 257.12 564.1 250.65 562.25 244.19 560.26 237.93 557.71 231.9 554.6 225.92 551.27 220.19 547.39 214.77 542.98 209.43 538.36 204.42 533.24 199.77 527.68 195.26 521.95 191.13 515.83 187.44 509.38 183.92 502.81 180.85 495.96 178.27 488.89 175.88 481.76 174 474.44 172.64 466.98 171.49 459.5 170.87 451.92 170.8 444.25 170.91 436.59 171.57 428.86 172.77 421.1 174.12 413.34 175.95 405.73 178.22 398.28 180.58 390.81 183.33 383.49 186.44 376.31 189.56 369.11 193 362.02 196.71 355.05 200.37 348.02 204.28 341.08 208.39 334.22 212.41 327.27 216.61 320.38 220.98 313.52 225.21 306.56 229.59 299.62 234.1 292.7 238.46 285.67 242.95 278.64 247.57 271.65 252.03 264.56 256.63 257.51 261.35 250.55 265.93 243.55 270.66 236.67 275.53 229.99 280.28 223.36 285.2 217 290.28 210.97 295.27 205.13 300.44 199.72 305.81 194.83 311.1 190.24 316.6 186.26 322.31 182.94 327.96 180.03 333.85 177.82 339.96 176.36 346.03 175.31 352.35 174.99 358.91 175.4 365.44 176.1 372.23 177.43 379.27 179.34 386.3 181.34 393.59 183.76 401.16 186.52" stroke-dasharray="0 0" transform="rotate(28.214285714285715, 400, 400)" opacity="0.39"></path><path d="M406.65 198.13C413.91 200.64 421.26 203.26 428.68 205.92 436.1 208.25 443.61 210.52 451.18 212.72 458.76 214.51 466.4 216.2 474.07 217.82 481.75 219.04 489.46 220.24 497.16 221.43 504.86 222.34 512.53 223.34 520.13 224.47 527.7 225.45 535.17 226.65 542.48 228.13 549.71 229.58 556.74 231.37 563.5 233.54 570.11 235.77 576.4 238.42 582.28 241.49 587.94 244.69 593.14 248.31 597.81 252.35 604.05 258.83 612.85 273.88 615.23 282.31 616.2 288.15 616.44 294.24 615.94 300.54 615.12 306.93 613.62 313.5 611.45 320.2 609.07 326.96 606.13 333.82 602.69 340.75 599.24 347.7 595.42 354.7 591.32 361.71 587.43 368.72 583.42 375.73 579.38 382.71 575.77 389.69 572.35 396.46 569.16 403.02 566.52 409.58 564.16 415.93 562.08 422.07 560.57 428.23 559.32 434.19 558.29 439.98 557.57 448.65 557.21 465.46 557.25 473.74 557.5 482.22 557.03 499.62 556.03 508.71 555.22 515.06 553.99 521.55 552.31 528.19 550.55 535.08 548.31 542.12 545.61 549.26 542.77 556.59 539.47 563.97 535.71 571.3 531.82 578.67 527.49 585.88 522.74 592.8 517.9 599.53 512.66 605.79 507.07 611.46 501.4 616.68 495.4 621.12 489.11 624.67 482.78 627.55 476.18 629.41 469.34 630.18 462.48 630.22 455.41 629.17 448.16 627.05 440.89 624.32 433.45 620.66 425.86 616.17 418.27 611.41 410.71 606.2 403.21 600.75 395.7 595.44 388.25 590.15 380.86 584.99 373.47 580.33 366.14 575.97 358.88 571.97 351.62 568.62 344.42 565.65 337.3 563.06 330.17 561.1 323.12 559.42 316.16 557.97 309.18 557 302.29 556.11 295.52 555.21 288.74 554.59 282.07 553.81 275.55 552.8 269.03 551.87 262.66 550.6 256.47 548.93 250.31 547.19 244.35 544.99 238.62 542.32 232.95 539.5 227.54 536.19 222.41 532.4 217.38 528.45 212.67 524.04 208.31 519.2 204.09 514.22 200.24 508.85 196.8 503.14 193.54 497.32 190.7 491.19 188.32 484.81 186.14 478.37 184.42 471.7 183.21 464.85 182.19 457.98 181.68 450.94 181.68 443.79 181.86 436.63 182.55 429.35 183.76 421.99 185.11 414.63 186.92 407.36 189.14 400.19 191.45 393.01 194.14 385.92 197.17 378.93 200.21 371.91 203.56 364.96 207.18 358.1 210.76 351.19 214.58 344.33 218.6 337.52 222.54 330.65 226.66 323.8 230.94 316.99 235.11 310.1 239.43 303.23 243.87 296.38 248.18 289.46 252.62 282.57 257.18 275.73 261.6 268.84 266.15 262.03 270.81 255.33 275.35 248.64 280.02 242.12 284.82 235.82 289.51 229.61 294.35 223.7 299.34 218.15 304.24 212.8 309.31 207.9 314.54 203.5 319.71 199.41 325.06 195.9 330.61 193.02 336.1 190.51 341.81 188.66 347.72 187.5 353.59 186.71 359.68 186.58 366.01 187.11 372.3 187.91 378.84 189.27 385.61 191.15 392.37 193.11 399.38 195.46 406.64 198.13" stroke-dasharray="0 0" transform="rotate(31.035714285714285, 400, 400)" opacity="0.42"></path><path d="M411.86 209.74C418.8 212.17 425.81 214.72 432.88 217.31 439.95 219.6 447.08 221.88 454.24 224.09 461.42 225.93 468.63 227.71 475.84 229.42 483.05 230.76 490.27 232.08 497.44 233.39 504.6 234.42 511.7 235.51 518.7 236.71 525.65 237.72 532.48 238.92 539.12 240.34 545.66 241.69 551.98 243.33 558.02 245.27 566.69 248.4 581.82 256.59 588.06 261.68 593.36 267.31 600.58 280.48 602.38 287.93 603.05 295.81 600.78 312.86 597.94 321.9 595.7 328.02 592.97 334.28 589.8 340.64 586.62 347.02 583.13 353.48 579.37 359.99 575.81 366.5 572.13 373.05 568.39 379.61 565.04 386.18 561.81 392.59 558.78 398.85 556.22 405.1 553.87 411.22 551.76 417.18 550.14 423.16 548.73 429.01 547.5 434.73 546.4 443.35 545.16 460.34 544.76 468.82 544.71 474.61 544.51 480.42 544.12 486.29 543.85 492.34 543.31 498.47 542.46 504.7 541.64 511.13 540.46 517.67 538.89 524.31 537.28 531.14 535.26 538.05 532.82 544.99 530.3 552.04 527.36 559.06 524 565.97 520.54 572.84 516.68 579.49 512.43 585.8 508.1 591.88 503.39 597.48 498.35 602.49 493.23 607.05 487.79 610.88 482.06 613.87 476.28 616.26 470.23 617.72 463.94 618.2 457.62 618.04 451.07 616.9 444.31 614.81 437.55 612.2 430.59 608.75 423.47 604.56 416.33 600.12 409.21 595.27 402.1 590.15 395 585.16 387.92 580.13 380.88 575.18 373.84 570.64 366.85 566.32 359.91 562.28 352.96 558.79 346.07 555.61 339.25 552.76 332.43 550.46 325.67 548.41 319 546.59 312.32 545.21 305.74 543.94 299.26 542.71 292.78 541.77 286.42 540.74 280.2 539.56 274 538.51 267.95 537.2 262.08 535.59 256.26 533.99 250.62 532 245.22 529.63 237.34 525.74 223.1 515.67 216.85 509.53 212.92 505.19 209.36 500.48 206.19 495.42 203.17 490.28 200.57 484.82 198.41 479.08 196.42 473.29 194.88 467.25 193.81 460.99 192.92 454.7 192.51 448.22 192.58 441.57 192.82 434.92 193.54 428.11 194.75 421.17 196.09 414.22 197.86 407.31 200.03 400.45 202.28 393.58 204.9 386.76 207.83 379.98 210.79 373.2 214.04 366.44 217.55 359.73 221.03 352.99 224.74 346.27 228.66 339.59 232.5 332.86 236.53 326.15 240.71 319.47 244.8 312.73 249.04 306.02 253.4 299.35 257.65 292.64 262.02 285.97 266.51 279.38 270.87 272.79 275.36 266.3 279.96 259.95 284.44 253.65 289.05 247.55 293.78 241.7 298.41 235.97 303.17 230.55 308.07 225.51 312.88 220.68 317.85 216.29 322.96 212.39 328.01 208.79 333.23 205.74 338.62 203.28 346.73 200.4 363.83 198.23 372.86 198.89 378.93 199.75 385.21 201.13 391.71 202.99 398.19 204.9 404.91 207.17 411.85 209.74" stroke-dasharray="0 0" transform="rotate(33.857142857142854, 400, 400)" opacity="0.46"></path><path d="M416.59 221.36C423.2 223.7 429.85 226.15 436.54 228.67 443.22 230.93 449.95 233.18 456.68 235.4 463.42 237.29 470.16 239.13 476.88 240.92 483.6 242.37 490.29 243.81 496.9 245.23 503.5 246.38 510 247.58 516.38 248.86 522.71 249.95 528.88 251.18 534.84 252.58 543.53 254.65 559.31 260.03 566.21 263.45 572.42 267.25 582.18 276.62 585.57 282.16 588.02 288.15 589.66 301.67 588.86 309.11 587.19 316.86 581.14 333.37 576.96 342.02 574.07 347.85 570.88 353.79 567.46 359.81 564.22 365.84 560.84 371.95 557.4 378.11 554.29 384.27 551.27 390.34 548.39 396.31 545.93 402.29 543.62 408.17 541.49 413.96 539.8 419.77 538.26 425.51 536.88 431.17 535.44 439.72 533.41 456.77 532.61 465.36 532.29 471.21 531.85 477.1 531.26 483.05 530.8 489.14 530.12 495.3 529.19 501.54 528.3 507.93 527.12 514.39 525.61 520.9 524.09 527.53 522.22 534.19 519.98 540.81 517.7 547.48 515.04 554.05 512.01 560.45 508.91 566.77 505.45 572.81 501.62 578.49 497.74 583.91 493.5 588.85 488.94 593.21 481.86 598.77 466.16 605.36 457.61 606.14 451.81 605.81 445.77 604.62 439.51 602.58 433.25 600.09 426.78 596.85 420.12 592.95 413.46 588.82 406.77 584.31 400.09 579.55 393.41 574.87 386.73 570.11 380.08 565.39 373.43 561 366.8 556.76 360.21 552.73 353.62 549.16 347.08 545.84 340.59 542.77 334.11 540.2 327.69 537.84 321.35 535.68 315.02 533.94 308.77 532.31 302.62 530.74 296.49 529.47 290.48 528.16 284.6 526.76 275.91 524.82 259.43 519.93 251.74 516.79 244.39 513.27 231.17 504.35 225.39 498.93 220.14 493.04 211.67 479.48 208.53 471.89 206.05 463.95 203.52 446.82 203.5 437.69 203.79 431.54 204.54 425.2 205.74 418.68 207.06 412.17 208.79 405.64 210.9 399.12 213.08 392.6 215.6 386.08 218.43 379.57 221.29 373.06 224.43 366.55 227.81 360.06 231.19 353.56 234.78 347.06 238.57 340.58 242.31 334.07 246.22 327.58 250.29 321.11 254.28 314.63 258.42 308.17 262.68 301.77 266.84 295.36 271.13 289.01 275.53 282.77 279.83 276.55 284.24 270.46 288.76 264.55 293.18 258.71 297.71 253.08 302.35 247.73 306.91 242.52 311.58 237.63 316.38 233.11 321.11 228.81 325.96 224.93 330.96 221.53 338.43 217.11 354.08 211.38 362.28 210.16 367.77 209.81 373.44 210 379.29 210.73 385.12 211.65 391.15 213.03 397.36 214.84 403.57 216.7 409.98 218.88 416.58 221.35" stroke-dasharray="0 0" transform="rotate(36.67857142857143, 400, 400)" opacity="0.49"></path><path d="M420.65 232.97C433.15 237.29 445.75 241.96 458.31 246.64 470.86 250.18 483.31 253.6 495.42 256.93 507.42 259.23 518.92 261.79 529.62 264.78 539.95 267.3 549.21 270.67 557.06 275.01 564.24 279.36 569.73 284.89 573.28 291.55 575.97 298.42 576.65 306.41 575.26 315.35 573.25 324.45 569.49 334.39 564.19 344.97 559.02 355.6 552.97 366.76 546.41 378.32 540.99 389.87 535.88 401.28 531.28 412.48 528.17 423.75 525.48 434.96 523.1 446.11 521.87 457.53 520.5 469.1 518.78 480.81 517.59 492.95 515.57 505.32 512.57 517.76 509.6 530.44 505.39 542.89 499.89 554.66 494.23 565.92 487.24 575.78 479.02 583.61 470.64 589.91 461.09 593.51 450.53 594.01 439.89 592.64 428.32 588.32 415.95 581.33 403.59 573.61 391.06 564.77 378.56 555.62 366.09 547.5 353.66 539.91 341.43 533.1 329.24 527.94 317.27 523.43 305.7 519.36 294.24 516.44 283.23 513.33 272.89 509.71 262.78 506.47 253.45 502.22 245.13 496.83 237.22 491.35 230.46 484.58 225.06 476.57 220.22 468.39 216.85 459.05 215.11 448.68 213.98 438.24 214.49 426.89 216.73 414.74 219.43 402.59 223.6 390.26 228.98 377.9 234.49 365.52 241.02 353.08 248.33 340.7 255.51 328.3 263.35 315.95 271.7 303.85 279.74 291.83 288.26 280.2 297.17 269.26 305.75 258.71 314.78 249.17 324.22 241.01 333.38 233.68 343.07 228.05 353.26 224.42 363.27 221.81 373.91 221.21 385.13 222.63 396.29 224.65 408.14 228.18 420.64 232.96" stroke-dasharray="0 0" transform="rotate(39.5, 400, 400)" opacity="0.53"></path><path d="M423.87 244.58C435.62 248.72 447.37 253.24 458.98 257.83 470.57 261.42 481.96 264.97 492.92 268.46 503.76 271.02 514.02 273.77 523.45 276.87 532.53 279.45 540.55 282.71 547.23 286.77 553.33 290.73 557.88 295.69 560.68 301.65 562.8 307.71 563.13 314.78 561.67 322.78 559.75 330.87 556.29 339.81 551.49 349.44 546.85 359.11 541.4 369.4 535.42 380.22 530.42 391.03 525.59 401.87 521.12 412.66 517.9 423.52 514.98 434.44 512.3 445.39 510.61 456.56 508.81 467.9 506.72 479.35 505.16 491.08 502.92 502.93 499.87 514.69 496.93 526.5 492.93 537.91 487.83 548.5 482.64 558.49 476.28 567.07 468.8 573.7 461.21 578.95 452.53 581.75 442.88 581.82 433.17 580.3 422.55 576.2 411.14 569.72 399.73 562.61 388.11 554.43 376.48 545.85 364.88 538.08 353.28 530.61 341.86 523.72 330.5 518.19 319.35 513.2 308.58 508.6 297.93 505.07 287.74 501.46 278.19 497.54 268.89 494.06 260.34 489.83 252.75 484.7 245.55 479.6 239.43 473.4 234.58 466.12 230.25 458.74 227.28 450.29 225.82 440.84 224.9 431.33 225.51 420.9 227.71 409.64 230.35 398.38 234.34 386.86 239.46 375.23 244.73 363.62 250.96 351.9 257.96 340.24 264.85 328.61 272.4 317.07 280.44 305.83 288.25 294.74 296.52 284.11 305.17 274.23 313.54 264.78 322.34 256.35 331.5 249.27 340.43 242.95 349.82 238.22 359.64 235.31 369.32 233.27 379.53 233.04 390.23 234.6 400.88 236.63 412.1 240.02 423.86 244.58" stroke-dasharray="0 0" transform="rotate(42.32142857142857, 400, 400)" opacity="0.56"></path><path d="M426.12 256.19C437.09 260.14 447.96 264.47 458.59 268.94 469.2 272.56 479.52 276.2 489.34 279.82 499.04 282.6 508.12 285.55 516.34 288.77 524.26 291.46 531.14 294.71 536.77 298.61 543.78 304.59 549.53 320.86 548.1 331.22 546.3 338.45 543.17 346.51 538.86 355.29 534.73 364.09 529.84 373.57 524.43 383.66 519.84 393.75 515.31 404 511.01 414.3 507.74 424.67 504.67 435.18 501.74 445.78 499.69 456.52 497.52 467.43 495.1 478.39 493.19 489.5 490.73 500.61 487.59 511.49 484.62 522.28 480.76 532.54 475.97 541.89 471.15 550.62 465.31 557.95 458.48 563.46 451.57 567.76 443.68 569.86 434.89 569.56 426.04 567.95 416.34 564.08 405.88 558.11 395.41 551.6 384.72 544.07 373.99 536.09 363.29 528.72 352.58 521.47 342.02 514.6 331.55 508.85 321.26 503.5 311.35 498.48 301.57 494.41 292.24 490.34 283.52 486.07 275.05 482.3 267.29 477.96 260.44 472.93 253.95 468.03 248.48 462.23 244.18 455.5 240.34 448.75 237.76 441.03 236.57 432.39 235.86 423.72 236.54 414.16 238.7 403.79 241.25 393.42 245.05 382.75 249.9 371.96 254.9 361.19 260.8 350.32 267.44 339.52 274.02 328.78 281.23 318.19 288.92 307.94 296.43 297.9 304.41 288.36 312.73 279.6 320.85 271.27 329.35 263.96 338.18 257.92 346.83 252.56 355.89 248.67 365.3 246.42 374.6 244.89 384.34 244.96 394.48 246.62 404.58 248.64 415.15 251.89 426.12 256.19" stroke-dasharray="0 0" transform="rotate(45.14285714285714, 400, 400)" opacity="0.59"></path><path d="M427.31 267.8C437.46 271.54 447.43 275.67 457.08 279.99 466.71 283.59 475.96 287.27 484.68 290.98 493.28 293.95 501.22 297.08 508.33 300.43 518.1 304.91 531.58 316.08 534.79 323.21 536.07 328.15 536 333.9 534.57 340.42 532.93 346.95 530.13 354.25 526.3 362.27 522.65 370.28 518.31 379.01 513.45 388.38 509.26 397.76 505.04 407.37 500.93 417.11 497.68 426.89 494.51 436.86 491.43 446.93 489.08 457.08 486.61 467.36 483.93 477.62 481.71 487.92 479.04 498.12 475.81 507.97 472.78 517.63 469.01 526.69 464.46 534.79 459.93 542.27 454.52 548.42 448.26 552.9 441.95 556.34 434.77 557.85 426.77 557.25 418.73 555.59 409.91 551.96 400.37 546.5 390.84 540.58 381.08 533.7 371.27 526.33 361.5 519.41 351.72 512.46 342.07 505.73 332.51 499.88 323.14 494.31 314.12 489 305.25 484.5 296.8 480.02 288.94 475.44 281.31 471.34 274.35 466.84 268.25 461.83 262.47 456.99 257.63 451.44 253.87 445.14 250.52 438.85 248.31 431.74 247.37 423.82 246.85 415.88 247.6 407.14 249.69 397.64 252.13 388.15 255.72 378.37 260.28 368.49 264.98 358.63 270.54 348.7 276.78 338.87 283 329.14 289.83 319.59 297.12 310.43 304.3 301.49 311.91 293.1 319.85 285.48 327.64 278.28 335.8 272.04 344.24 267 352.55 262.55 361.2 259.42 370.15 257.75 379.02 256.66 388.25 256.98 397.78 258.7 407.29 260.68 417.16 263.76 427.31 267.8" stroke-dasharray="0 0" transform="rotate(47.96428571428571, 400, 400)" opacity="0.63"></path><path d="M427.39 279.42C436.7 282.92 445.75 286.84 454.43 290.97 463.07 294.51 471.3 298.19 478.96 301.92 486.51 305.04 493.41 308.31 499.49 311.77 507.84 316.44 519.07 327.47 521.6 334.22 522.6 338.81 522.43 344.1 521.11 350.08 519.64 356.02 517.18 362.68 513.82 370.02 510.63 377.34 506.8 385.35 502.46 394.01 498.67 402.67 494.77 411.6 490.89 420.68 487.7 429.79 484.52 439.09 481.34 448.46 478.79 457.87 476.1 467.35 473.22 476.73 470.75 486.08 467.9 495.23 464.6 503.96 461.5 512.44 457.79 520.26 453.43 527.13 449.13 533.42 444.09 538.48 438.33 542.03 432.54 544.71 426 545.71 418.75 544.89 411.47 543.22 403.48 539.85 394.86 534.89 386.23 529.54 377.41 523.3 368.54 516.56 359.71 510.13 350.86 503.56 342.16 497.07 333.54 491.27 325.11 485.61 317.01 480.14 309.06 475.33 301.5 470.55 294.51 465.72 287.73 461.33 281.57 456.66 276.2 451.61 271.13 446.77 266.9 441.38 263.66 435.4 260.78 429.47 258.93 422.87 258.22 415.58 257.87 408.3 258.67 400.31 260.68 391.68 263 383.05 266.36 374.19 270.6 365.26 274.99 356.36 280.17 347.44 285.99 338.66 291.82 329.99 298.22 321.54 305.07 313.52 311.84 305.71 319.03 298.47 326.54 291.98 333.93 285.86 341.67 280.66 349.66 276.54 357.55 272.91 365.74 270.46 374.17 269.3 382.55 268.59 391.2 269.1 400.09 270.83 408.96 272.75 418.08 275.64 427.39 279.42" stroke-dasharray="0 0" transform="rotate(50.78571428571429, 400, 400)" opacity="0.66"></path><path d="M426.37 291.03C434.81 294.29 442.93 297.96 450.65 301.88 458.34 305.32 465.58 308.93 472.24 312.65 478.81 315.85 484.74 319.21 489.91 322.75 497 327.59 506.32 338.57 508.33 345.04 509.02 351.86 505.39 368.38 501.4 378.14 498.65 384.84 495.31 392.17 491.46 400.11 488.07 408.05 484.5 416.25 480.88 424.59 477.81 432.94 474.67 441.45 471.48 449.98 468.8 458.52 465.97 467.06 462.96 475.44 460.31 483.73 457.33 491.75 453.99 499.3 450.83 506.58 447.18 513.19 443.01 518.88 436.55 526.1 420.59 533.17 411.05 532.49 404.47 530.84 397.29 527.75 389.55 523.27 381.81 518.49 373.91 512.88 365.98 506.77 358.08 500.87 350.19 494.75 342.44 488.6 334.77 482.96 327.28 477.36 320.12 471.87 313.09 466.9 306.44 461.94 300.3 456.95 294.36 452.35 288.99 447.54 284.35 442.48 279.95 437.62 276.32 432.35 273.58 426.64 271.13 421 269.62 414.83 269.12 408.12 268.92 401.42 269.75 394.16 271.67 386.37 273.85 378.57 276.97 370.64 280.88 362.69 284.93 354.77 289.71 346.89 295.08 339.2 300.47 331.6 306.41 324.28 312.76 317.4 319.07 310.72 325.78 304.59 332.79 299.18 339.73 294.09 346.97 289.83 354.44 286.55 361.85 283.66 369.51 281.8 377.36 281.06 385.17 280.66 393.21 281.31 401.39 283.01 409.57 284.84 417.92 287.54 426.37 291.03" stroke-dasharray="0 0" transform="rotate(53.60714285714286, 400, 400)" opacity="0.69"></path><path d="M424.27 302.64C431.83 305.65 439.04 309.05 445.83 312.72 452.59 316.01 458.88 319.51 464.62 323.14 472.82 328.05 485.68 338.25 490.08 343.74 493.41 349.2 495.57 361.93 494.43 369.38 493.37 374.46 491.57 380.07 489.07 386.2 486.73 392.32 483.84 398.99 480.47 406.2 477.46 413.4 474.24 420.82 470.89 428.34 467.98 435.86 464.95 443.49 461.83 451.09 459.11 458.66 456.22 466.17 453.16 473.46 450.4 480.64 447.36 487.5 444.02 493.86 440.85 499.97 437.28 505.42 433.29 510.03 427.17 515.8 412.49 520.99 403.88 520.04 397.96 518.46 391.54 515.65 384.66 511.66 377.78 507.42 370.78 502.44 363.78 496.97 356.81 491.63 349.86 486.02 343.07 480.29 336.34 474.92 329.79 469.52 323.56 464.14 317.44 459.17 311.67 454.17 306.39 449.15 301.26 444.44 296.66 439.59 292.7 434.56 288.95 429.72 285.9 424.58 283.62 419.13 281.59 413.75 280.38 407.98 280.07 401.82 280.01 395.67 280.85 389.09 282.66 382.12 284.69 375.15 287.54 368.12 291.11 361.15 294.81 354.21 299.16 347.37 304.04 340.75 308.98 334.23 314.4 328.01 320.22 322.23 326.02 316.62 332.19 311.54 338.64 307.14 345.05 302.98 351.74 299.58 358.62 297.04 365.47 294.79 372.53 293.43 379.74 293.02 386.92 292.86 394.28 293.61 401.72 295.25 409.16 296.97 416.7 299.45 424.27 302.64" stroke-dasharray="0 0" transform="rotate(56.42857142857143, 400, 400)" opacity="0.73"></path><path d="M421.18 314.25C427.86 316.99 434.17 320.1 440.06 323.48 445.93 326.58 451.34 329.91 456.23 333.39 463.2 338.23 474 348.37 477.64 353.79 480.42 359.17 482.2 371.37 481.26 378.33 480.4 383.04 478.91 388.19 476.81 393.77 474.85 399.33 472.4 405.34 469.48 411.8 466.85 418.25 463.97 424.85 460.93 431.49 458.23 438.14 455.36 444.81 452.36 451.41 449.68 457.97 446.82 464.41 443.8 470.58 441.01 476.64 437.98 482.35 434.71 487.57 429.85 494.76 418.57 505.05 412.04 507.68 405.13 508.68 389.29 504.82 380.4 500.05 374.35 496.34 368.23 491.97 362.14 487.14 356.07 482.39 350.05 477.33 344.19 472.1 338.38 467.12 332.76 462.03 327.43 456.91 322.19 452.08 317.29 447.2 312.82 442.28 306.54 435.21 296.91 420.68 293.81 413.05 291.7 405.27 291.55 388.39 293.65 379.27 295.51 373.09 298.09 366.96 301.3 360.94 304.62 354.95 308.52 349.11 312.91 343.54 317.34 338.04 322.22 332.86 327.46 328.11 332.71 323.5 338.29 319.39 344.12 315.88 349.94 312.56 356 309.9 362.24 307.98 368.46 306.27 374.86 305.33 381.36 305.18 387.86 305.2 394.47 305.99 401.13 307.54 407.8 309.12 414.51 311.37 421.18 314.25" stroke-dasharray="0 0" transform="rotate(59.25, 400, 400)" opacity="0.76"></path><path d="M417.24 325.87C428.82 330.59 438.94 336.65 447.21 343.4 455.32 349.22 461.39 355.85 465.08 363.14 468.52 369.78 469.59 377.55 468.22 386.4 466.92 395.04 463.63 405.11 458.49 416.48 454.19 427.84 448.89 439.46 443.08 450.64 438.17 461.66 432.46 471.88 426.05 480.36 420.13 488.11 413.05 493.5 404.89 495.71 396.82 496.7 387.42 494.33 376.93 488.44 366.43 481.96 355.89 473.45 345.93 464 336.14 455.17 327.16 445.77 319.65 436.27 312.56 427.45 307.2 418.16 304.16 408.48 301.71 399.04 301.73 388.82 304.64 378.04 308.11 367.25 314.02 356.94 321.67 347.69 329.54 338.64 338.95 330.99 349.27 325.4 359.61 320.32 370.81 317.57 382.31 317.52 393.82 317.88 405.67 320.67 417.24 325.87" stroke-dasharray="0 0" transform="rotate(62.07142857142857, 400, 400)" opacity="0.80"></path><path d="M412.6 337.48C422.41 341.64 430.89 347.05 437.74 353.17 444.48 358.64 449.48 364.9 452.51 371.71 455.4 378.06 456.36 385.29 455.32 393.31 454.39 401.17 451.76 410.08 447.5 419.87 443.84 429.65 439.19 439.4 433.95 448.56 429.36 457.57 424.01 465.69 418.06 472.22 412.47 478.2 405.98 482.16 398.7 483.51 391.51 484.04 383.33 481.85 374.4 476.82 365.46 471.37 356.63 464.13 348.41 455.97 340.3 448.15 332.97 439.67 326.94 431.02 321.2 422.82 316.96 414.21 314.67 405.44 312.8 396.83 313.01 387.77 315.63 378.52 318.68 369.27 323.78 360.71 330.36 353.24 337.13 345.9 345.25 339.89 354.15 335.66 363.1 331.75 372.79 329.78 382.7 330.02 392.63 330.48 402.78 332.96 412.6 337.48" stroke-dasharray="0 0" transform="rotate(64.89285714285714, 400, 400)" opacity="0.83"></path><path d="M407.45 349.09C415.53 352.66 422.45 357.34 427.99 362.71 433.48 367.65 437.54 373.33 440.02 379.48 442.43 385.32 443.31 391.85 442.59 398.91 441.97 405.86 439.94 413.53 436.51 421.7 433.49 429.88 429.52 437.79 424.97 445.01 420.84 452.13 416.02 458.34 410.69 463.16 405.61 467.61 399.84 470.39 393.52 471.11 387.26 471.31 380.32 469.38 372.9 465.21 365.48 460.75 358.29 454.78 351.71 447.95 345.19 441.3 339.4 433.97 334.72 426.41 330.23 419.11 326.99 411.48 325.35 403.79 324 396.21 324.33 388.41 326.62 380.68 329.22 372.95 333.49 366.01 338.97 360.13 344.62 354.32 351.39 349.71 358.81 346.59 366.3 343.64 374.4 342.27 382.66 342.67 390.94 343.15 399.36 345.28 407.45 349.09" stroke-dasharray="0 0" transform="rotate(67.71428571428571, 400, 400)" opacity="0.86"></path><path d="M401.99 360.7C408.37 363.63 413.81 367.52 418.16 372.01 424.09 378.7 430.06 394.34 430.02 403.1 429.66 408.98 428.17 415.3 425.52 421.84 423.13 428.38 419.9 434.52 416.11 439.96 410.52 447.6 397.07 457.33 389.34 458.55 384.11 458.53 378.44 456.92 372.51 453.6 366.58 450.1 360.95 445.38 355.89 439.93 350.87 434.54 346.48 428.53 343.01 422.28 339.66 416.15 337.31 409.74 336.21 403.34 335.3 396.99 335.69 390.57 337.61 384.36 339.73 378.14 343.16 372.7 347.54 368.22 352.03 363.77 357.43 360.33 363.34 358.09 369.31 355.93 375.76 355 382.33 355.43 388.93 355.88 395.61 357.61 401.99 360.7" stroke-dasharray="0 0" transform="rotate(70.53571428571429, 400, 400)" opacity="0.90"></path><path d="M396.45 372.31C405.9 376.7 412.53 384.09 415.61 392.6 418.7 400.75 418.49 410.48 414.54 420.28 411.14 430.06 404.98 438.01 397.67 442.56 390.72 446.65 382.14 446.8 373.23 441.99 364.31 436.77 356.71 428.08 351.84 418.46 347.23 409.03 345.72 398.64 348.6 389.25 351.95 379.86 359.07 373.17 367.79 370.05 376.7 367.01 387.01 367.56 396.45 372.31" stroke-dasharray="0 0" transform="rotate(73.35714285714286, 400, 400)" opacity="0.93"></path><path d="M391.06 383.93C403.49 389.74 408.79 404.12 403.55 417.12 399.27 430.12 386.97 436.56 375.03 430.38 363.09 423.48 355.76 407.6 359.59 394.99 364.28 382.36 378.63 377.45 391.06 383.93" stroke-dasharray="0 0" transform="rotate(76.17857142857143, 400, 400)" opacity="0.97"></path></g></svg>