<svg xmlns="http://www.w3.org/2000/svg" version="1.1" xmlns:xlink="http://www.w3.org/1999/xlink" xmlns:svgjs="http://svgjs.dev/svgjs" viewBox="0 0 800 800" opacity="0.57"><defs><linearGradient x1="50%" y1="0%" x2="50%" y2="100%" id="ccchaos-grad"><stop stop-color="hsl(265, 55%, 30%)" stop-opacity="1" offset="0%"></stop><stop stop-color="hsl(265, 55%, 60%)" stop-opacity="1" offset="100%"></stop></linearGradient></defs><g stroke-width="2" stroke="url(#ccchaos-grad)" fill="none" stroke-linecap="round"><path d="M376.14 61.1C386.96 64.02 397.79 67.71 408.61 71.95 419.47 76.05 430.4 80.34 441.42 84.67 452.58 88.42 463.96 92.04 475.6 95.48 487.5 98.21 499.81 100.81 512.55 103.33 525.63 105.32 539.22 107.44 553.26 109.79 567.56 111.97 582.19 114.63 596.95 117.85 611.57 121.24 625.91 125.38 639.62 130.29 652.45 135.59 664.01 141.74 673.87 148.7 682.07 156.1 688.05 164.28 691.55 173.14 693.15 182.39 692.37 192.24 689.42 202.58 685.47 213.19 680.37 224.18 674.81 235.47 670.31 246.91 666.92 258.56 665.44 270.34 667.02 282.2 671.52 294.15 679.11 306.12 689.94 318.13 703.18 330.15 717.97 342.14 733.54 354.14 748.36 366.12 761.08 378.02 770.92 389.93 776.52 401.76 777.15 413.47 773.28 425.18 764.8 436.47 752.72 447.3 738.57 458.11 723.26 468.42 708.15 478.21 694.69 487.93 683.51 497.08 675.21 505.62 670.45 514.07 668.79 521.9 669.82 529.09 673.54 536.21 678.6 542.73 684.14 548.69 690.08 554.69 694.92 560.26 698.02 565.49 699.64 571.01 698.73 576.43 695.24 581.89 689.69 587.98 681.72 594.39 671.66 601.3 660.08 609.15 647.09 617.7 633.13 627.02 618.56 637.37 603.67 648.47 588.78 660.22 573.98 672.64 559.54 685.32 545.59 697.93 532.04 710.39 519.04 722.08 506.57 732.58 494.5 741.84 482.85 749.21 471.55 754.3 460.52 757.45 449.68 758.05 438.96 756.08 428.37 752.34 417.78 746.5 407.15 738.93 396.55 730.83 385.85 722.11 375.06 713.36 364.27 705.85 353.64 699.56 343.21 694.82 332.79 692.3 322.61 691.5 312.71 692.3 302.88 695 293.38 698.68 284.28 702.89 275.26 707.83 266.67 712.38 258.55 716.11 250.49 719.3 242.88 720.97 235.72 720.9 228.52 719.53 221.7 716.21 215.19 711.01 208.48 704.45 201.96 696.21 195.56 686.55 188.76 675.94 181.94 664.32 175.06 651.98 167.68 639.25 160.19 626.18 152.62 613 144.62 599.87 136.66 586.85 128.82 574.05 120.86 561.54 113.27 549.31 106.18 537.39 99.36 525.81 93.27 514.47 88.05 503.36 83.32 492.51 79.54 481.78 76.73 471.14 74.36 460.65 72.84 450.14 72.09 439.58 71.48 429.09 71.39 418.47 71.73 407.73 71.8 397 72.08 386.11 72.51 375.06 72.44 364.01 72.49 353.07 72.69 342.29 72.53 331.51 72.7 320.92 73.3 310.57 73.9 300.26 75.19 290.23 77.25 280.55 79.69 270.95 83.06 261.75 87.38 252.98 92.21 244.34 97.97 236.17 104.54 228.51 111.47 220.97 119.03 213.93 127.06 207.4 135.09 200.92 143.36 194.88 151.73 189.27 159.77 183.55 167.76 178.13 175.67 172.95 183.09 167.47 190.41 162.09 197.67 156.74 204.49 150.9 211.35 144.97 218.32 138.93 225 132.32 231.93 125.59 239.15 118.76 246.27 111.5 253.77 104.28 261.69 97.23 269.61 90.08 277.98 83.36 286.77 77.25 295.61 71.46 304.86 66.58 314.48 62.76 324.14 59.62 334.14 57.71 344.44 57.1 354.74 57.23 365.31 58.58 376.13 61.09" stroke-dasharray="0 4" transform="rotate(0, 400, 400)" opacity="0.05"></path><path d="M378.92 70.41C389.51 73.33 400.19 77 410.97 81.21 421.79 85.29 432.78 89.58 443.94 93.93 455.24 97.74 466.81 101.42 478.69 104.94 490.79 107.78 503.28 110.47 516.17 113.07 529.31 115.14 542.84 117.28 556.69 119.61 570.64 121.71 584.71 124.22 598.68 127.23 612.33 130.33 625.47 134.11 637.75 138.6 649.04 143.42 658.92 149.03 667.03 155.4 673.55 162.19 677.93 169.74 680.01 177.96 680.49 186.56 678.9 195.77 675.53 205.5 671.57 215.51 666.83 225.93 662 236.68 658.45 247.61 656.21 258.79 655.94 270.13 658.62 281.56 664.04 293.11 672.29 304.71 683.44 316.35 696.63 328.02 711.08 339.66 726.04 351.32 740.13 362.94 752.11 374.47 761.34 386.02 766.54 397.47 767.08 408.76 763.43 420.06 755.45 430.92 744.02 441.3 730.59 451.67 715.91 461.54 701.24 470.88 687.92 480.17 676.55 488.91 667.73 497.07 662.14 505.17 659.44 512.7 659.33 519.65 661.9 526.6 665.97 533.03 670.77 538.99 676.28 545.07 681.08 550.82 684.56 556.35 686.93 562.23 687.14 568.11 685.03 574.11 681.09 580.76 674.82 587.79 666.49 595.32 656.62 603.74 645.2 612.81 632.62 622.58 619.25 633.24 605.31 644.52 591.13 656.29 576.83 668.55 562.66 680.91 548.81 693.04 535.2 704.88 522.02 715.86 509.3 725.56 496.91 734.03 484.93 740.62 473.33 745.03 461.98 747.59 450.88 747.77 439.99 745.55 429.23 741.73 418.58 735.96 408 728.61 397.45 720.82 386.92 712.45 376.4 704.05 365.88 696.8 355.62 690.66 345.62 685.94 335.63 683.28 325.94 682.22 316.59 682.65 307.26 684.89 298.3 688.1 289.74 691.87 281.23 696.43 273.13 700.74 265.46 704.38 257.8 707.64 250.54 709.58 243.66 709.97 236.69 709.24 230 706.71 223.57 702.41 216.87 696.84 210.28 689.64 203.76 681.01 196.81 671.42 189.8 660.76 182.72 649.28 175.15 637.32 167.48 624.89 159.75 612.22 151.66 599.49 143.64 586.75 135.79 574.13 127.9 561.69 120.41 549.47 113.47 537.5 106.84 525.79 100.98 514.32 96 503.07 91.53 492.06 88 481.19 85.44 470.45 83.31 459.86 82.02 449.3 81.48 438.76 81.05 428.29 81.12 417.77 81.59 407.19 81.77 396.63 82.11 385.98 82.58 375.24 82.51 364.51 82.52 353.94 82.64 343.58 82.37 333.23 82.4 323.11 82.82 313.26 83.23 303.44 84.3 293.94 86.12 284.8 88.29 275.72 91.39 267.05 95.43 258.81 99.99 250.66 105.48 242.96 111.81 235.75 118.53 228.6 125.92 221.92 133.83 215.7 141.8 209.45 150.06 203.61 158.48 198.12 166.64 192.46 174.79 187.05 182.87 181.83 190.51 176.26 198.04 170.75 205.5 165.23 212.5 159.23 219.5 153.13 226.55 146.92 233.27 140.18 240.17 133.33 247.29 126.43 254.24 119.15 261.51 111.95 269.14 104.97 276.72 97.93 284.7 91.36 293.09 85.42 301.47 79.84 310.27 75.15 319.46 71.52 328.66 68.56 338.23 66.8 348.15 66.29 358.07 66.5 368.33 67.9 378.91 70.41" stroke-dasharray="3 2" transform="rotate(1.088235294117647, 400, 400)" opacity="0.08"></path><path d="M383.16 79.73C393.54 82.64 404.1 86.28 414.83 90.45 425.6 94.51 436.6 98.79 447.83 103.15 459.18 107 470.83 110.75 482.8 114.35 494.94 117.29 507.44 120.09 520.26 122.78 533.22 124.93 546.46 127.12 559.86 129.45 573.2 131.51 586.47 133.91 599.44 136.74 611.93 139.6 623.72 143.06 634.48 147.17 644.19 151.54 652.42 156.65 658.87 162.48 663.84 168.68 666.81 175.6 667.71 183.19 667.3 191.14 665.17 199.71 661.63 208.79 657.84 218.17 653.64 227.99 649.64 238.16 647.11 248.53 646.01 259.17 646.9 270.01 650.6 280.96 656.85 292.05 665.65 303.22 677 314.44 690.09 325.7 704.13 336.94 718.48 348.21 731.84 359.45 743.1 370.58 751.73 381.74 756.55 392.78 757.01 403.66 753.57 414.54 746.06 424.98 735.29 434.96 722.55 444.91 708.51 454.38 694.31 463.33 681.2 472.25 669.71 480.65 660.47 488.52 654.14 496.35 650.48 503.68 649.29 510.5 650.73 517.36 653.77 523.8 657.74 529.87 662.67 536.1 667.24 542.12 670.86 548.01 673.75 554.29 674.82 560.64 673.87 567.19 671.35 574.38 666.66 581.98 659.97 590.07 651.8 598.97 641.98 608.48 630.88 618.58 618.88 629.44 606.09 640.78 592.84 652.45 579.3 664.46 565.68 676.41 552.18 688 538.78 699.17 525.66 709.41 512.92 718.33 500.4 726.01 488.26 731.86 476.5 735.61 464.93 737.64 453.66 737.43 442.66 734.99 431.78 731.11 421.08 725.44 410.55 718.32 400.05 710.82 389.66 702.79 379.37 694.73 369.09 687.74 359.13 681.76 349.51 677.07 339.89 674.29 330.61 672.99 321.7 673.07 312.8 674.88 304.27 677.63 296.16 680.96 288.03 685.13 280.31 689.15 272.98 692.65 265.6 695.93 258.57 698.06 251.86 698.83 244.98 698.64 238.34 696.81 231.87 693.34 225.1 688.7 218.38 682.49 211.67 674.88 204.53 666.31 197.32 656.63 190.01 646.05 182.26 634.93 174.42 623.24 166.56 611.2 158.41 598.99 150.37 586.66 142.56 574.34 134.77 562.12 127.43 550.02 120.68 538.12 114.29 526.41 108.68 514.9 103.96 503.61 99.77 492.51 96.52 481.58 94.21 470.79 92.34 460.14 91.26 449.57 90.92 439.07 90.67 428.63 90.89 418.21 91.48 407.79 91.75 397.39 92.16 386.96 92.64 376.52 92.58 366.08 92.56 355.87 92.6 345.91 92.24 335.95 92.15 326.26 92.41 316.87 92.64 307.52 93.49 298.49 95.06 289.84 96.97 281.23 99.79 273.02 103.53 265.25 107.79 257.52 112.98 250.23 119.03 243.39 125.5 236.56 132.68 230.16 140.41 224.16 148.29 218.1 156.5 212.37 164.92 206.93 173.15 201.3 181.43 195.84 189.67 190.52 197.51 184.85 205.27 179.18 212.94 173.49 220.17 167.33 227.36 161.06 234.56 154.69 241.4 147.83 248.36 140.9 255.48 133.95 262.37 126.67 269.53 119.53 276.99 112.63 284.34 105.74 292.06 99.33 300.15 93.58 308.2 88.21 316.66 83.73 325.5 80.29 334.33 77.51 343.56 75.89 353.17 75.49 362.77 75.78 372.77 77.21 383.15 79.73" stroke-dasharray="4 1" transform="rotate(2.176470588235294, 400, 400)" opacity="0.11"></path><path d="M388.56 89.05C398.77 91.94 409.2 95.54 419.84 99.67 430.53 103.71 441.48 107.98 452.69 112.33 463.99 116.22 475.6 120.03 487.5 123.7 499.5 126.75 511.81 129.65 524.34 132.44 536.92 134.68 549.63 136.94 562.34 139.29 574.87 141.34 587.15 143.67 598.94 146.36 610.15 149.03 620.5 152.22 629.71 156 637.87 159.97 644.52 164.62 649.44 169.94 653.05 175.57 654.82 181.9 654.79 188.88 653.75 196.19 651.31 204.1 647.82 212.54 644.39 221.27 640.86 230.46 637.79 240.02 636.31 249.78 636.33 259.85 638.32 270.14 642.95 280.56 649.92 291.15 659.17 301.83 670.64 312.58 683.54 323.39 697.14 334.19 710.86 345.03 723.49 355.84 734.05 366.56 742.1 377.3 746.57 387.93 746.95 398.4 743.71 408.87 736.66 418.91 726.51 428.5 714.46 438.07 701.07 447.18 687.36 455.81 674.51 464.42 662.99 472.55 653.41 480.2 646.44 487.84 641.91 495.05 639.71 501.83 640.04 508.69 642.02 515.21 645.09 521.46 649.32 527.92 653.49 534.24 657.05 540.53 660.22 547.22 661.92 554.05 661.9 561.13 660.59 568.82 657.3 576.92 652.12 585.5 645.56 594.79 637.35 604.62 627.77 614.95 617.22 625.88 605.73 637.17 593.6 648.65 581.03 660.31 568.18 671.78 555.28 682.77 542.33 693.25 529.52 702.73 516.96 710.87 504.54 717.78 492.42 722.91 480.64 726.04 469.01 727.58 457.69 727.02 446.65 724.4 435.73 720.48 425.03 714.92 414.55 708.03 404.12 700.84 393.86 693.14 383.78 685.41 373.69 678.68 363.99 672.86 354.68 668.22 345.36 665.33 336.42 663.81 327.87 663.56 319.29 664.96 311.11 667.26 303.32 670.16 295.48 673.92 288.01 677.63 280.9 680.95 273.69 684.18 266.77 686.43 260.11 687.49 253.24 687.76 246.54 686.55 239.96 683.82 233.04 680.04 226.14 674.76 219.21 668.13 211.86 660.57 204.42 651.87 196.9 642.23 188.98 632.01 181.01 621.13 173.05 609.79 164.88 598.21 156.86 586.4 149.14 574.51 141.49 562.62 134.35 550.78 127.84 539.06 121.71 527.47 116.39 516.04 111.97 504.8 108.08 493.71 105.11 482.77 103.06 472.01 101.44 461.35 100.58 450.81 100.43 440.38 100.34 430.01 100.7 419.7 101.39 409.44 101.74 399.21 102.2 389.01 102.71 378.85 102.65 368.69 102.6 358.8 102.59 349.21 102.15 339.61 101.94 330.32 102.06 321.36 102.12 312.41 102.76 303.81 104.09 295.59 105.74 287.4 108.27 279.6 111.69 272.21 115.64 264.84 120.51 257.88 126.23 251.33 132.42 244.76 139.34 238.56 146.86 232.72 154.57 226.77 162.68 221.09 171.06 215.66 179.32 209.99 187.67 204.45 196.04 199.01 204.07 193.19 212.04 187.37 219.92 181.5 227.39 175.17 234.81 168.75 242.2 162.24 249.23 155.29 256.32 148.3 263.53 141.32 270.47 134.08 277.62 127.01 285.01 120.23 292.26 113.5 299.82 107.28 307.72 101.73 315.55 96.58 323.75 92.31 332.35 89.07 340.9 86.47 349.86 85 359.23 84.71 368.58 85.07 378.35 86.53 388.55 89.05" stroke-dasharray="1 5" transform="rotate(3.2647058823529416, 400, 400)" opacity="0.13"></path><path d="M394.76 98.37C404.79 101.24 415.08 104.8 425.6 108.88 436.16 112.88 446.98 117.13 458.06 121.48 469.21 125.4 480.63 129.26 492.29 133 504 136.15 515.92 139.15 527.96 142.04 539.96 144.39 551.95 146.73 563.78 149.13 575.33 151.2 586.47 153.49 596.98 156.08 606.84 158.59 615.74 161.57 623.43 165.05 632.71 170.79 641.74 185.76 641.42 195.04 639.99 201.72 637.48 209 634.24 216.81 631.33 224.88 628.58 233.42 626.49 242.35 626.06 251.49 627.17 260.95 630.18 270.67 635.64 280.52 643.23 290.56 652.82 300.71 664.32 310.96 676.98 321.28 690.1 331.61 703.16 341.98 715.08 352.34 724.95 362.63 732.45 372.93 736.57 383.14 736.88 393.21 733.84 403.27 727.22 412.93 717.68 422.16 706.31 431.39 693.57 440.19 680.39 448.55 667.84 456.9 656.37 464.82 646.54 472.33 639.03 479.86 633.73 487.01 630.58 493.83 629.85 500.75 630.78 507.42 632.91 513.9 636.33 520.61 639.96 527.28 643.28 533.97 646.5 541.07 648.59 548.36 649.27 555.92 648.93 564.06 646.83 572.58 643.01 581.55 637.94 591.13 631.26 601.17 623.18 611.6 614.13 622.51 604.02 633.64 593.12 644.83 581.69 656.06 569.81 666.99 557.7 677.33 545.43 687.09 533.14 695.8 520.98 703.17 508.86 709.34 496.95 713.79 485.32 716.34 473.79 717.42 462.53 716.55 451.56 713.78 440.68 709.84 430.05 704.4 419.67 697.75 409.33 690.86 399.2 683.5 389.3 676.09 379.39 669.62 369.92 663.96 360.85 659.37 351.77 656.4 343.09 654.67 334.8 654.13 326.47 655.13 318.53 657 310.95 659.47 303.3 662.82 295.98 666.2 288.98 669.3 281.82 672.43 274.92 674.73 268.22 676.01 261.27 676.65 254.44 675.95 247.68 673.88 240.57 670.88 233.45 666.48 226.28 660.76 218.71 654.17 211.07 646.45 203.35 637.76 195.29 628.46 187.23 618.44 179.22 607.89 171.07 597.02 163.14 585.83 155.55 574.47 148.11 563.04 141.2 551.57 134.96 540.15 129.14 528.79 124.14 517.54 120.03 506.45 116.45 495.46 113.77 484.62 112 473.93 110.62 463.35 109.98 452.89 110 442.56 110.07 432.29 110.54 422.12 111.32 412.04 111.75 401.99 112.25 392 112.78 382.11 112.72 372.22 112.65 362.64 112.59 353.38 112.09 344.12 111.78 335.19 111.76 326.6 111.67 318.02 112.12 309.8 113.22 301.95 114.61 294.11 116.84 286.65 119.94 279.58 123.55 272.5 128.07 265.8 133.46 259.47 139.32 253.08 145.94 247.02 153.18 241.27 160.69 235.36 168.64 229.69 176.91 224.21 185.14 218.46 193.53 212.81 201.97 207.22 210.14 201.26 218.29 195.27 226.37 189.22 234.08 182.75 241.74 176.19 249.35 169.56 256.6 162.55 263.88 155.52 271.23 148.55 278.3 141.38 285.52 134.42 292.94 127.78 300.18 121.22 307.69 115.21 315.49 109.88 323.2 104.95 331.25 100.91 339.67 97.87 348.04 95.45 356.8 94.12 365.98 93.93 375.13 94.36 384.71 95.86 394.75 98.37" stroke-dasharray="2 3" transform="rotate(4.352941176470588, 400, 400)" opacity="0.16"></path><path d="M401.32 107.69C411.18 110.53 421.3 114.04 431.64 118.07 442 122.03 452.62 126.25 463.46 130.58 474.34 134.53 485.44 138.43 496.7 142.23 507.96 145.47 519.33 148.58 530.71 151.57 541.96 154.04 553.07 156.48 563.88 158.94 574.34 161.04 584.26 163.33 593.43 165.86 601.93 168.26 609.41 171.06 615.66 174.31 622.95 179.56 628.91 193.21 627.8 201.67 626.21 207.77 623.83 214.43 621.01 221.62 618.76 229.04 616.87 236.94 615.79 245.25 616.39 253.75 618.53 262.59 622.47 271.7 628.66 280.96 636.76 290.42 646.58 300.04 658.03 309.74 670.38 319.54 682.98 329.38 695.39 339.26 706.6 349.16 715.81 359 722.77 368.86 726.57 378.65 726.82 388.31 723.96 397.98 717.77 407.28 708.82 416.2 698.11 425.11 686.02 433.63 673.38 441.77 661.18 449.91 649.82 457.69 639.84 465.11 631.89 472.58 625.9 479.75 621.9 486.65 620.17 493.68 620.07 500.54 621.23 507.28 623.78 514.27 626.75 521.28 629.67 528.36 632.75 535.85 635.01 543.55 636.14 551.53 636.54 560.03 635.42 568.9 632.75 578.14 629.01 587.92 623.74 598.05 617.1 608.48 609.51 619.25 600.81 630.12 591.21 640.93 581.03 651.67 570.25 661.99 559.09 671.65 547.68 680.68 536.1 688.62 524.53 695.23 512.9 700.69 501.39 704.5 490.06 706.51 478.79 707.18 467.73 706.03 456.94 703.13 446.2 699.2 435.71 693.9 425.47 687.49 415.27 680.89 405.3 673.86 395.56 666.77 385.83 660.55 376.54 655.06 367.67 650.53 358.78 647.49 350.28 645.58 342.18 644.76 334.02 645.4 326.22 646.85 318.76 648.91 311.2 651.84 303.94 654.87 296.93 657.72 289.76 660.69 282.78 662.99 275.96 664.41 268.88 665.33 261.86 665.07 254.88 663.57 247.56 661.27 240.21 657.65 232.8 652.8 225.04 647.13 217.21 640.35 209.34 632.6 201.19 624.24 193.08 615.11 185.09 605.38 177.03 595.3 169.23 584.81 161.83 574.07 154.63 563.19 148.01 552.2 142.08 541.18 136.6 530.17 131.94 519.21 128.16 508.36 124.91 497.57 122.53 486.9 121.02 476.38 119.88 465.93 119.44 455.62 119.63 445.44 119.84 435.31 120.42 425.3 121.27 415.42 121.76 405.56 122.31 395.8 122.84 386.17 122.8 376.53 122.71 367.24 122.61 358.29 122.05 349.33 121.66 340.72 121.53 332.47 121.29 324.2 121.56 316.3 122.43 308.76 123.57 301.22 125.51 294.03 128.28 287.22 131.55 280.36 135.71 273.85 140.72 267.67 146.23 261.4 152.5 255.42 159.43 249.69 166.67 243.79 174.4 238.07 182.5 232.5 190.65 226.65 198.99 220.87 207.45 215.12 215.72 209 223.99 202.85 232.23 196.64 240.16 190.04 248.04 183.37 255.87 176.66 263.37 169.61 270.86 162.59 278.39 155.66 285.64 148.58 293.01 141.75 300.51 135.27 307.83 128.92 315.36 123.13 323.15 118.03 330.82 113.34 338.8 109.52 347.12 106.68 355.37 104.44 364 103.25 373.02 103.16 382.01 103.67 391.44 105.19 401.31 107.68" stroke-dasharray="5 7" transform="rotate(5.4411764705882355, 400, 400)" opacity="0.19"></path><path d="M407.78 117.01C417.47 119.82 427.37 123.28 437.47 127.24 447.59 131.16 457.91 135.34 468.4 139.65 478.91 143.61 489.55 147.54 500.28 151.39 510.96 154.73 521.64 157.94 532.2 161.03 542.59 163.62 552.71 166.16 562.41 168.7 571.72 170.87 580.38 173.18 588.22 175.68 598.49 179.35 612.08 188.6 615.02 194.45 615.65 201.07 611.52 217.38 608.24 227.01 606.73 233.82 605.75 241.09 605.69 248.78 607.3 256.64 610.39 264.86 615.16 273.37 621.98 282.01 630.47 290.89 640.43 299.95 651.75 309.09 663.74 318.35 675.8 327.69 687.55 337.07 698.06 346.48 706.63 355.88 713.08 365.29 716.57 374.66 716.75 383.94 714.07 393.22 708.29 402.18 699.91 410.81 689.85 419.43 678.41 427.72 666.33 435.69 654.52 443.66 643.33 451.34 633.28 458.72 624.99 466.17 618.42 473.39 613.66 480.42 610.99 487.58 609.91 494.65 610.1 501.66 611.74 508.93 613.95 516.25 616.33 523.7 619.1 531.53 621.32 539.58 622.69 547.9 623.58 556.68 623.2 565.78 621.49 575.21 618.88 585.06 614.86 595.18 609.54 605.49 603.34 616.02 596.01 626.55 587.73 636.89 578.83 647.08 569.24 656.76 559.14 665.71 548.72 673.99 538.01 681.18 527.17 687.05 516.21 691.83 505.25 695.04 494.38 696.56 483.52 696.84 472.8 695.46 462.28 692.47 451.8 688.56 441.53 683.41 431.49 677.25 421.49 670.93 411.69 664.23 402.13 657.45 392.58 651.48 383.45 646.17 374.74 641.7 365.99 638.61 357.64 636.54 349.65 635.47 341.59 635.75 333.86 636.81 326.44 638.46 318.89 640.99 311.6 643.65 304.53 646.22 297.27 649 290.17 651.23 283.17 652.72 275.91 653.85 268.68 653.94 261.47 652.92 253.94 651.22 246.36 648.31 238.74 644.25 230.81 639.45 222.84 633.57 214.87 626.73 206.69 619.29 198.6 611.06 190.68 602.19 182.76 592.93 175.17 583.21 168.01 573.15 161.11 562.92 154.82 552.49 149.24 541.97 144.12 531.4 139.82 520.83 136.39 510.31 133.46 499.81 131.39 489.41 130.14 479.12 129.23 468.89 128.99 458.77 129.33 448.8 129.66 438.87 130.33 429.06 131.25 419.39 131.79 409.74 132.36 400.22 132.91 390.84 132.87 381.46 132.77 372.43 132.64 363.77 132.04 355.09 131.59 346.76 131.35 338.79 130.99 330.8 131.09 323.16 131.76 315.88 132.65 308.57 134.3 301.61 136.75 294.98 139.66 288.29 143.44 281.91 148.06 275.82 153.18 269.61 159.07 263.65 165.65 257.9 172.56 251.96 180.02 246.17 187.89 240.48 195.87 234.52 204.11 228.59 212.51 222.67 220.81 216.41 229.15 210.11 237.5 203.76 245.6 197.05 253.67 190.3 261.69 183.53 269.42 176.49 277.14 169.5 284.86 162.64 292.33 155.69 299.86 149.02 307.5 142.73 314.94 136.6 322.56 131.05 330.39 126.18 338.09 121.74 346.05 118.15 354.32 115.51 362.51 113.45 371.05 112.4 379.95 112.41 388.81 112.98 398.08 114.52 407.77 117" stroke-dasharray="2 4" transform="rotate(6.529411764705883, 400, 400)" opacity="0.22"></path><path d="M413.71 126.32C423.19 129.1 432.84 132.51 442.64 136.4 452.44 140.26 462.39 144.4 472.43 148.68 482.47 152.63 492.56 156.59 502.63 160.49 512.62 163.9 522.5 167.21 532.16 170.41 541.61 173.11 550.68 175.76 559.23 178.39 567.38 180.65 574.82 183 581.39 185.51 589.84 189.1 600.28 197.84 602.11 203.26 602.15 209.31 598.39 224.19 596.03 233 595.34 239.22 595.29 245.9 596.22 252.98 598.77 260.22 602.72 267.83 608.23 275.75 615.56 283.78 624.34 292.08 634.35 300.57 645.47 309.14 657.06 317.87 668.54 326.69 679.62 335.56 689.45 344.5 697.41 353.45 703.36 362.41 706.56 371.37 706.68 380.28 704.18 389.19 698.79 397.83 690.96 406.19 681.53 414.56 670.73 422.65 659.22 430.47 647.85 438.31 636.89 445.91 626.85 453.3 618.31 460.75 611.27 468.05 605.83 475.21 602.32 482.52 600.3 489.79 599.55 497.06 600.26 504.58 601.65 512.2 603.39 519.96 605.69 528.06 607.69 536.38 609.09 544.96 610.25 553.92 610.39 563.16 609.39 572.65 607.71 582.47 604.76 592.47 600.59 602.56 595.67 612.76 589.62 622.86 582.61 632.68 575 642.25 566.61 651.26 557.64 659.48 548.29 667.02 538.55 673.47 528.56 678.64 518.4 682.77 508.12 685.41 497.84 686.48 487.51 686.43 477.25 684.84 467.12 681.78 457 677.92 447.04 672.92 437.26 667.01 427.5 660.99 417.93 654.6 408.56 648.14 399.19 642.41 390.22 637.27 381.63 632.88 373.02 629.76 364.75 627.55 356.82 626.24 348.82 626.2 341.11 626.89 333.66 628.14 326.08 630.26 318.71 632.56 311.52 634.83 304.14 637.38 296.86 639.49 289.66 640.99 282.21 642.24 274.78 642.6 267.33 641.98 259.61 640.79 251.85 638.5 244.06 635.15 236.02 631.14 227.97 626.1 219.96 620.14 211.82 613.59 203.82 606.26 196.04 598.25 188.33 589.84 181 580.91 174.14 571.6 167.58 562.07 161.66 552.27 156.45 542.33 151.72 532.29 147.79 522.19 144.72 512.09 142.13 501.98 140.35 491.91 139.36 481.94 138.67 471.99 138.61 462.14 139.08 452.42 139.53 442.73 140.28 433.16 141.24 423.73 141.83 414.32 142.42 405.04 142.97 395.92 142.95 386.79 142.84 378.02 142.68 369.61 142.06 361.19 141.55 353.11 141.23 345.38 140.76 337.63 140.71 330.21 141.18 323.13 141.84 316.01 143.21 309.21 145.34 302.71 147.9 296.13 151.3 289.83 155.51 283.78 160.22 277.59 165.69 271.61 171.87 265.81 178.42 259.8 185.54 253.9 193.11 248.08 200.86 241.99 208.92 235.92 217.2 229.85 225.44 223.46 233.78 217.03 242.17 210.56 250.38 203.78 258.58 196.98 266.75 190.19 274.68 183.18 282.6 176.26 290.51 169.51 298.18 162.72 305.9 156.23 313.68 150.16 321.28 144.27 329.02 138.96 336.91 134.35 344.68 130.16 352.67 126.8 360.92 124.36 369.09 122.48 377.56 121.57 386.34 121.67 395.1 122.3 404.21 123.86 413.7 126.32" stroke-dasharray="5 6" transform="rotate(7.617647058823529, 400, 400)" opacity="0.25"></path><path d="M418.69 135.64C427.94 138.38 437.29 141.72 446.72 145.54 456.16 149.35 465.66 153.42 475.17 157.66 484.66 161.61 494.11 165.59 503.44 169.51 512.67 173 521.69 176.39 530.4 179.68 538.87 182.51 546.88 185.27 554.31 188 564.48 191.57 579.91 198.89 584.76 202.97 587.79 207.26 588.64 217.89 587.18 224.37 585.76 231.5 585.06 248.3 587.38 257.87 590.79 264.53 595.52 271.55 601.65 278.89 609.38 286.33 618.35 294.05 628.32 301.99 639.17 310 650.3 318.2 661.2 326.52 671.62 334.88 680.78 343.34 688.14 351.85 693.62 360.38 696.54 368.94 696.62 377.49 694.28 386.05 689.26 394.39 681.96 402.51 673.15 410.63 662.99 418.55 652.07 426.25 641.15 433.98 630.48 441.54 620.52 448.93 611.82 456.41 604.4 463.79 598.4 471.09 594.14 478.54 591.26 486 589.61 493.49 589.39 501.22 589.94 509.07 590.95 517.07 592.67 525.37 594.28 533.88 595.54 542.61 596.75 551.66 597.18 560.92 596.69 570.37 595.7 580.05 593.61 589.83 590.43 599.6 586.6 609.39 581.72 618.99 575.89 628.22 569.49 637.15 562.3 645.46 554.44 652.95 546.21 659.76 537.49 665.5 528.41 669.99 519.14 673.51 509.65 675.63 500.05 676.29 490.37 675.94 480.67 674.18 471.01 671.08 461.35 667.29 451.76 662.45 442.31 656.79 432.86 651.06 423.55 644.98 414.39 638.82 405.23 633.34 396.42 628.37 387.95 624.07 379.45 620.92 371.26 618.59 363.36 617.08 355.38 616.74 347.65 617.08 340.13 617.96 332.5 619.68 325.02 621.61 317.68 623.56 310.16 625.85 302.71 627.8 295.31 629.25 287.69 630.56 280.06 631.11 272.43 630.8 264.56 630.03 256.66 628.28 248.76 625.55 240.67 622.25 232.62 617.99 224.65 612.83 216.62 607.14 208.78 600.67 201.22 593.51 193.78 585.95 186.76 577.84 180.26 569.3 174.09 560.52 168.56 551.42 163.76 542.1 159.43 532.67 155.89 523.11 153.18 513.5 150.91 503.85 149.42 494.2 148.68 484.6 148.2 475 148.3 465.48 148.9 456.06 149.44 446.66 150.26 437.37 151.26 428.21 151.87 419.07 152.48 410.05 153.04 401.18 153.02 392.31 152.91 383.78 152.74 375.61 152.1 367.42 151.55 359.56 151.16 352.04 150.6 344.49 150.41 337.26 150.7 330.33 151.15 323.36 152.25 316.67 154.07 310.25 156.28 303.74 159.29 297.47 163.09 291.42 167.37 285.23 172.41 279.2 178.15 273.31 184.28 267.21 191.01 261.2 198.24 255.25 205.68 249.04 213.49 242.83 221.56 236.62 229.67 230.12 237.93 223.59 246.28 217.04 254.51 210.23 262.78 203.42 271.04 196.65 279.11 189.71 287.17 182.9 295.23 176.29 303.09 169.68 310.97 163.41 318.89 157.56 326.65 151.94 334.5 146.89 342.47 142.54 350.33 138.6 358.36 135.47 366.59 133.23 374.75 131.52 383.16 130.75 391.83 130.94 400.48 131.63 409.42 133.2 418.68 135.64" stroke-dasharray="0 6" transform="rotate(8.705882352941176, 400, 400)" opacity="0.27"></path><path d="M422.37 144.96C431.35 147.65 440.37 150.93 449.38 154.67 458.39 158.41 467.39 162.42 476.31 166.61 485.19 170.54 493.95 174.51 502.5 178.46 510.94 182.01 519.07 185.48 526.81 188.86 534.32 191.8 541.31 194.67 547.67 197.51 556.3 201.23 568.88 208.68 572.6 212.69 575.08 221.79 573.74 239.29 573.6 246.69 574.61 251.87 576.39 257.48 579.15 263.47 583.35 269.58 588.75 276.05 595.38 282.84 603.41 289.72 612.47 296.89 622.31 304.29 632.84 311.76 643.48 319.43 653.78 327.27 663.54 335.13 672.05 343.13 678.83 351.22 683.87 359.32 686.52 367.49 686.55 375.71 684.37 383.92 679.71 391.98 672.93 399.88 664.71 407.78 655.18 415.53 644.85 423.12 634.42 430.75 624.09 438.27 614.27 445.68 605.51 453.18 597.82 460.62 591.35 468.05 586.43 475.61 582.77 483.22 580.28 490.89 579.16 498.77 578.85 506.79 579.1 514.95 580.13 523.37 581.25 531.97 582.19 540.75 583.27 549.78 583.79 558.97 583.58 568.26 583.06 577.71 581.62 587.17 579.22 596.54 576.31 605.85 572.43 614.88 567.64 623.49 562.36 631.75 556.28 639.35 549.5 646.12 542.36 652.21 534.67 657.25 526.54 661.1 518.2 664.06 509.55 665.71 500.7 666 491.75 665.39 482.68 663.49 473.57 660.37 464.44 656.65 455.31 652 446.23 646.59 437.15 641.13 428.14 635.36 419.22 629.5 410.3 624.27 401.67 619.47 393.32 615.27 384.95 612.11 376.82 609.68 368.93 607.99 360.98 607.38 353.22 607.39 345.63 607.91 337.93 609.23 330.34 610.79 322.85 612.42 315.21 614.43 307.61 616.18 300.03 617.54 292.27 618.84 284.5 619.5 276.73 619.41 268.78 618.98 260.82 617.67 252.88 615.49 244.83 612.81 236.84 609.24 229 604.83 221.16 599.94 213.55 594.28 206.27 587.95 199.17 581.22 192.52 573.93 186.41 566.17 180.66 558.16 175.57 549.79 171.19 541.15 167.28 532.37 164.13 523.4 161.77 514.34 159.83 505.22 158.62 496.04 158.11 486.88 157.82 477.7 158.07 468.55 158.77 459.49 159.39 450.43 160.26 441.45 161.29 432.59 161.93 423.73 162.55 414.99 163.11 406.38 163.1 397.78 162.99 389.49 162.81 381.54 162.17 373.58 161.59 365.92 161.14 358.58 160.5 351.2 160.21 344.11 160.34 337.31 160.58 330.44 161.44 323.83 162.95 317.46 164.82 311 167.45 304.73 170.83 298.64 174.67 292.42 179.26 286.32 184.53 280.34 190.22 274.15 196.51 268.03 203.33 261.95 210.4 255.63 217.88 249.31 225.68 242.99 233.56 236.41 241.65 229.82 249.88 223.22 258.05 216.41 266.3 209.62 274.57 202.92 282.71 196.09 290.86 189.42 299 182.99 306.99 176.59 314.99 170.55 323.02 164.96 330.9 159.61 338.85 154.84 346.89 150.74 354.82 147.06 362.88 144.17 371.08 142.13 379.23 140.59 387.57 139.95 396.11 140.22 404.63 140.96 413.38 142.55 422.36 144.96" stroke-dasharray="6 5" transform="rotate(9.794117647058824, 400, 400)" opacity="0.30"></path><path d="M424.5 154.28C433.18 156.92 441.82 160.12 450.38 163.78 458.93 167.44 467.37 171.39 475.67 175.51 483.92 179.41 491.96 183.38 499.71 187.34 507.35 190.93 514.62 194.46 521.44 197.92 528.03 200.97 534.07 203.96 539.48 206.91 551.89 214.61 561.71 226.45 562.24 231.03 562.37 235.89 562.43 247.5 563.49 254.32 565.34 259.07 567.97 264.22 571.53 269.74 576.41 275.35 582.37 281.31 589.4 287.59 597.61 293.94 606.66 300.59 616.31 307.49 626.45 314.45 636.58 321.62 646.27 328.99 655.37 336.38 663.25 343.93 669.48 351.61 674.09 359.3 676.5 367.11 676.48 375 674.46 382.89 670.15 390.68 663.85 398.36 656.22 406.05 647.3 413.64 637.56 421.14 627.64 428.67 617.69 436.14 608.09 443.56 599.34 451.05 591.47 458.55 584.64 466.05 579.16 473.69 574.82 481.39 571.56 489.18 569.59 497.15 568.44 505.25 567.9 513.49 568.2 521.93 568.72 530.53 569.22 539.26 570.01 548.17 570.43 557.18 570.31 566.23 570.05 575.35 569.03 584.4 567.21 593.3 565.01 602.06 561.95 610.49 558.05 618.45 553.75 626.01 548.66 632.9 542.88 638.95 536.76 644.35 530.05 648.73 522.86 651.99 515.45 654.42 507.67 655.64 499.6 655.6 491.41 654.77 483.03 652.76 474.52 649.65 465.97 646.02 457.34 641.55 448.69 636.39 440.03 631.22 431.37 625.75 422.72 620.18 414.08 615.19 405.65 610.57 397.44 606.48 389.21 603.32 381.16 600.81 373.3 598.96 365.38 598.1 357.6 597.8 349.95 597.99 342.2 598.94 334.53 600.14 326.92 601.44 319.19 603.14 311.48 604.66 303.78 605.88 295.94 607.12 288.1 607.82 280.26 607.89 272.3 607.7 264.36 606.75 256.48 605.02 248.54 602.88 240.71 599.92 233.07 596.19 225.5 592.02 218.2 587.13 211.27 581.56 204.56 575.64 198.33 569.15 192.66 562.16 187.36 554.92 182.71 547.29 178.78 539.35 175.28 531.25 172.52 522.93 170.51 514.45 168.89 505.9 167.94 497.26 167.65 488.57 167.54 479.86 167.91 471.15 168.7 462.47 169.39 453.79 170.3 445.16 171.34 436.63 171.99 428.09 172.62 419.64 173.17 411.31 173.18 402.97 173.08 394.93 172.9 387.19 172.25 379.44 171.66 371.97 171.17 364.78 170.47 357.56 170.08 350.6 170.07 343.88 170.14 337.11 170.76 330.55 171.99 324.2 173.54 317.76 175.79 311.47 178.76 305.34 182.16 299.07 186.28 292.91 191.08 286.83 196.28 280.56 202.1 274.34 208.46 268.15 215.11 261.75 222.19 255.34 229.63 248.94 237.21 242.32 245.05 235.7 253.06 229.11 261.08 222.33 269.22 215.62 277.41 209.02 285.53 202.34 293.68 195.85 301.83 189.62 309.88 183.46 317.94 177.68 326.01 172.36 333.97 167.29 341.97 162.8 350.02 158.98 358 155.56 366.05 152.9 374.2 151.05 382.31 149.69 390.55 149.17 398.93 149.52 407.29 150.31 415.81 151.9 424.49 154.27" stroke-dasharray="2 3" transform="rotate(10.882352941176471, 400, 400)" opacity="0.33"></path><path d="M424.94 163.6C433.28 166.18 441.5 169.31 449.58 172.88 457.64 176.46 465.52 180.32 473.18 184.38 480.79 188.24 488.11 192.18 495.1 196.13 501.97 199.76 508.42 203.34 514.39 206.87 522.76 211.57 536.11 220.22 540.9 224.32 546.64 232.1 549.98 245.19 550.45 250.46 551.91 256.07 558.51 269.15 564.49 276.63 569.95 281.79 576.35 287.29 583.65 293.11 591.95 298.98 600.91 305.15 610.28 311.58 620 318.06 629.59 324.77 638.66 331.69 647.12 338.64 654.38 345.77 660.09 353.07 664.3 360.37 666.47 367.82 666.42 375.4 664.54 382.98 660.55 390.51 654.73 397.98 647.65 405.46 639.35 412.9 630.2 420.29 620.81 427.71 611.27 435.12 601.95 442.52 593.29 449.99 585.33 457.5 578.24 465.04 572.32 472.7 567.39 480.44 563.45 488.27 560.69 496.25 558.74 504.36 557.42 512.57 556.97 520.95 556.82 529.44 556.79 538.02 557.16 546.71 557.32 555.45 557.11 564.15 556.91 572.87 556.12 581.45 554.67 589.8 552.98 597.98 550.54 605.77 547.36 613.05 543.85 619.92 539.62 626.1 534.71 631.46 529.52 636.19 523.72 639.96 517.41 642.66 510.89 644.61 503.95 645.44 496.66 645.12 489.25 644.1 481.57 642.01 473.68 638.93 465.75 635.41 457.66 631.12 449.47 626.22 441.27 621.32 432.99 616.14 424.65 610.86 416.32 606.11 408.12 601.67 400.07 597.69 392.01 594.55 384.08 591.98 376.27 589.99 368.42 588.9 360.66 588.33 352.98 588.2 345.22 588.8 337.51 589.65 329.84 590.62 322.08 592.01 314.32 593.28 306.58 594.32 298.73 595.45 290.89 596.13 283.08 596.28 275.2 596.27 267.37 595.59 259.63 594.22 251.89 592.53 244.32 590.1 236.96 586.95 229.73 583.44 222.81 579.23 216.28 574.39 210.02 569.22 204.25 563.48 199.05 557.24 194.22 550.76 190.03 543.86 186.54 536.63 183.46 529.23 181.08 521.57 179.41 513.71 178.09 505.77 177.39 497.68 177.29 489.51 177.34 481.31 177.83 473.06 178.69 464.81 179.43 456.55 180.36 448.3 181.4 440.11 182.06 431.92 182.69 423.78 183.24 415.73 183.25 407.67 183.16 399.88 182.99 392.35 182.36 384.81 181.75 377.52 181.25 370.47 180.51 363.39 180.04 356.54 179.9 349.9 179.81 343.2 180.23 336.68 181.2 330.34 182.44 323.91 184.33 317.61 186.9 311.43 189.86 305.12 193.51 298.89 197.82 292.73 202.52 286.4 207.84 280.1 213.7 273.83 219.87 267.37 226.51 260.92 233.52 254.48 240.72 247.86 248.21 241.26 255.92 234.71 263.7 228.02 271.63 221.43 279.64 214.97 287.65 208.48 295.7 202.2 303.78 196.2 311.8 190.31 319.83 184.81 327.87 179.78 335.84 175 343.84 170.8 351.85 167.25 359.8 164.09 367.81 161.66 375.86 160 383.88 158.8 391.98 158.41 400.16 158.83 408.33 159.66 416.59 161.26 424.93 163.59" stroke-dasharray="7 3" transform="rotate(11.970588235294118, 400, 400)" opacity="0.36"></path><path d="M423.65 172.91C431.62 175.44 439.41 178.49 446.98 181.96 454.54 185.45 461.85 189.23 468.89 193.2 475.87 197.01 482.52 200.91 488.79 204.85 494.94 208.49 500.66 212.12 505.88 215.7 513.2 220.53 524.67 229.5 528.74 233.75 533.96 241.7 538.31 254.61 539.69 259.63 542.22 264.92 551.05 277.12 557.99 284.07 563.9 288.84 570.63 293.94 578.11 299.34 586.4 304.79 595.18 310.52 604.23 316.53 613.48 322.56 622.5 328.85 630.95 335.36 638.78 341.89 645.45 348.63 650.66 355.56 654.48 362.49 656.44 369.61 656.35 376.89 654.61 384.17 650.94 391.45 645.57 398.71 639.03 405.98 631.32 413.26 622.77 420.52 613.91 427.82 604.83 435.15 595.83 442.49 587.33 449.9 579.37 457.36 572.12 464.89 565.85 472.51 560.45 480.21 555.92 488.01 552.46 495.92 549.76 503.94 547.7 512.05 546.48 520.26 545.64 528.56 545.02 536.89 544.86 545.28 544.64 553.65 544.2 561.94 543.88 570.18 543.13 578.23 541.86 586 540.47 593.55 538.46 600.68 535.81 607.27 532.93 613.45 529.39 618.94 525.21 623.63 520.81 627.74 515.82 630.92 510.3 633.11 504.6 634.63 498.45 635.11 491.9 634.55 485.24 633.37 478.25 631.24 471 628.2 463.69 624.8 456.16 620.71 448.45 616.06 440.74 611.43 432.87 606.54 424.87 601.55 416.88 597.02 408.96 592.77 401.11 588.91 393.27 585.8 385.48 583.19 377.77 581.08 370.03 579.8 362.33 578.97 354.68 578.55 346.98 578.82 339.3 579.32 331.64 579.97 323.91 581.04 316.19 582.04 308.49 582.88 300.72 583.85 292.98 584.46 285.29 584.64 277.58 584.72 269.95 584.23 262.45 583.14 255 581.81 247.76 579.82 240.76 577.17 233.94 574.23 227.46 570.64 221.39 566.45 215.61 561.97 210.33 556.93 205.62 551.41 201.28 545.65 197.57 539.47 194.51 532.92 191.84 526.22 189.83 519.22 188.49 511.99 187.44 504.67 186.97 497.17 187.04 489.54 187.23 481.87 187.81 474.12 188.73 466.32 189.51 458.5 190.45 450.67 191.48 442.84 192.14 435.02 192.76 427.21 193.31 419.45 193.33 411.69 193.25 404.15 193.09 396.83 192.48 389.5 191.88 382.39 191.36 375.48 190.6 368.55 190.07 361.8 189.84 355.23 189.61 348.6 189.84 342.13 190.57 335.79 191.53 329.37 193.09 323.06 195.27 316.85 197.8 310.51 200.99 304.24 204.81 298.02 209 291.65 213.79 285.31 219.13 279 224.79 272.52 230.92 266.07 237.45 259.63 244.2 253.06 251.28 246.53 258.6 240.06 266.05 233.51 273.67 227.07 281.42 220.79 289.2 214.52 297.06 208.49 304.97 202.76 312.86 197.16 320.78 191.95 328.71 187.22 336.6 182.75 344.5 178.84 352.4 175.56 360.27 172.66 368.16 170.45 376.06 168.99 383.94 167.95 391.85 167.67 399.78 168.16 407.71 169.03 415.67 170.62 423.64 172.91" stroke-dasharray="5 2" transform="rotate(13.058823529411766, 400, 400)" opacity="0.39"></path><path d="M420.72 182.23C428.3 184.7 435.63 187.66 442.71 191.02 449.76 194.42 456.53 198.1 462.97 201.98 469.36 205.73 475.39 209.58 481.02 213.49 489.09 218.96 502.68 229.34 508.09 234.22 516.12 242.83 523.73 255.3 525.38 259.66 527.48 264.06 533.41 273.96 537.9 279.57 541.92 283.4 546.6 287.53 551.98 291.96 558.24 296.41 565.19 301.16 572.73 306.21 580.92 311.27 589.45 316.63 598.11 322.25 606.87 327.89 615.31 333.79 623.15 339.93 630.36 346.07 636.46 352.45 641.19 359.03 644.65 365.62 646.4 372.42 646.29 379.41 644.68 386.4 641.31 393.43 636.36 400.47 630.35 407.53 623.21 414.63 615.25 421.75 606.94 428.9 598.33 436.1 589.7 443.35 581.44 450.65 573.56 458.02 566.24 465.46 559.74 472.97 553.97 480.57 548.94 488.25 544.88 496.02 541.51 503.86 538.75 511.76 536.8 519.74 535.27 527.74 534.02 535.74 533.28 543.74 532.58 551.68 531.78 559.48 531.2 567.19 530.33 574.66 529.08 581.81 527.81 588.72 526.05 595.18 523.74 601.09 519.78 609.01 508.75 620.31 501.77 623.36 496.78 624.49 491.34 624.67 485.47 623.9 479.51 622.6 473.18 620.44 466.53 617.48 459.83 614.2 452.86 610.31 445.65 605.91 438.43 601.56 430.99 596.95 423.37 592.23 415.75 587.94 408.14 583.87 400.54 580.13 392.95 577.07 385.36 574.43 377.81 572.23 370.23 570.77 362.67 569.73 355.12 569.04 347.54 568.99 339.96 569.17 332.39 569.5 324.79 570.26 317.19 570.98 309.62 571.59 302.04 572.38 294.49 572.88 287.02 573.02 279.57 573.13 272.23 572.76 265.06 571.87 257.99 570.81 251.15 569.17 244.59 566.94 238.23 564.48 232.24 561.42 226.68 557.81 221.41 553.95 216.64 549.56 212.44 544.69 208.59 539.61 205.33 534.11 202.71 528.23 200.44 522.2 198.78 515.85 197.73 509.25 196.94 502.55 196.67 495.63 196.9 488.56 197.21 481.44 197.86 474.19 198.82 466.86 199.62 459.51 200.56 452.1 201.58 444.66 202.23 437.22 202.84 429.76 203.37 422.31 203.41 414.85 203.35 407.57 203.19 400.48 202.61 393.37 202.04 386.44 201.52 379.68 200.75 372.89 200.18 366.25 199.87 359.76 199.53 353.21 199.6 346.79 200.12 340.47 200.82 334.08 202.07 327.78 203.89 321.55 206.01 315.21 208.75 308.92 212.09 302.68 215.77 296.31 220.03 289.97 224.83 283.65 229.94 277.21 235.53 270.79 241.54 264.42 247.78 257.94 254.37 251.52 261.24 245.19 268.26 238.82 275.5 232.58 282.89 226.52 290.35 220.51 297.93 214.75 305.57 209.31 313.23 204.01 320.94 199.12 328.66 194.69 336.37 190.53 344.1 186.92 351.81 183.92 359.51 181.27 367.21 179.28 374.89 178 382.57 177.12 390.24 176.94 397.88 177.5 405.52 178.4 413.14 179.99 420.71 182.23" stroke-dasharray="5 7" transform="rotate(14.147058823529411, 400, 400)" opacity="0.41"></path><path d="M416.36 191.55C423.52 193.95 430.4 196.82 436.99 200.07 443.56 203.37 449.81 206.95 455.71 210.73 461.56 214.4 467.05 218.19 472.12 222.05 479.4 227.51 491.6 238 496.47 242.99 504.05 251.89 512.32 264.71 514.66 269.1 517.6 273.46 525.48 283.1 530.94 288.47 535.5 292.1 540.65 296.01 546.41 300.2 552.91 304.38 559.96 308.84 567.47 313.58 575.47 318.32 583.68 323.34 591.92 328.63 600.15 333.92 608.01 339.47 615.24 345.27 621.85 351.07 627.41 357.11 631.68 363.37 634.8 369.64 636.36 376.13 636.22 382.84 634.74 389.55 631.65 396.32 627.12 403.15 621.61 409.98 615.03 416.88 607.64 423.82 599.89 430.79 591.78 437.83 583.56 444.93 575.58 452.08 567.87 459.3 560.56 466.58 553.93 473.93 547.89 481.35 542.49 488.83 537.92 496.37 533.97 503.96 530.59 511.57 527.96 519.22 525.76 526.86 523.88 534.44 522.52 542 521.29 549.44 520.06 556.7 519.12 563.84 517.99 570.7 516.62 577.21 514.46 586.36 507.96 601.44 503.45 606.99 498.27 611.04 485.31 614.16 477.62 613.19 472.28 611.8 466.55 609.64 460.47 606.76 454.35 603.62 447.91 599.94 441.2 595.79 434.46 591.69 427.48 587.36 420.25 582.91 413.03 578.85 405.76 574.97 398.46 571.36 391.16 568.35 383.83 565.7 376.49 563.44 369.14 561.83 361.78 560.59 354.41 559.66 347.03 559.33 339.64 559.21 332.25 559.24 324.87 559.68 317.49 560.12 310.15 560.49 302.84 561.06 295.58 561.41 288.42 561.47 281.32 561.56 274.37 561.24 267.61 560.49 260.98 559.62 254.61 558.24 248.55 556.35 239.97 552.98 225.35 543.33 219.53 537.14 214.76 530.25 208.59 514.31 207.15 505.44 206.59 499.35 206.51 493.02 206.87 486.5 207.26 479.93 207.98 473.19 208.95 466.34 209.76 459.47 210.69 452.5 211.69 445.46 212.32 438.41 212.92 431.31 213.44 424.17 213.49 417.04 213.44 410.03 213.31 403.17 212.76 396.3 212.21 389.56 211.7 382.95 210.94 376.32 210.35 369.81 209.98 363.4 209.56 356.96 209.5 350.6 209.83 344.33 210.3 338 211.27 331.72 212.75 325.51 214.5 319.2 216.81 312.94 219.68 306.71 222.86 300.39 226.6 294.09 230.85 287.83 235.4 281.46 240.43 275.14 245.87 268.87 251.57 262.54 257.62 256.28 263.98 250.14 270.5 243.98 277.27 237.98 284.23 232.19 291.28 226.46 298.48 221 305.76 215.86 313.1 210.89 320.5 206.32 327.92 202.22 335.37 198.37 342.82 195.05 350.27 192.32 357.72 189.92 365.16 188.16 372.55 187.05 379.96 186.31 387.33 186.24 394.63 186.85 401.94 187.78 409.19 189.36 416.35 191.55" stroke-dasharray="0 4" transform="rotate(15.235294117647058, 400, 400)" opacity="0.44"></path><path d="M410.87 200.87C417.6 203.2 424.03 205.97 430.15 209.11 436.26 212.3 442.04 215.76 447.46 219.43 452.85 223.02 457.86 226.73 462.49 230.53 469.14 235.95 480.35 246.5 484.9 251.57 492.45 260.75 501.85 273.93 504.94 278.37 508.73 282.75 518.41 292.24 524.69 297.44 529.7 300.94 535.21 304.68 541.23 308.66 547.85 312.63 554.9 316.85 562.28 321.33 570.02 325.81 577.86 330.54 585.63 335.54 593.32 340.52 600.59 345.77 607.22 351.26 613.25 356.74 618.29 362.47 622.13 368.44 624.94 374.4 626.31 380.6 626.15 387.03 624.8 393.46 621.97 399.98 617.84 406.56 612.8 413.16 606.76 419.83 599.95 426.57 592.75 433.33 585.15 440.16 577.37 447.06 569.74 454 562.25 461.01 555.05 468.08 548.38 475.18 542.18 482.35 536.5 489.56 531.53 496.79 527.1 504.06 523.19 511.31 519.95 518.56 517.13 525.76 514.64 532.88 512.68 539.93 510.89 546.83 509.18 553.51 507.79 560.04 506.33 566.27 504.71 572.13 502.34 580.3 496.04 593.48 491.89 598.19 487.23 601.51 475.6 603.63 468.68 602.42 463.86 600.97 458.66 598.83 453.1 596.04 447.5 593.06 441.57 589.57 435.33 585.68 429.08 581.84 422.54 577.78 415.73 573.59 408.93 569.75 402.03 566.06 395.06 562.59 388.1 559.65 381.08 557.01 374.02 554.69 366.97 552.97 359.88 551.55 352.77 550.42 345.67 549.82 338.55 549.42 331.44 549.17 324.36 549.31 317.29 549.47 310.29 549.59 303.32 549.93 296.44 550.11 289.69 550.05 283.03 550.06 276.53 549.74 270.25 549.05 261.2 547.71 244.99 542.6 238.06 538.78 232 534.26 222.86 522.79 219.86 515.95 217.79 508.59 216.43 492.2 216.93 483.33 217.4 477.3 218.15 471.08 219.13 464.7 219.94 458.3 220.84 451.77 221.81 445.14 222.42 438.5 223 431.77 223.5 424.97 223.56 418.16 223.53 411.45 223.42 404.83 222.92 398.21 222.4 391.68 221.92 385.25 221.18 378.8 220.58 372.42 220.18 366.14 219.7 359.81 219.53 353.55 219.71 347.36 219.98 341.11 220.7 334.91 221.88 328.75 223.28 322.52 225.19 316.32 227.62 310.16 230.32 303.93 233.54 297.72 237.26 291.56 241.25 285.33 245.71 279.15 250.58 273.05 255.69 266.9 261.17 260.85 266.97 254.94 272.95 249.04 279.19 243.32 285.63 237.81 292.2 232.4 298.94 227.26 305.78 222.46 312.71 217.82 319.71 213.59 326.75 209.8 333.84 206.27 340.95 203.25 348.05 200.78 355.17 198.63 362.27 197.07 369.32 196.14 376.39 195.54 383.4 195.56 390.33 196.22 397.28 197.18 404.13 198.73 410.86 200.86" stroke-dasharray="1 4" transform="rotate(16.323529411764707, 400, 400)" opacity="0.47"></path><path d="M404.62 210.19C410.92 212.44 416.92 215.11 422.61 218.13 428.29 221.21 433.64 224.55 438.66 228.1 445.96 233.39 458.75 244.28 464.22 249.72 471.24 256.3 476.96 262.92 481.62 269.52 486.74 275.25 491.47 281.18 496.32 287.43 502.71 293.1 510.17 299.39 519.12 306.37 530.32 313.11 543.15 320.76 557.13 329.32 564.55 333.57 571.97 338.07 579.23 342.8 586.36 347.53 593.05 352.5 599.1 357.71 604.57 362.92 609.11 368.37 612.55 374.05 615.06 379.73 616.27 385.64 616.09 391.8 614.85 397.95 612.28 404.2 608.51 410.53 603.94 416.87 598.42 423.29 592.16 429.79 585.51 436.3 578.43 442.89 571.13 449.54 563.88 456.21 556.68 462.95 549.66 469.74 536.94 483.37 525.82 497.15 516.53 510.82 509.62 524.37 504.05 537.53 499.27 549.83 495.84 561.48 492.15 571.71 487.7 580 480.73 589.14 465.36 593 459.04 591.59 452.28 589.06 436.92 580.87 428.4 575.58 422.6 572 416.5 568.2 410.12 564.27 403.74 560.66 397.24 557.15 390.65 553.82 384.07 550.97 377.41 548.35 370.69 546 363.99 544.18 357.24 542.62 350.47 541.31 343.72 540.48 336.96 539.82 330.21 539.3 316.85 539.36 303.68 539.34 291.02 538.8 278.81 538.65 267.43 537.27 257.3 534.43 248.06 531.27 240.42 526.39 234.7 519.9 230.04 512.93 227.31 504.47 226.53 494.75 226.44 487.17 228 470.7 229.35 461.93 230.14 456.01 231.01 449.92 231.94 443.7 232.53 437.47 233.08 431.11 233.57 424.65 233.64 418.19 233.63 411.78 233.55 405.43 233.08 399.07 232.61 392.77 232.16 386.54 231.46 380.29 230.87 374.09 230.45 367.95 229.93 361.78 229.68 355.65 229.74 349.57 230.05 337.28 232.09 325.09 235.92 313.07 240.68 300.84 247.37 288.75 255.73 276.98 265.01 265.17 275.66 253.88 287.3 243.44 299.49 233.4 312.32 224.61 325.44 217.46 332.09 214.24 338.77 211.51 345.45 209.31 352.17 207.39 358.87 206.03 365.53 205.26 372.2 204.79 378.82 204.9 385.34 205.61 391.87 206.58 398.31 208.11 404.61 210.18" stroke-dasharray="5 2" transform="rotate(17.41176470588235, 400, 400)" opacity="0.50"></path><path d="M398.05 219.5C409.8 223.97 420.4 229.86 429.76 236.73 439.06 243.38 447.11 250.52 453.92 257.88 460.78 264.48 466.64 271.17 471.74 277.87 477.42 283.77 482.96 289.85 488.82 296.19 496.14 301.96 504.5 308.25 514.16 315.14 525.68 321.74 538.45 329.14 551.97 337.37 566.08 345.48 579.47 354.51 590.86 364.45 600.11 374.34 605.46 385.18 606.02 396.93 602.85 408.68 595.22 420.84 584.27 433.26 571.8 445.72 558.09 458.49 544.35 471.37 531.79 484.28 520.43 497.24 510.55 509.96 502.73 522.5 496.15 534.53 490.42 545.61 486.03 556.02 481.64 565.01 476.8 572.1 472.37 577.97 466.9 581.55 460.22 582.58 453.49 582.28 445.4 579.57 435.99 574.65 426.48 569.25 415.72 562.51 403.81 554.96 391.89 548.5 379.49 542.52 366.83 537.36 354.25 534.05 341.5 531.54 328.84 529.65 316.39 529.16 304.2 528.65 292.6 527.76 281.49 527.36 271.27 525.95 262.3 523.31 254.18 520.5 247.6 516.2 242.82 510.43 238.96 504.31 236.85 496.78 236.47 488.02 236.43 479.02 237.58 468.97 239.61 458.09 240.89 447.13 242.31 435.46 243.64 423.24 243.4 411.03 242.95 398.85 242.43 386.84 240.89 374.79 239.96 362.82 239.91 351 239.93 339.06 241.46 327.19 244.6 315.49 248.49 303.66 254.17 292.01 261.42 280.74 269.51 269.52 278.96 258.86 289.42 249.09 300.44 239.77 312.17 231.69 324.27 225.19 336.63 219.62 349.15 215.95 361.54 214.42 374.04 213.99 386.29 215.68 398.04 219.5" stroke-dasharray="0 2" transform="rotate(18.5, 400, 400)" opacity="0.53"></path><path d="M391.62 228.82C402.54 233.11 412.43 238.74 421.24 245.32 430.01 251.75 437.73 258.7 444.45 265.91 451.3 272.49 457.43 279.19 463.07 285.95 469.35 291.99 475.69 298.19 482.45 304.61 490.53 310.5 499.58 316.82 509.71 323.64 521.33 330.17 533.85 337.38 546.77 345.33 559.95 353.14 572.23 361.78 582.52 371.26 590.8 380.69 595.53 391.01 595.95 402.2 593.1 413.38 586.23 424.95 576.28 436.75 564.87 448.58 552.12 460.65 539.08 472.76 526.85 484.86 515.44 496.9 505.21 508.61 496.69 520.07 489.26 530.93 482.68 540.79 477.37 549.99 472.23 557.79 466.9 563.78 462.08 568.68 456.51 571.49 450 572 443.53 571.4 435.92 568.67 427.14 563.98 418.3 558.93 408.31 552.67 397.23 545.64 386.16 539.57 374.61 533.85 362.82 528.77 351.13 525.3 339.32 522.49 327.64 520.21 316.21 519.21 305.1 518.24 294.64 516.98 284.68 516.28 275.64 514.75 267.84 512.2 260.81 509.62 255.24 505.74 251.33 500.56 248.19 495.13 246.61 488.41 246.58 480.5 246.74 472.41 247.93 463.27 249.9 453.25 251.11 443.16 252.44 432.3 253.7 420.8 253.52 409.3 253.15 397.74 252.71 386.22 251.29 374.69 250.37 363.16 250.22 351.74 250.01 340.24 251.12 328.79 253.65 317.52 256.77 306.19 261.51 295.08 267.71 284.39 274.64 273.82 282.9 263.86 292.17 254.81 301.98 246.23 312.54 238.87 323.54 233.03 334.82 228.04 346.32 224.84 357.77 223.63 369.32 223.39 380.68 225.12 391.61 228.82" stroke-dasharray="5 3" transform="rotate(19.58823529411765, 400, 400)" opacity="0.55"></path><path d="M385.76 238.14C395.9 242.24 405.16 247.61 413.51 253.88 421.87 260.06 429.39 266.78 436.15 273.81 443.1 280.31 449.57 286.99 455.77 293.74 462.61 299.87 469.66 306.17 477.17 312.65 485.83 318.64 495.34 324.99 505.7 331.77 517.19 338.25 529.29 345.32 541.47 353.02 553.68 360.59 564.85 368.89 574.07 377.94 581.44 386.94 585.59 396.76 585.89 407.37 583.33 417.98 577.17 428.91 568.2 440.03 557.83 451.17 546.07 462.46 533.81 473.73 522.06 484.94 510.8 496 500.42 506.64 491.42 517 483.34 526.69 476.05 535.36 469.91 543.39 464.06 550.07 458.21 555.05 452.91 559.09 447.11 561.22 440.62 561.3 434.26 560.47 426.97 557.76 418.7 553.32 410.41 548.63 401.11 542.84 390.85 536.32 380.58 530.64 369.91 525.19 359.07 520.22 348.32 516.65 337.51 513.59 326.9 510.97 316.55 509.52 306.58 508.11 297.31 506.5 288.51 505.46 280.64 503.76 273.98 501.22 265.67 496.95 257.16 482.54 256.84 472.36 257.15 465.07 258.35 456.75 260.21 447.54 261.34 438.27 262.58 428.2 263.77 417.44 263.63 406.67 263.34 395.74 263 384.79 261.71 373.83 260.86 362.83 260.65 351.88 260.28 340.91 261.05 329.98 263.07 319.24 265.51 308.51 269.4 298.02 274.64 287.99 280.49 278.15 287.59 268.93 295.7 260.63 304.29 252.81 313.66 246.16 323.54 240.96 333.68 236.55 344.12 233.79 354.59 232.87 365.16 232.82 375.63 234.57 385.76 238.14" stroke-dasharray="2 2" transform="rotate(20.676470588235293, 400, 400)" opacity="0.58"></path><path d="M380.89 247.46C390.28 251.36 398.98 256.45 406.98 262.41 414.99 268.31 422.4 274.77 429.26 281.57 436.35 287.95 443.17 294.54 449.9 301.25 457.22 307.42 464.84 313.76 472.91 320.26 481.94 326.33 491.66 332.7 502.02 339.43 513.2 345.87 524.71 352.82 536.06 360.3 547.24 367.65 557.32 375.64 565.5 384.28 572.01 392.87 575.63 402.19 575.82 412.21 573.54 422.23 568.05 432.5 560 442.89 550.65 453.28 539.89 463.75 528.49 474.11 517.35 484.38 506.42 494.42 496.1 503.97 486.85 513.23 478.33 521.77 470.51 529.28 463.69 536.22 457.21 541.86 450.86 545.94 445.06 549.21 438.97 550.77 432.43 550.5 426.05 549.5 418.97 546.86 411.11 542.69 403.27 538.36 394.58 533.03 385.09 527 375.61 521.71 365.82 516.53 355.94 511.71 346.15 508.08 336.39 504.84 326.9 501.96 317.65 500.11 308.84 498.3 300.76 496.34 293.1 494.96 286.36 493.04 280.76 490.45 273.83 486.3 267.18 473.04 267.23 463.78 267.63 457.17 268.8 449.59 270.55 441.14 271.58 432.64 272.72 423.33 273.84 413.3 273.74 403.26 273.54 393 273.29 382.67 272.16 372.35 271.39 361.93 271.17 351.56 270.72 341.2 271.23 330.88 272.82 320.76 274.7 310.71 277.86 300.92 282.23 291.63 287.08 282.55 293.11 274.11 300.1 266.58 307.51 259.52 315.72 253.58 324.48 249.01 333.48 245.15 342.84 242.81 352.34 242.16 361.92 242.27 371.51 244.03 380.89 247.46" stroke-dasharray="0 2" transform="rotate(21.764705882352942, 400, 400)" opacity="0.61"></path><path d="M377.35 256.78C386.03 260.47 394.23 265.27 401.92 270.9 409.65 276.5 416.97 282.68 423.96 289.21 431.18 295.41 438.3 301.86 445.44 308.46 453.12 314.61 461.13 320.94 469.55 327.42 478.72 333.51 488.44 339.88 498.57 346.54 509.26 352.94 520.05 359.76 530.49 367.03 540.62 374.17 549.62 381.85 556.82 390.09 562.53 398.28 565.65 407.1 565.76 416.51 563.74 425.92 558.87 435.5 551.71 445.12 543.35 454.72 533.6 464.33 523.1 473.74 512.68 483.05 502.24 492.06 492.16 500.51 482.88 508.69 474.14 516.13 465.98 522.56 458.66 528.48 451.68 533.19 444.91 536.46 438.66 539.06 432.28 540.14 425.64 539.61 419.19 538.51 412.25 535.96 404.74 532.08 397.25 528.1 389.12 523.22 380.37 517.68 371.62 512.78 362.7 507.89 353.8 503.24 344.96 499.6 336.25 496.24 327.88 493.14 319.71 490.96 312.05 488.8 305.11 486.53 295.69 483.74 282.53 475.83 279.17 470.07 277.65 465.94 277.2 460.89 277.75 454.92 278.2 448.9 279.3 441.98 280.91 434.23 281.83 426.44 282.86 417.86 283.9 408.56 283.85 399.26 283.73 389.71 283.59 380.05 282.62 370.4 281.97 360.64 281.78 350.93 281.3 341.24 281.64 331.61 282.9 322.2 284.32 312.89 286.86 303.87 290.48 295.36 294.45 287.08 299.5 279.45 305.48 272.7 311.78 266.4 318.88 261.15 326.57 257.18 334.45 253.84 342.77 251.9 351.32 251.49 359.93 251.75 368.66 253.5 377.35 256.78" stroke-dasharray="5 0" transform="rotate(22.85294117647059, 400, 400)" opacity="0.64"></path><path d="M375.37 266.09C383.39 269.58 391.12 274.08 398.53 279.36 405.99 284.64 413.24 290.49 420.31 296.72 427.6 302.7 434.92 308.95 442.34 315.37 450.21 321.44 458.41 327.69 466.94 334.09 476.04 340.17 485.53 346.48 495.25 353.03 505.29 359.36 515.26 366.04 524.73 373.08 533.81 380 541.76 387.38 548.04 395.2 553 402.99 555.67 411.29 555.69 420.07 553.92 428.85 549.64 437.72 543.31 446.54 535.9 455.34 527.15 464.06 517.6 472.51 507.97 480.86 498.16 488.84 488.5 496.24 479.39 503.38 470.65 509.77 462.37 515.2 454.74 520.2 447.44 524.07 440.38 526.65 433.77 528.68 427.16 529.36 420.43 528.64 413.91 527.49 407.07 525.08 399.86 521.49 392.69 517.87 385.07 513.43 377.01 508.37 368.96 503.84 360.87 499.26 352.9 494.81 345 491.21 337.3 487.78 330.01 484.54 322.89 482.08 316.3 479.63 310.43 477.09 302.48 473.87 291.73 465.66 289.17 460.1 287.88 453.85 289.33 437.31 291.28 427.03 292.08 419.9 293 412.02 293.97 403.45 293.96 394.88 293.92 386.05 293.88 377.1 293.09 368.17 292.57 359.13 292.45 350.14 291.99 341.19 292.23 332.32 293.26 323.68 294.33 315.16 296.36 306.96 299.35 299.26 302.58 291.81 306.78 284.99 311.84 279.01 317.14 273.45 323.22 268.88 329.91 265.48 336.75 262.64 344.08 261.06 351.72 260.87 359.42 261.25 367.35 262.98 375.37 266.09" stroke-dasharray="3 0" transform="rotate(23.941176470588236, 400, 400)" opacity="0.66"></path><path d="M375.1 275.41C382.5 278.67 389.78 282.87 396.91 287.78 404.09 292.73 411.21 298.23 418.28 304.12 425.55 309.82 432.93 315.82 440.46 322.01 448.34 327.92 456.51 334.02 464.94 340.27 473.75 346.26 482.82 352.46 491.94 358.86 501.22 365.07 510.28 371.57 518.75 378.35 526.79 385.03 533.74 392.08 539.15 399.48 543.41 406.84 545.67 414.61 545.62 422.75 544.07 430.89 540.34 439.02 534.79 447.03 528.29 455.02 520.53 462.84 511.95 470.35 503.19 477.75 494.1 484.73 485.02 491.12 476.28 497.29 467.74 502.72 459.54 507.25 451.83 511.41 444.38 514.55 437.19 516.54 430.37 518.1 423.61 518.47 416.87 517.63 410.31 516.47 403.58 514.21 396.67 510.94 389.8 507.67 382.64 503.65 375.24 499.05 367.84 494.89 360.54 490.63 353.46 486.41 346.43 482.89 339.7 479.45 333.41 476.13 324.46 472.13 310.11 464.45 305.15 460.23 301.41 455.91 298.52 444.53 299.08 437.22 299.49 432.11 300.38 426.29 301.65 419.78 302.34 413.25 303.15 406.04 304.03 398.19 304.06 390.34 304.1 382.24 304.17 374.04 303.55 365.85 303.18 357.58 303.15 349.36 302.76 341.2 302.97 333.13 303.83 325.31 304.66 317.62 306.32 310.26 308.79 303.4 311.41 296.78 314.89 290.77 319.16 285.55 323.6 280.71 328.77 276.78 334.55 273.92 340.45 271.53 346.87 270.29 353.68 270.29 360.52 270.77 367.7 272.47 375.1 275.41" stroke-dasharray="3 6" transform="rotate(25.029411764705884, 400, 400)" opacity="0.69"></path><path d="M376.55 284.73C383.36 287.76 390.19 291.64 397 296.18 403.86 300.77 410.78 305.9 417.75 311.4 424.88 316.78 432.17 322.47 439.61 328.36 447.31 334.05 455.24 339.94 463.34 345.97 471.7 351.8 480.16 357.82 488.56 364 496.97 370.03 505.07 376.3 512.54 382.78 519.56 389.18 525.54 395.86 530.14 402.8 533.77 409.72 535.65 416.94 535.56 424.42 534.22 431.89 530.99 439.28 526.18 446.48 520.54 453.66 513.73 460.6 506.12 467.18 498.27 473.67 490 479.71 481.61 485.17 473.4 490.43 465.26 494.99 457.33 498.71 449.75 502.15 442.36 504.66 435.2 506.16 428.34 507.33 421.58 507.48 414.91 506.57 408.39 505.45 401.83 503.37 395.23 500.41 388.66 497.49 381.97 493.89 375.18 489.73 368.4 485.95 361.84 482.01 355.59 478.04 349.37 474.64 343.51 471.26 338.14 467.92 330.49 463.71 318.54 455.49 314.53 451.08 311.51 446.65 309.3 435.61 309.85 428.75 310.19 424.01 310.94 418.64 312.03 412.68 312.6 406.71 313.3 400.14 314.1 393 314.16 385.86 314.27 378.51 314.43 371.07 313.99 363.66 313.78 356.18 313.86 348.77 313.59 341.42 313.81 334.19 314.59 327.22 315.27 320.38 316.65 313.87 318.73 307.84 322.32 299.43 333.29 286.52 340.48 282.5 345.54 280.54 351.14 279.6 357.2 279.77 363.27 280.33 369.74 281.98 376.55 284.73" stroke-dasharray="5 5" transform="rotate(26.117647058823533, 400, 400)" opacity="0.72"></path><path d="M379.62 294.05C385.86 296.84 392.23 300.39 398.67 304.55 405.16 308.77 411.78 313.49 418.51 318.58 425.36 323.6 432.38 328.92 439.55 334.46 446.88 339.86 454.39 345.45 461.98 351.19 469.7 356.78 477.43 362.55 484.99 368.44 492.48 374.22 499.59 380.19 506.06 386.32 512.09 392.39 517.18 398.66 521.04 405.11 524.08 411.55 525.63 418.19 525.49 424.99 524.34 431.8 521.59 438.44 517.46 444.84 512.63 451.21 506.74 457.31 500.09 463.01 493.16 468.64 485.78 473.81 478.17 478.41 470.64 482.85 463.06 486.63 455.58 489.66 448.32 492.47 441.19 494.46 434.25 495.56 427.52 496.43 420.9 496.42 414.42 495.5 408.07 494.44 401.75 492.57 395.49 489.92 389.27 487.33 383.04 484.13 376.85 480.41 370.65 477 364.78 473.39 359.28 469.7 351.26 464.82 337.63 455.58 332.28 451.11 324.83 442.5 320.19 427.23 320.66 420.78 321.2 413.89 323.15 397.55 324.17 388.13 324.25 381.69 324.42 375.08 324.68 368.42 324.41 361.77 324.35 355.11 324.55 348.53 324.42 342.01 324.71 335.63 325.46 329.52 326.67 320.69 332.09 305.42 336.38 299.41 341.38 294.52 354.37 289.33 362.18 289.29 367.56 289.91 373.38 291.49 379.62 294.05" stroke-dasharray="1 4" transform="rotate(27.205882352941178, 400, 400)" opacity="0.75"></path><path d="M384.11 303.37C395.46 308.61 407.67 316.37 420.28 325.67 433.21 334.82 446.9 345.12 460.65 355.96 474.59 366.38 487.99 377.5 499.29 388.97 509.05 400.27 514.95 412.22 515.42 424.46 512.71 436.7 504.92 448.04 493.82 457.88 481.64 467.46 467.92 475.11 454.09 480.16 440.75 484.55 427.62 486.06 415.21 484.43 403.17 482.44 391.35 477.87 380.11 471.09 368.86 465.29 359.15 458.74 351.32 452.03 343.6 446.72 337.99 440.89 334.78 434.47 331.61 428.79 330.55 421.82 331.48 413.47 331.45 405.25 332.44 395.3 334.23 383.78 333.92 372.26 334.21 360.33 335.21 348.79 334.98 337.46 336.4 326.85 339.68 317.88 342.76 309.57 348.14 303.38 355.64 300.12 363.18 297.92 372.75 298.89 384.11 303.37" stroke-dasharray="5 5" transform="rotate(28.294117647058822, 400, 400)" opacity="0.78"></path><path d="M389.69 312.69C399.93 317.39 411.1 324.33 422.72 332.68 434.53 340.97 446.93 350.38 459.16 360.31 471.35 369.98 482.82 380.26 492.24 390.77 500.32 401.16 505.1 411.99 505.36 422.84 503.14 433.7 496.67 443.52 487.31 451.83 476.95 459.95 464.99 466.26 452.68 470.26 440.56 473.82 428.46 474.91 416.98 473.37 405.74 471.63 394.86 467.69 384.75 461.77 374.64 456.63 366.14 450.63 359.48 444.34 352.84 439.12 348.1 433.34 345.44 427.06 342.64 421.39 341.63 414.69 342.28 406.93 342.05 399.31 342.77 390.33 344.3 380.15 344.12 369.97 344.61 359.6 345.79 349.69 345.89 339.97 347.39 331.01 350.44 323.56 353.18 316.65 357.88 311.64 364.46 309.17 371 307.52 379.46 308.59 389.69 312.69" stroke-dasharray="5 2" transform="rotate(29.382352941176467, 400, 400)" opacity="0.80"></path><path d="M395.99 322C405.08 326.16 415.08 332.26 425.46 339.61 435.93 346.98 446.8 355.39 457.34 364.29 467.7 373.05 477.23 382.35 484.88 391.77 491.42 401.13 495.2 410.75 495.29 420.21 493.52 429.67 488.25 438.04 480.53 444.97 471.94 451.76 461.8 456.9 451.15 460.06 440.5 462.92 429.71 463.73 419.39 462.34 409.22 460.87 399.41 457.54 390.44 452.46 381.47 447.96 374.08 442.58 368.38 436.8 362.65 431.81 358.58 426.25 356.27 420.25 353.74 414.73 352.69 408.39 353.04 401.28 352.63 394.29 353.08 386.28 354.36 377.41 354.3 368.54 354.95 359.67 356.28 351.35 356.7 343.17 358.31 335.77 361.2 329.74 363.75 324.12 367.94 320.16 373.74 318.37 379.46 317.2 386.9 318.32 395.99 322" stroke-dasharray="0 3" transform="rotate(30.470588235294116, 400, 400)" opacity="0.83"></path><path d="M402.57 331.32C410.48 334.92 419.17 340.16 428.12 346.49 437.09 352.87 446.28 360.18 455.02 367.96 463.53 375.66 471.2 383.83 477.21 392.07 482.36 400.27 485.26 408.61 485.23 416.68 483.84 424.75 479.66 431.75 473.46 437.43 466.55 443.02 458.24 447.16 449.33 449.63 440.33 451.94 431.04 452.55 422.09 451.36 413.19 450.17 404.61 447.41 396.8 443.14 388.99 439.29 382.61 434.57 377.72 429.41 372.76 424.79 369.22 419.61 367.12 414.04 364.79 408.83 363.68 402.97 363.73 396.58 363.15 390.28 363.38 383.25 364.43 375.66 364.46 368.08 365.22 360.67 366.64 353.85 368.19 344.15 376.14 330.47 383.14 327.74 388.16 326.96 394.64 328.08 402.57 331.32" stroke-dasharray="3 2" transform="rotate(31.558823529411764, 400, 400)" opacity="0.86"></path><path d="M408.96 340.64C415.66 343.66 422.92 348.04 430.32 353.31 437.7 358.66 445.13 364.81 452.06 371.36 458.77 377.9 464.7 384.83 469.23 391.78 473.14 398.73 475.28 405.73 475.16 412.41 474.12 419.09 470.91 424.79 466.1 429.35 460.76 433.85 454.2 437.14 447.06 439.07 439.77 440.91 432.14 441.39 424.68 440.44 417.23 439.52 409.99 437.31 403.38 433.82 396.77 430.62 391.35 426.61 387.17 422.14 381.37 415.71 375.12 401.05 374.32 392.84 373.63 387.32 373.67 381.31 374.5 375 375.01 365.68 378.64 349.57 382.13 343.65 386.17 339.14 399.48 337.33 408.96 340.64" stroke-dasharray="5 5" transform="rotate(32.64705882352941, 400, 400)" opacity="0.89"></path><path d="M414.74 349.96C425.6 354.97 437.82 364.07 448.35 374.59 458.19 385.15 464.85 396.97 465.09 407.59 463.05 418.2 454.91 425.45 444.19 428.45 432.96 431.34 420.46 430.12 409.72 424.5 398.98 419.62 391.78 411.92 388.35 403.31 384.24 395.27 382.86 385.55 384.56 375.45 384.36 365.34 387.04 356.73 392.01 351.39 396.2 346.53 403.87 345.6 414.74 349.96" stroke-dasharray="3 6" transform="rotate(33.73529411764706, 400, 400)" opacity="0.92"></path><path d="M419.5 359.28C427.73 363.04 436.55 369.84 443.81 377.71 450.63 385.64 455.06 394.52 455.03 402.43 453.73 410.33 448.16 415.67 440.6 417.88 432.69 420.08 423.55 419.29 415.39 415.18 407.23 411.48 401.46 405.48 398.41 398.7 394.92 392.23 393.5 384.58 394.63 376.98 395.88 366.31 408.15 356.1 419.5 359.28" stroke-dasharray="1 7" transform="rotate(34.8235294117647, 400, 400)" opacity="0.94"></path><path d="M422.9 368.59C433.97 373.75 444.73 386.7 444.96 397.16 443 407.6 430.99 411.33 420 405.87 408.99 401.11 402.91 389.71 404.7 379.54 404.49 369.36 411.82 364.1 422.9 368.59" stroke-dasharray="6 6" transform="rotate(35.911764705882355, 400, 400)" opacity="0.97"></path></g></svg>