<svg xmlns="http://www.w3.org/2000/svg" version="1.1" xmlns:xlink="http://www.w3.org/1999/xlink" xmlns:svgjs="http://svgjs.dev/svgjs" viewBox="0 0 800 800" opacity="0.57"><defs><linearGradient x1="50%" y1="0%" x2="50%" y2="100%" id="ccchaos-grad"><stop stop-color="hsl(162, 100%, 58%)" stop-opacity="1" offset="0%"></stop><stop stop-color="hsl(270, 73%, 53%)" stop-opacity="1" offset="100%"></stop></linearGradient></defs><g stroke-width="2" stroke="url(#ccchaos-grad)" fill="none" stroke-linecap="round"><path d="M375.92 74.31C386.73 77.01 397.34 79.51 407.72 81.67 418.11 82.87 428.3 83.69 438.28 84.19 448.31 83.94 458.18 83.71 467.94 83.68 477.82 83.5 487.66 83.96 497.51 85.24 507.6 86.97 517.8 89.81 528.18 93.8 538.9 98.54 549.9 104.46 561.21 111.48 572.93 119.17 585 127.78 597.39 137.14 610.14 146.85 623.13 157.06 636.25 167.61 649.47 178.16 662.57 188.85 675.34 199.57 687.75 210.04 699.43 220.46 710.1 230.79 719.85 240.78 728.17 250.69 734.81 260.55 740.06 270.09 743.37 279.65 744.63 289.27 744.44 298.65 742.32 308.19 738.38 317.93 733.53 327.52 727.42 337.39 720.39 347.56 713.54 357.66 706.61 368.13 700.04 378.99 694.86 389.82 690.79 401.08 688.13 412.78 687.62 424.47 688.71 436.35 691.25 448.38 695.59 460.42 700.84 472.59 706.61 484.85 713.15 497.08 719.4 509.34 724.95 521.54 730.13 533.63 733.94 545.54 736.14 557.13 737.18 568.45 736.31 579.26 733.52 589.41 729.36 599.05 723.37 607.81 715.73 615.51 706.96 622.52 696.88 628.34 685.73 632.87 673.96 636.7 661.5 639.33 648.62 640.82 635.57 642.01 622.39 642.45 609.23 642.43 596.25 642.92 583.44 643.6 570.89 644.87 558.65 647.6 546.68 651.54 535 656.95 523.63 664.33 512.48 673.3 501.54 683.73 490.82 695.61 480.22 708.24 469.69 721.03 459.3 733.65 448.89 745.12 438.46 754.69 428.08 762.17 417.61 766.67 407.05 767.79 396.49 766.03 385.82 760.94 375.03 752.88 364.24 743.15 353.59 732.09 343.12 720.63 332.65 709.98 322.38 700.44 312.34 692.57 302.33 687.13 292.58 683.83 283.13 682.58 273.72 683.66 264.63 686.14 255.9 689.48 247.22 693.79 238.9 697.84 230.96 701.1 223.05 703.8 215.5 704.86 208.34 704.05 201.14 701.81 194.28 697.49 187.75 691.19 181.11 683.44 174.74 674 168.64 663.2 162.34 651.47 156.25 638.84 150.36 625.64 144.2 612.13 138.22 598.44 132.43 584.79 126.36 571.27 120.49 557.97 114.84 545 108.99 532.33 103.41 519.99 98.17 507.98 92.83 496.27 87.9 484.8 83.44 473.54 79.02 462.48 75.16 451.51 71.91 440.61 68.81 429.79 66.38 418.94 64.67 408.05 63.19 397.18 62.45 386.21 62.51 375.17 62.81 364.11 63.88 353.24 65.68 342.57 67.66 331.92 70.32 321.52 73.59 311.41 76.95 301.35 80.86 291.64 85.25 282.33 89.6 273.12 94.35 264.36 99.46 256.1 104.39 247.95 109.61 240.31 115.06 233.2 120.26 226.14 125.68 219.57 131.28 213.46 136.61 207.27 142.14 201.41 147.88 195.82 153.39 189.93 159.16 184.12 165.19 178.32 171.09 171.99 177.32 165.5 183.88 158.8 190.41 151.45 197.32 143.85 204.63 136.04 211.97 127.71 219.74 119.33 227.9 111.04 236.14 102.65 244.78 94.68 253.78 87.37 262.87 80.52 272.31 74.68 282.05 70.04 291.85 66.26 301.93 63.85 312.21 62.85 322.54 62.67 333.05 63.69 343.69 65.79 354.34 68.13 365.1 71.05 375.91 74.31" stroke-dasharray="5 2" transform="rotate(0, 400, 400)" opacity="0.05"></path><path d="M375.1 84.01C385.58 86.71 395.91 89.23 406.08 91.42 416.26 92.69 426.3 93.58 436.2 94.15 446.15 93.98 456.02 93.77 465.83 93.72 475.76 93.47 485.71 93.79 495.72 94.83 505.95 96.25 516.33 98.69 526.9 102.22 537.78 106.44 548.92 111.8 560.35 118.25 572.12 125.37 584.18 133.43 596.49 142.28 609.05 151.55 621.76 161.38 634.49 171.62 647.22 181.97 659.72 192.52 671.78 203.17 683.41 213.67 694.24 224.17 704.01 234.61 712.85 244.79 720.27 254.9 726.04 264.95 730.52 274.72 733.16 284.49 733.88 294.28 733.3 303.86 730.94 313.54 726.93 323.36 722.16 333.04 716.26 342.94 709.55 353.09 703.07 363.17 696.55 373.55 690.38 384.27 685.53 394.97 681.72 406.03 679.2 417.47 678.68 428.91 679.63 440.48 681.91 452.13 685.9 463.78 690.74 475.5 696.09 487.22 702.22 498.9 708.13 510.53 713.44 522 718.5 533.33 722.34 544.39 724.73 555.04 726.12 565.4 725.75 575.18 723.61 584.23 720.2 592.8 715.05 600.47 708.31 607.11 700.49 613.13 691.34 618.04 681.1 621.78 670.18 625 658.51 627.19 646.33 628.45 633.89 629.61 621.22 630.25 608.47 630.65 595.79 631.71 583.21 633.13 570.8 635.25 558.62 638.84 546.67 643.63 534.97 649.83 523.53 657.83 512.3 667.24 501.28 677.89 490.47 689.75 479.8 702.14 469.23 714.49 458.8 726.51 448.41 737.3 438.03 746.18 427.72 753.04 417.37 757.04 406.98 757.84 396.61 755.97 386.17 750.97 375.67 743.18 365.17 733.84 354.86 723.21 344.76 712.15 334.66 701.78 324.78 692.36 315.15 684.41 305.54 678.69 296.21 674.93 287.18 673.09 278.18 673.48 269.49 675.27 261.16 677.99 252.85 681.78 244.89 685.53 237.29 688.71 229.69 691.56 222.44 693.05 215.53 692.92 208.57 691.57 201.91 688.31 195.56 683.19 189.07 676.71 182.83 668.57 176.83 659 170.62 648.46 164.6 636.91 158.76 624.65 152.66 611.94 146.73 598.89 140.96 585.72 134.93 572.54 129.09 559.45 123.48 546.58 117.66 533.9 112.12 521.49 106.9 509.38 101.6 497.51 96.69 485.88 92.26 474.49 87.87 463.27 84.02 452.2 80.78 441.25 77.69 430.39 75.27 419.58 73.57 408.81 72.1 398.06 71.38 387.3 71.45 376.55 71.77 365.79 72.85 355.28 74.66 345.05 76.66 334.82 79.33 324.89 82.61 315.3 85.98 305.75 89.89 296.57 94.27 287.82 98.61 279.12 103.34 270.88 108.42 263.11 113.33 255.41 118.52 248.18 123.93 241.42 129.1 234.66 134.47 228.31 140.02 222.35 145.3 216.23 150.76 210.36 156.42 204.69 161.83 198.65 167.49 192.65 173.38 186.59 179.11 179.99 185.15 173.22 191.49 166.23 197.76 158.64 204.4 150.84 211.4 142.87 218.4 134.47 225.8 126.09 233.57 117.87 241.4 109.64 249.61 101.9 258.17 94.87 266.8 88.33 275.77 82.82 285.04 78.52 294.37 75.06 303.98 72.92 313.81 72.15 323.68 72.14 333.75 73.29 343.98 75.45 354.22 77.83 364.6 80.76 375.09 84" stroke-dasharray="5 3" transform="rotate(1.088235294117647, 400, 400)" opacity="0.08"></path><path d="M375.1 93.7C385.28 96.41 395.36 98.94 405.33 101.17 415.32 102.49 425.22 103.46 435.05 104.11 444.93 104.01 454.78 103.85 464.63 103.8 474.59 103.5 484.63 103.69 494.75 104.53 505.07 105.67 515.57 107.74 526.26 110.83 537.22 114.55 548.43 119.36 559.87 125.23 571.59 131.76 583.54 139.24 595.66 147.54 607.95 156.3 620.28 165.69 632.53 175.55 644.69 185.59 656.53 195.92 667.83 206.41 678.65 216.85 688.61 227.33 697.49 237.81 705.44 248.09 711.99 258.33 716.96 268.51 720.72 278.47 722.75 288.41 722.99 298.35 722.07 308.09 719.53 317.9 715.49 327.81 710.82 337.58 705.14 347.52 698.76 357.65 692.65 367.71 686.53 378.02 680.75 388.6 676.22 399.16 672.65 410.02 670.26 421.18 669.73 432.35 670.55 443.57 672.6 454.8 676.25 466.03 680.7 477.24 685.64 488.38 691.36 499.47 696.92 510.41 701.99 521.11 706.89 531.65 710.72 541.84 713.25 551.55 714.93 560.96 714.99 569.74 713.42 577.76 710.71 585.34 706.35 592.03 700.46 597.72 693.54 602.91 685.31 607.08 675.97 610.23 665.93 613.02 655.09 614.95 643.65 616.17 631.89 617.46 619.8 618.44 607.55 619.37 595.28 621.08 583.01 623.27 570.84 626.24 558.83 630.65 546.99 636.24 535.36 643.13 523.93 651.65 512.7 661.4 501.67 672.17 490.83 683.93 480.13 696 469.57 707.86 459.13 719.27 448.76 729.39 438.46 737.59 428.22 743.85 417.99 747.37 407.77 747.88 397.57 745.9 387.35 741.01 377.13 733.49 366.9 724.52 356.89 714.32 347.13 703.65 337.37 693.57 327.85 684.29 318.6 676.31 309.36 670.35 300.41 666.18 291.76 663.79 283.13 663.52 274.81 664.63 266.83 666.72 258.86 669.97 251.21 673.32 243.92 676.33 236.59 679.23 229.58 681.01 222.9 681.4 216.14 680.8 209.65 678.48 203.45 674.43 197.08 669.15 190.95 662.24 185.03 653.91 178.89 644.6 172.92 634.19 167.12 622.95 161.06 611.17 155.16 598.91 149.41 586.38 143.43 573.71 137.62 561.01 132.02 548.41 126.25 535.9 120.74 523.59 115.55 511.52 110.29 499.61 105.42 487.94 101.01 476.51 96.66 465.22 92.84 454.11 89.61 443.17 86.56 432.31 84.16 421.56 82.47 410.91 81.02 400.29 80.31 389.73 80.39 379.25 80.72 368.76 81.82 358.59 83.63 348.74 85.65 338.9 88.32 329.39 91.59 320.27 94.96 311.16 98.86 302.44 103.22 294.15 107.55 285.89 112.26 278.07 117.31 270.7 122.2 263.34 127.36 256.42 132.74 249.91 137.88 243.34 143.22 237.11 148.72 231.19 153.96 225.06 159.37 219.11 164.96 213.27 170.3 207.05 175.86 200.8 181.63 194.46 187.23 187.59 193.1 180.54 199.25 173.29 205.31 165.49 211.7 157.52 218.42 149.45 225.13 141.04 232.19 132.7 239.62 124.61 247.06 116.59 254.88 109.11 263.04 102.38 271.24 96.18 279.78 91.02 288.62 87.05 297.5 83.9 306.67 82.04 316.08 81.49 325.52 81.64 335.18 82.91 345.03 85.13 354.89 87.54 364.92 90.46 375.09 93.7" stroke-dasharray="1 2" transform="rotate(2.176470588235294, 400, 400)" opacity="0.11"></path><path d="M375.94 103.39C385.82 106.1 395.67 108.64 405.46 110.9 415.26 112.29 425.04 113.33 434.78 114.06 444.59 114.05 454.41 113.95 464.27 113.91 474.24 113.59 484.32 113.68 494.5 114.34 504.87 115.23 515.42 116.97 526.15 119.64 537.11 122.88 548.29 127.16 559.66 132.46 571.24 138.39 582.98 145.27 594.81 152.98 606.72 161.19 618.6 170.07 630.29 179.47 641.82 189.13 652.94 199.14 663.46 209.38 673.45 219.65 682.54 230.02 690.54 240.44 697.63 250.74 703.37 261.02 707.58 271.27 710.67 281.35 712.14 291.4 711.97 301.44 710.77 311.32 708.08 321.23 704.05 331.19 699.5 341.04 694.06 351.01 688.01 361.11 682.27 371.14 676.54 381.37 671.14 391.8 666.93 402.2 663.58 412.84 661.32 423.71 660.79 434.57 661.49 445.42 663.31 456.2 666.64 466.97 670.71 477.65 675.25 488.17 680.57 498.63 685.78 508.86 690.58 518.77 695.3 528.53 699.08 537.85 701.71 546.64 703.61 555.15 704.05 563 702.98 570.08 700.89 576.77 697.26 582.61 692.18 587.52 686.12 592.04 678.78 595.65 670.33 598.39 661.18 600.92 651.17 602.78 640.52 604.11 629.49 605.68 618.05 607.12 606.36 608.66 594.58 611.06 582.73 614.04 570.89 617.84 559.15 623.02 547.51 629.32 536.02 636.81 524.7 645.75 513.55 655.74 502.58 666.55 491.76 678.11 481.1 689.81 470.58 701.15 460.17 711.93 449.87 721.37 439.65 728.91 429.5 734.59 419.4 737.66 409.35 737.9 399.32 735.83 389.32 731.04 379.34 723.8 369.37 715.2 359.65 705.41 350.2 695.14 340.75 685.36 331.56 676.24 322.66 668.26 313.75 662.1 305.14 657.57 296.84 654.67 288.54 653.78 280.54 654.23 272.88 655.68 265.2 658.35 257.83 661.26 250.79 664.01 243.7 666.84 236.91 668.78 230.41 669.57 223.81 669.57 217.47 668.05 211.38 664.96 205.12 660.77 199.06 655.03 193.2 647.89 187.11 639.79 181.18 630.55 175.41 620.4 169.38 609.64 163.5 598.28 157.78 586.53 151.82 574.54 146.04 562.39 140.48 550.22 134.74 538.05 129.27 525.98 124.12 514.09 118.9 502.3 114.08 490.71 109.71 479.34 105.4 468.08 101.61 457.01 98.42 446.14 95.4 435.33 93.02 424.68 91.35 414.17 89.93 403.7 89.24 393.34 89.32 383.11 89.68 372.88 90.78 363.01 92.59 353.51 94.61 344.01 97.28 334.88 100.54 326.15 103.9 317.41 107.78 309.08 112.11 301.18 116.42 293.27 121.11 285.77 126.12 278.7 131 271.59 136.13 264.87 141.47 258.51 146.6 252.02 151.91 245.82 157.37 239.86 162.58 233.64 167.95 227.54 173.48 221.49 178.77 215.05 184.25 208.53 189.93 201.91 195.42 194.78 201.15 187.47 207.14 179.98 213.02 172.02 219.2 163.94 225.69 155.81 232.12 147.43 238.9 139.2 246.01 131.28 253.12 123.5 260.58 116.32 268.38 109.91 276.19 104.07 284.33 99.27 292.78 95.64 301.25 92.81 310.01 91.21 319.03 90.87 328.07 91.19 337.35 92.55 346.84 94.82 356.34 97.25 366.04 100.18 375.93 103.39" stroke-dasharray="1 3" transform="rotate(3.2647058823529416, 400, 400)" opacity="0.13"></path><path d="M377.57 113.09C387.19 115.79 396.81 118.34 406.42 120.62 416.05 122.07 425.69 123.19 435.35 124 445.06 124.08 454.84 124.05 464.67 124.05 474.62 123.72 484.69 123.75 494.88 124.26 505.24 124.93 515.76 126.37 526.46 128.66 537.33 131.45 548.39 135.22 559.59 139.95 570.93 145.28 582.37 151.55 593.82 158.66 605.29 166.27 616.63 174.58 627.7 183.48 638.55 192.67 648.92 202.27 658.63 212.18 667.78 222.18 676.02 232.35 683.16 242.61 689.43 252.82 694.39 263.06 697.9 273.29 700.39 283.4 701.37 293.5 700.83 303.57 699.4 313.52 696.62 323.48 692.63 333.47 688.23 343.36 683.04 353.32 677.32 363.36 671.94 373.35 666.59 383.47 661.56 393.72 657.64 403.96 654.52 414.35 652.38 424.9 651.85 435.44 652.43 445.89 654.05 456.2 657.06 466.49 660.77 476.61 664.93 486.5 669.85 496.33 674.71 505.85 679.22 514.99 683.74 523.97 687.44 532.47 690.11 540.4 692.19 548.08 692.94 555.09 692.32 561.34 690.79 567.28 687.82 572.41 683.48 576.7 678.24 580.72 671.75 583.95 664.16 586.46 655.89 588.91 646.73 590.85 636.88 592.45 626.62 594.41 615.88 596.38 604.82 598.59 593.61 601.71 582.24 605.46 570.82 610.05 559.43 615.94 548.08 622.86 536.84 630.86 525.71 640.11 514.71 650.23 503.86 660.98 493.15 672.28 482.57 683.56 472.15 694.34 461.82 704.48 451.61 713.24 441.51 720.15 431.47 725.26 421.51 727.92 411.63 727.91 401.78 725.76 391.98 721.08 382.25 714.1 372.51 705.87 363.06 696.5 353.9 686.62 344.73 677.14 335.84 668.21 327.26 660.26 318.65 653.95 310.35 649.09 302.36 645.74 294.34 644.27 286.63 644.08 279.24 644.9 271.82 646.96 264.69 649.39 257.87 651.8 250.97 654.46 244.36 656.44 238.01 657.49 231.55 657.95 225.31 657.09 219.31 654.83 213.13 651.61 207.13 646.94 201.31 640.94 195.26 634.01 189.36 625.94 183.6 616.9 177.61 607.22 171.75 596.85 166.04 585.97 160.12 574.78 154.37 563.32 148.83 551.72 143.14 540.04 137.71 528.38 132.6 516.8 127.44 505.28 122.67 493.89 118.34 482.7 114.09 471.57 110.35 460.63 107.19 449.89 104.22 439.21 101.88 428.69 100.23 418.36 98.84 408.05 98.17 397.9 98.26 387.92 98.63 377.94 99.73 368.35 101.54 359.16 103.55 349.95 106.21 341.14 109.44 332.74 112.79 324.31 116.64 316.29 120.94 308.68 125.23 301.03 129.89 293.78 134.86 286.9 139.71 279.95 144.81 273.33 150.13 267.02 155.23 260.55 160.52 254.29 165.95 248.21 171.14 241.85 176.48 235.55 181.97 229.26 187.22 222.57 192.64 215.79 198.24 208.89 203.65 201.51 209.27 193.98 215.13 186.3 220.86 178.23 226.86 170.08 233.14 161.96 239.35 153.67 245.88 145.59 252.71 137.89 259.53 130.4 266.67 123.54 274.14 117.49 281.6 112.02 289.38 107.59 297.47 104.3 305.57 101.77 313.96 100.44 322.62 100.29 331.29 100.77 340.22 102.22 349.38 104.54 358.55 106.98 367.94 109.9 377.56 113.08" stroke-dasharray="3 4" transform="rotate(4.352941176470588, 400, 400)" opacity="0.16"></path><path d="M379.95 122.78C389.32 125.47 398.72 128.02 408.15 130.32 417.6 131.84 427.11 133.03 436.66 133.93 446.26 134.1 455.96 134.16 465.74 134.21 475.62 133.9 485.63 133.87 495.77 134.27 506.04 134.76 516.47 135.93 527.04 137.88 537.75 140.24 548.6 143.52 559.54 147.71 570.57 152.46 581.62 158.12 592.61 164.6 603.55 171.6 614.29 179.31 624.7 187.63 634.83 196.3 644.42 205.42 653.31 214.91 661.64 224.54 669.04 234.41 675.36 244.42 680.86 254.45 685.09 264.54 687.96 274.66 689.9 284.71 690.45 294.77 689.61 304.8 687.98 314.75 685.15 324.7 681.24 334.65 677 344.53 672.07 354.44 666.69 364.38 661.67 374.29 656.69 384.27 652 394.32 648.37 404.36 645.46 414.49 643.45 424.69 642.91 434.89 643.39 444.92 644.8 454.75 647.52 464.55 650.88 474.11 654.67 483.38 659.21 492.57 663.71 501.41 667.94 509.81 672.24 518.07 675.82 525.81 678.5 532.97 681.19 543.05 679.23 559.36 674.39 565.5 669.9 569.17 664.22 572.2 657.47 574.65 650.05 577.17 641.74 579.33 632.7 581.31 623.24 583.74 613.24 586.31 602.85 589.23 592.26 593.06 581.45 597.55 570.52 602.86 559.56 609.37 548.59 616.83 537.66 625.22 526.8 634.68 516.03 644.84 505.39 655.44 494.84 666.42 484.42 677.22 474.14 687.42 463.94 696.91 453.86 705 443.91 711.29 434.01 715.88 424.21 718.13 414.51 717.89 404.84 715.69 395.24 711.12 385.74 704.41 376.24 696.53 367.04 687.57 358.14 678.08 349.23 668.92 340.62 660.2 332.31 652.31 323.98 645.88 315.95 640.75 308.22 636.99 300.46 634.97 293 634.18 285.84 634.39 278.63 635.84 271.71 637.74 265.07 639.76 258.34 642.16 251.86 644.08 245.64 645.25 239.28 646.04 233.13 645.69 227.19 644.12 221.07 641.74 215.11 638.04 209.32 633.07 203.3 627.26 197.42 620.31 191.68 612.38 185.71 603.8 179.87 594.47 174.18 584.54 168.29 574.24 162.57 563.57 157.07 552.67 151.43 541.62 146.06 530.48 141 519.36 135.9 508.22 131.19 497.17 126.92 486.26 122.73 475.38 119.05 464.66 115.94 454.13 113.02 443.64 110.72 433.32 109.1 423.19 107.75 413.08 107.1 403.15 107.2 393.41 107.58 383.67 108.68 374.33 110.47 365.41 112.48 356.47 115.11 347.92 118.31 339.78 121.63 331.6 125.45 323.82 129.7 316.41 133.96 308.95 138.58 301.85 143.51 295.08 148.33 288.21 153.4 281.61 158.69 275.27 163.77 268.74 169.03 262.37 174.44 256.12 179.62 249.58 184.94 243.05 190.39 236.5 195.61 229.57 200.99 222.53 206.53 215.37 211.87 207.79 217.41 200.08 223.16 192.27 228.77 184.13 234.62 175.99 240.73 167.92 246.75 159.78 253.06 151.91 259.67 144.48 266.22 137.3 273.09 130.8 280.27 125.13 287.42 120.04 294.89 115.97 302.66 113.02 310.42 110.8 318.47 109.72 326.81 109.76 335.14 110.38 343.74 111.92 352.61 114.27 361.46 116.72 370.58 119.62 379.94 122.78" stroke-dasharray="2 4" transform="rotate(5.4411764705882355, 400, 400)" opacity="0.19"></path><path d="M383 132.48C392.12 135.15 401.32 137.7 410.56 140.02 419.83 141.59 429.18 142.86 438.6 143.84 448.08 144.12 457.66 144.26 467.33 144.37 477.1 144.1 486.99 144.06 497.01 144.37 507.14 144.71 517.4 145.65 527.77 147.29 538.24 149.27 548.8 152.1 559.39 155.78 570.02 159.96 580.62 165.01 591.08 170.88 601.43 177.23 611.53 184.32 621.23 192.03 630.61 200.11 639.42 208.7 647.5 217.68 655.01 226.87 661.61 236.35 667.14 246.01 671.91 255.75 675.48 265.6 677.77 275.52 679.22 285.41 679.39 295.33 678.3 305.25 676.53 315.11 673.68 324.97 669.87 334.82 665.82 344.62 661.16 354.42 656.11 364.22 651.44 374 646.81 383.8 642.47 393.61 639.11 403.42 636.41 413.26 634.51 423.1 633.97 432.94 634.35 442.54 635.58 451.87 638.02 461.19 641.05 470.2 644.48 478.86 648.64 487.46 652.79 495.64 656.73 503.37 660.78 510.97 664.22 518.03 666.87 524.52 669.73 533.66 668.87 548.46 664.92 554.12 661.13 557.62 656.21 560.6 650.25 563.14 643.66 565.85 636.18 568.35 627.95 570.79 619.28 573.76 610.04 576.97 600.36 580.59 590.45 585.1 580.25 590.29 569.87 596.24 559.41 603.29 548.88 611.18 538.34 619.86 527.83 629.43 517.36 639.52 506.99 649.9 496.68 660.5 486.47 670.79 476.39 680.38 466.38 689.21 456.48 696.66 446.7 702.35 436.98 706.43 427.35 708.31 417.85 707.86 408.37 705.61 398.98 701.16 389.71 694.72 380.43 687.19 371.47 678.63 362.82 669.53 354.15 660.7 345.79 652.19 337.73 644.39 329.64 637.89 321.85 632.53 314.36 628.41 306.82 625.9 299.57 624.54 292.61 624.15 285.59 624.99 278.83 626.34 272.33 627.92 265.74 629.98 259.38 631.74 253.25 632.93 246.97 633.91 240.89 633.94 235 632.91 228.92 631.24 222.99 628.37 217.21 624.33 211.22 619.55 205.36 613.66 199.62 606.8 193.67 599.31 187.85 591.02 182.19 582.08 176.34 572.74 170.66 562.94 165.2 552.82 159.62 542.51 154.31 532.01 149.31 521.45 144.29 510.83 139.65 500.22 135.44 489.69 131.32 479.17 127.71 468.76 124.66 458.51 121.8 448.29 119.55 438.22 117.97 428.33 116.65 418.46 116.03 408.77 116.14 399.27 116.52 389.77 117.62 380.67 119.39 371.98 121.38 363.27 123.98 354.95 127.14 347 130.42 339.03 134.2 331.41 138.4 324.14 142.62 316.8 147.19 309.77 152.08 303.03 156.86 296.17 161.9 289.54 167.14 283.1 172.21 276.46 177.45 269.93 182.83 263.48 187.99 256.73 193.29 249.97 198.72 243.17 203.93 236 209.27 228.74 214.77 221.36 220.06 213.62 225.54 205.79 231.21 197.9 236.72 189.77 242.45 181.68 248.42 173.74 254.29 165.8 260.42 158.19 266.82 151.06 273.16 144.24 279.79 138.11 286.72 132.83 293.6 128.13 300.79 124.44 308.27 121.82 315.73 119.9 323.49 119.06 331.53 119.28 339.55 120.03 347.86 121.65 356.45 124.02 365.02 126.48 373.87 129.35 382.99 132.47" stroke-dasharray="2 2" transform="rotate(6.529411764705883, 400, 400)" opacity="0.22"></path><path d="M386.62 142.17C395.5 144.82 404.48 147.37 413.54 149.7 422.61 151.32 431.79 152.66 441.05 153.73 450.36 154.12 459.79 154.36 469.32 154.54 478.92 154.33 488.64 154.29 498.47 154.55 508.38 154.77 518.41 155.52 528.5 156.89 538.65 158.53 548.85 160.94 559.03 164.14 569.19 167.78 579.26 172.25 589.14 177.5 598.87 183.22 608.28 189.66 617.24 196.74 625.87 204.2 633.89 212.19 641.17 220.62 647.9 229.29 653.73 238.29 658.52 247.53 662.61 256.88 665.57 266.4 667.34 276.01 668.37 285.65 668.22 295.34 666.92 305.05 665.06 314.74 662.23 324.43 658.54 334.1 654.69 343.75 650.31 353.38 645.59 362.98 641.26 372.57 636.98 382.15 632.96 391.69 629.86 401.23 627.36 410.74 625.57 420.2 625.04 429.66 625.33 438.84 626.38 447.69 628.56 456.52 631.27 465.01 634.36 473.1 638.15 481.14 641.96 488.74 645.59 495.86 649.39 502.87 652.66 509.36 655.24 515.29 658.2 523.69 658.27 537.41 655.1 542.83 651.95 546.28 647.73 549.35 642.52 552.1 636.71 555.12 630.03 558.04 622.6 561.01 614.73 564.55 606.25 568.4 597.3 572.69 588.1 577.85 578.55 583.66 568.76 590.17 558.87 597.66 548.85 605.87 538.76 614.73 528.67 624.31 518.57 634.26 508.53 644.34 498.52 654.49 488.59 664.24 478.76 673.21 468.98 681.4 459.3 688.2 449.74 693.32 440.22 696.92 430.8 698.45 421.51 697.82 412.24 695.53 403.07 691.2 394.02 685.02 384.97 677.85 376.23 669.67 367.81 660.97 359.38 652.46 351.24 644.2 343.4 636.51 335.54 629.97 327.95 624.43 320.66 620 313.32 617.04 306.26 615.15 299.46 614.19 292.59 614.43 285.97 615.22 279.59 616.32 273.11 618 266.84 619.5 260.77 620.61 254.57 621.65 248.53 621.92 242.67 621.3 236.62 620.2 230.72 618.03 224.95 614.8 218.98 610.93 213.13 606.02 207.4 600.16 201.48 593.72 195.69 586.46 190.05 578.51 184.25 570.15 178.62 561.27 173.21 552 167.71 542.49 162.46 532.72 157.53 522.81 152.6 512.8 148.04 502.73 143.91 492.68 139.88 482.61 136.34 472.6 133.36 462.7 130.56 452.81 128.37 443.05 126.83 433.44 125.55 423.85 124.96 414.42 125.07 405.17 125.47 395.91 126.56 387.05 128.3 378.56 130.26 370.06 132.83 361.92 135.94 354.13 139.18 346.3 142.9 338.79 147.04 331.6 151.21 324.32 155.73 317.32 160.55 310.55 165.3 303.65 170.29 296.93 175.49 290.36 180.53 283.57 185.74 276.87 191.1 270.2 196.25 263.24 201.53 256.26 206.94 249.22 212.13 241.86 217.46 234.4 222.92 226.86 228.19 219.03 233.62 211.13 239.21 203.23 244.65 195.16 250.3 187.2 256.15 179.45 261.89 171.75 267.88 164.45 274.11 157.66 280.27 151.22 286.7 145.5 293.41 140.61 300.06 136.31 307.01 132.99 314.23 130.7 321.43 129.06 328.92 128.46 336.69 128.85 344.45 129.72 352.49 131.4 360.81 133.79 369.12 136.24 377.72 139.08 386.61 142.17" stroke-dasharray="5 1" transform="rotate(7.617647058823529, 400, 400)" opacity="0.25"></path><path d="M390.68 151.86C399.33 154.49 408.09 157.03 416.95 159.37 425.82 161.04 434.8 162.45 443.87 163.6 452.99 164.1 462.22 164.44 471.55 164.71 480.93 164.56 490.43 164.55 500.01 164.78 509.64 164.92 519.36 165.52 529.1 166.66 538.87 168.01 548.64 170.04 558.33 172.8 567.98 175.94 577.47 179.86 586.72 184.51 595.79 189.6 604.49 195.4 612.72 201.83 620.59 208.64 627.84 216 634.34 223.82 640.31 231.91 645.41 240.37 649.52 249.1 652.99 257.99 655.4 267.08 656.71 276.31 657.36 285.6 656.95 294.97 655.5 304.38 653.58 313.81 650.8 323.24 647.26 332.66 643.62 342.08 639.52 351.47 635.13 360.82 631.13 370.16 627.19 379.47 623.48 388.7 620.63 397.94 618.31 407.11 616.63 416.18 616.11 425.25 616.31 433.99 617.2 442.38 619.13 450.75 621.54 458.74 624.3 466.31 627.74 473.84 631.21 480.93 634.54 487.53 638.07 494.05 641.15 500.07 643.64 505.56 646.63 513.4 647.44 526.46 644.97 531.84 640.6 537.01 626.26 546.81 616.64 552.04 609.55 556.16 601.85 560.63 593.63 565.55 585.15 571.29 576.28 577.63 567.13 584.61 557.85 592.43 548.37 600.85 538.79 609.78 529.17 619.28 519.51 629 509.85 638.72 500.21 648.39 490.6 657.56 481.07 665.91 471.58 673.45 462.16 679.64 452.86 684.2 443.58 687.35 434.4 688.56 425.34 687.76 416.3 685.45 407.35 681.25 398.53 675.33 389.71 668.49 381.19 660.71 372.99 652.39 364.77 644.22 356.84 636.2 349.21 628.66 341.54 622.12 334.15 616.44 327.03 611.75 319.86 608.4 312.95 606.02 306.29 604.53 299.55 604.19 293.05 604.42 286.76 605.02 280.37 606.25 274.17 607.44 268.15 608.37 262 609.36 256 609.75 250.16 609.41 244.14 608.72 238.26 607.12 232.5 604.57 226.55 601.49 220.72 597.44 215.01 592.5 209.12 587.03 203.36 580.75 197.76 573.77 192.02 566.39 186.45 558.44 181.1 550.04 175.68 541.39 170.52 532.41 165.67 523.21 160.83 513.89 156.36 504.44 152.32 494.94 148.39 485.39 144.94 475.85 142.03 466.37 139.31 456.88 137.19 447.48 135.69 438.2 134.46 428.92 133.89 419.77 134.01 410.78 134.41 401.78 135.49 393.13 137.2 384.84 139.13 376.52 141.65 368.53 144.7 360.86 147.89 353.15 151.54 345.71 155.62 338.55 159.72 331.3 164.18 324.27 168.94 317.44 173.63 310.46 178.57 303.63 183.72 296.9 188.73 289.96 193.91 283.07 199.23 276.19 204.37 269.05 209.63 261.87 215.02 254.64 220.2 247.12 225.51 239.54 230.95 231.9 236.19 224.02 241.59 216.13 247.13 208.29 252.52 200.36 258.09 192.58 263.86 185.07 269.5 177.68 275.37 170.72 281.46 164.31 287.47 158.28 293.73 152.97 300.25 148.49 306.71 144.59 313.45 141.63 320.45 139.66 327.42 138.3 334.67 137.91 342.2 138.47 349.71 139.44 357.5 141.18 365.58 143.58 373.65 146.01 382.01 148.82 390.67 151.86" stroke-dasharray="2 2" transform="rotate(8.705882352941176, 400, 400)" opacity="0.27"></path><path d="M395.05 161.56C403.47 164.16 412.01 166.67 420.64 169.02 429.29 170.73 438.05 172.21 446.9 173.44 455.79 174.05 464.78 174.5 473.86 174.87 482.98 174.81 492.19 174.84 501.46 175.07 510.76 175.16 520.1 175.65 529.44 176.6 538.77 177.69 548.05 179.4 557.21 181.76 566.29 184.44 575.17 187.84 583.76 191.93 592.14 196.41 600.13 201.58 607.61 207.36 614.74 213.52 621.24 220.22 626.99 227.41 632.26 234.87 636.67 242.73 640.16 250.9 643.06 259.25 644.98 267.84 645.88 276.6 646.23 285.45 645.61 294.42 644.05 303.45 642.11 312.53 639.4 321.63 636.03 330.72 632.61 339.84 628.79 348.92 624.73 357.96 621.05 367 617.43 375.98 614.02 384.87 611.41 393.77 609.27 402.57 607.7 411.24 607.18 419.91 607.3 428.23 608.04 436.18 609.73 444.11 611.86 451.65 614.32 458.77 617.4 465.85 620.54 472.49 623.57 478.66 628.27 487.61 635.03 503.08 636.46 509.64 636.42 515.84 630.98 526.87 625.59 532.1 621.2 535.92 616 539.83 610.07 543.92 603.74 548.6 596.78 553.65 589.3 559.14 581.55 565.38 573.37 572.16 564.88 579.5 556.23 587.54 547.35 596.08 538.32 604.98 529.22 614.31 520.04 623.73 510.82 633.02 501.59 642.17 492.37 650.75 483.18 658.46 474.02 665.37 464.92 670.96 455.9 675 446.9 677.72 437.98 678.64 429.17 677.69 420.38 675.36 411.68 671.29 403.09 665.63 394.5 659.13 386.21 651.73 378.22 643.8 370.21 635.96 362.48 628.21 355.03 620.84 347.55 614.33 340.33 608.56 333.36 603.65 326.35 599.96 319.57 597.15 313.02 595.16 306.4 594.26 299.99 593.94 293.78 594.03 287.46 594.79 281.32 595.6 275.34 596.27 269.23 597.13 263.27 597.52 257.44 597.33 251.45 596.92 245.58 595.74 239.84 593.73 233.92 591.31 228.11 588.01 222.42 583.88 216.58 579.29 210.87 573.92 205.32 567.85 199.64 561.41 194.15 554.37 188.87 546.85 183.54 539.06 178.48 530.9 173.72 522.46 168.99 513.87 164.63 505.09 160.69 496.2 156.86 487.24 153.51 478.22 150.68 469.21 148.05 460.18 145.99 451.19 144.55 442.27 143.36 433.35 142.82 424.51 142.95 415.78 143.35 407.05 144.41 398.63 146.09 390.51 147.98 382.38 150.45 374.53 153.43 366.95 156.56 359.33 160.14 351.94 164.13 344.78 168.17 337.53 172.55 330.46 177.23 323.54 181.86 316.48 186.74 309.52 191.83 302.63 196.8 295.56 201.94 288.5 207.22 281.44 212.33 274.15 217.58 266.81 222.94 259.44 228.12 251.83 233.41 244.17 238.82 236.5 244.05 228.66 249.42 220.85 254.93 213.14 260.28 205.4 265.8 197.87 271.49 190.66 277.06 183.61 282.83 177.03 288.8 171.03 294.69 165.43 300.81 160.54 307.17 156.48 313.47 152.98 320.02 150.37 326.83 148.71 333.6 147.62 340.64 147.43 347.95 148.13 355.23 149.2 362.8 150.99 370.65 153.38 378.48 155.8 386.61 158.57 395.04 161.55" stroke-dasharray="3 3" transform="rotate(9.794117647058824, 400, 400)" opacity="0.30"></path><path d="M399.58 171.25C407.77 173.81 416.07 176.31 424.46 178.66 432.87 180.41 441.38 181.95 449.98 183.26 458.6 183.98 467.32 184.54 476.1 185.01 484.91 185.05 493.79 185.15 502.69 185.4 511.6 185.47 520.52 185.88 529.4 186.68 538.24 187.57 546.99 188.99 555.57 191 564.05 193.27 572.29 196.19 580.2 199.76 587.9 203.67 595.17 208.23 601.92 213.38 608.32 218.88 614.1 224.93 619.15 231.46 623.75 238.27 627.54 245.49 630.45 253.06 632.85 260.81 634.34 268.84 634.9 277.07 634.99 285.41 634.2 293.91 632.58 302.49 630.65 311.13 628.05 319.83 624.86 328.53 621.67 337.26 618.13 345.98 614.39 354.64 611.02 363.33 607.71 371.95 604.59 380.46 602.2 388.99 600.23 397.41 598.76 405.67 598.25 413.94 598.3 421.85 598.9 429.39 600.37 436.91 602.24 444.04 604.39 450.76 607.15 457.46 609.96 463.73 612.7 469.58 617.01 478.09 623.43 493 624.97 499.51 625.25 505.8 621 517.54 616.44 523.38 612.68 527.64 608.15 532.05 602.91 536.69 597.3 541.89 591.06 547.45 584.3 553.43 577.26 560.08 569.79 567.2 561.96 574.78 553.97 582.95 545.71 591.48 537.25 600.27 528.71 609.34 520.04 618.39 511.3 627.22 502.54 635.81 493.74 643.78 484.94 650.87 476.16 657.15 467.4 662.17 458.7 665.72 450.02 668.04 441.39 668.69 432.86 667.61 424.34 665.28 415.89 661.34 407.54 655.94 399.2 649.76 391.13 642.74 383.35 635.19 375.55 627.7 368.01 620.22 360.74 613.04 353.43 606.6 346.37 600.78 339.54 595.71 332.66 591.71 326.01 588.52 319.56 586.08 313.04 584.66 306.71 583.81 300.56 583.39 294.31 583.65 288.22 584.05 282.28 584.41 276.21 585.03 270.28 585.33 264.47 585.17 258.51 584.92 252.67 584.02 246.94 582.43 241.06 580.52 235.28 577.84 229.64 574.4 223.85 570.58 218.2 566.03 212.7 560.79 207.11 555.23 201.71 549.06 196.52 542.38 191.3 535.45 186.34 528.11 181.7 520.43 177.09 512.6 172.84 504.52 169.01 496.26 165.29 487.93 162.05 479.49 159.31 470.99 156.77 462.46 154.78 453.91 153.4 445.38 152.26 436.84 151.75 428.34 151.89 419.9 152.29 411.46 153.33 403.26 154.97 395.33 156.82 387.38 159.22 379.65 162.14 372.16 165.19 364.62 168.69 357.27 172.59 350.1 176.54 342.85 180.84 335.73 185.43 328.72 189.99 321.59 194.8 314.52 199.82 307.5 204.73 300.3 209.82 293.11 215.05 285.91 220.14 278.52 225.36 271.09 230.69 263.64 235.85 256 241.12 248.35 246.51 240.72 251.73 232.98 257.07 225.33 262.55 217.82 267.87 210.34 273.34 203.12 278.98 196.25 284.48 189.59 290.18 183.43 296.06 177.86 301.85 172.69 307.85 168.24 314.07 164.59 320.23 161.47 326.62 159.22 333.26 157.86 339.85 157.01 346.7 157.02 353.81 157.84 360.89 159 368.24 160.82 375.87 163.2 383.48 165.6 391.38 168.32 399.57 171.25" stroke-dasharray="1 4" transform="rotate(10.882352941176471, 400, 400)" opacity="0.33"></path><path d="M404.13 180.94C412.08 183.47 420.13 185.94 428.26 188.28 436.4 190.07 444.64 191.66 452.95 193.05 461.28 193.87 469.68 194.55 478.12 195.12 486.58 195.27 495.07 195.45 503.56 195.74 512.04 195.83 520.5 196.19 528.86 196.88 537.18 197.61 545.36 198.8 553.34 200.51 561.2 202.42 568.78 204.92 576.02 208 583.03 211.38 589.59 215.37 595.64 219.92 601.35 224.78 606.44 230.18 610.84 236.06 614.82 242.21 618.04 248.78 620.45 255.7 622.39 262.83 623.51 270.25 623.79 277.89 623.67 285.67 622.76 293.63 621.11 301.7 619.23 309.85 616.75 318.07 613.75 326.32 610.8 334.62 607.54 342.91 604.11 351.16 601.04 359.44 598.02 367.65 595.18 375.77 593.01 383.9 591.2 391.92 589.82 399.79 589.32 407.65 589.31 415.17 589.78 422.33 591.05 429.48 592.66 436.25 594.54 442.64 596.98 449.01 599.48 455 601.92 460.6 605.84 468.8 611.86 483.45 613.43 490.03 613.95 496.54 610.71 509.15 606.89 515.62 603.69 520.32 599.77 525.21 595.18 530.34 590.24 536 584.69 541.99 578.62 548.38 572.28 555.33 565.49 562.68 558.33 570.4 551 578.58 543.37 587.02 535.51 595.6 527.56 604.34 519.43 612.97 511.2 621.28 502.93 629.3 494.59 636.66 486.22 643.12 477.85 648.8 469.47 653.27 461.12 656.35 452.78 658.3 444.48 658.7 436.24 657.51 428.01 655.19 419.84 651.4 411.75 646.25 403.66 640.39 395.82 633.73 388.25 626.56 380.66 619.41 373.31 612.23 366.2 605.25 359.07 598.91 352.15 593.09 345.46 587.89 338.71 583.66 332.17 580.13 325.82 577.29 319.39 575.39 313.13 574.04 307.05 573.12 300.86 572.89 294.82 572.84 288.91 572.84 282.89 573.17 276.99 573.28 271.21 573.06 265.29 572.85 259.48 572.11 253.78 570.8 247.95 569.27 242.23 567.08 236.63 564.2 230.92 561.03 225.34 557.18 219.93 552.69 214.43 547.91 209.13 542.54 204.05 536.65 198.95 530.54 194.12 523.98 189.59 517.05 185.12 509.98 181 502.6 177.28 495 173.7 487.32 170.56 479.47 167.92 471.5 165.48 463.5 163.57 455.42 162.25 447.31 161.16 439.18 160.68 431.04 160.82 422.9 161.22 414.76 162.24 406.81 163.83 399.06 165.64 391.3 167.98 383.71 170.81 376.3 173.78 368.85 177.19 361.55 180.99 354.38 184.85 347.13 189.05 339.98 193.54 332.9 198.02 325.72 202.74 318.57 207.67 311.45 212.52 304.18 217.55 296.91 222.72 289.64 227.76 282.2 232.94 274.75 238.23 267.29 243.37 259.7 248.62 252.13 253.98 244.62 259.18 237.06 264.51 229.63 269.95 222.39 275.24 215.23 280.68 208.36 286.26 201.88 291.72 195.65 297.35 189.93 303.14 184.8 308.85 180.09 314.75 176.07 320.85 172.83 326.89 170.09 333.14 168.17 339.62 167.09 346.05 166.48 352.73 166.66 359.65 167.6 366.54 168.84 373.69 170.68 381.1 173.04 388.5 175.4 396.17 178.07 404.12 180.94" stroke-dasharray="1 7" transform="rotate(11.970588235294118, 400, 400)" opacity="0.36"></path><path d="M408.54 190.64C416.24 193.12 424.02 195.56 431.87 197.89 439.73 199.7 447.67 201.35 455.66 202.81 463.65 203.74 471.7 204.52 479.77 205.2 487.84 205.47 495.91 205.74 503.95 206.1 511.96 206.22 519.91 206.57 527.74 207.2 535.5 207.8 543.1 208.82 550.46 210.27 557.69 211.87 564.62 214 571.18 216.66 577.51 219.55 583.4 223.01 588.77 227 593.82 231.26 598.28 236.03 602.07 241.27 605.49 246.76 608.2 252.68 610.15 258.96 611.71 265.43 612.52 272.22 612.56 279.25 612.28 286.43 611.3 293.8 609.65 301.31 607.84 308.92 605.5 316.62 602.71 324.37 600 332.18 597.02 340 593.89 347.8 591.11 355.63 588.38 363.42 585.79 371.12 583.82 378.83 582.17 386.44 580.88 393.91 580.39 401.38 580.33 408.53 580.68 415.34 581.76 422.15 583.14 428.61 584.75 434.72 586.89 440.83 589.09 446.6 591.24 452.03 594.77 460.03 600.32 474.65 601.88 481.41 602.56 488.22 600.15 501.78 596.96 508.86 594.27 513.98 590.9 519.29 586.89 524.86 582.58 530.88 577.68 537.23 572.26 543.9 566.59 551.05 560.47 558.53 553.96 566.28 547.28 574.38 540.28 582.63 533.03 590.92 525.67 599.27 518.11 607.43 510.41 615.19 502.66 622.62 494.81 629.36 486.89 635.22 478.96 640.32 470.99 644.26 463.02 646.9 455.06 648.51 447.1 648.69 439.18 647.4 431.26 645.1 423.39 641.45 415.56 636.55 407.74 631.01 400.14 624.72 392.78 617.92 385.41 611.12 378.26 604.23 371.32 597.48 364.36 591.27 357.59 585.48 351.02 580.21 344.41 575.79 337.97 571.98 331.71 568.78 325.38 566.45 319.2 564.63 313.17 563.23 307.06 562.51 301.07 562.02 295.21 561.62 286.31 561.53 268.89 560.47 260.36 558.97 254.59 557.7 248.94 555.86 243.41 553.42 237.79 550.77 232.3 547.5 226.98 543.64 221.61 539.55 216.42 534.89 211.46 529.72 206.5 524.36 201.81 518.54 197.41 512.33 193.09 505.97 189.11 499.29 185.52 492.34 182.07 485.3 179.05 478.05 176.52 470.63 174.18 463.17 172.36 455.58 171.09 447.89 170.06 440.2 169.61 432.43 169.76 424.61 170.16 416.79 171.15 409.1 172.69 401.56 174.44 394 176.71 386.57 179.45 379.26 182.33 371.92 185.64 364.68 189.33 357.52 193.09 350.31 197.18 343.16 201.56 336.05 205.94 328.86 210.56 321.68 215.4 314.51 220.17 307.23 225.12 299.95 230.22 292.66 235.21 285.26 240.33 277.85 245.57 270.47 250.67 263.01 255.89 255.6 261.21 248.28 266.39 240.97 271.69 233.83 277.09 226.91 282.36 220.12 287.76 213.66 293.29 207.61 298.71 201.83 304.27 196.57 310 191.9 315.63 187.64 321.44 184.06 327.43 181.22 333.36 178.84 339.48 177.24 345.82 176.43 352.11 176.03 358.62 176.37 365.36 177.41 372.06 178.71 379.02 180.56 386.21 182.9 393.39 185.22 400.83 187.83 408.53 190.63" stroke-dasharray="1 6" transform="rotate(13.058823529411766, 400, 400)" opacity="0.39"></path><path d="M412.67 200.33C420.1 202.76 427.6 205.17 435.15 207.48 442.71 209.32 450.32 211.01 457.95 212.53 465.6 213.56 473.26 214.45 480.91 215.24 488.56 215.63 496.19 216.01 503.74 216.44 511.26 216.63 518.68 216.99 525.95 217.59 533.15 218.12 540.14 218.99 546.88 220.25 553.48 221.6 559.77 223.41 565.67 225.7 573.98 229.66 587.7 240.41 592.88 247.14 595.8 252 598.05 257.27 599.62 262.91 600.85 268.73 601.39 274.88 601.26 281.29 600.85 287.83 599.83 294.6 598.23 301.53 596.51 308.55 594.33 315.7 591.75 322.93 589.27 330.21 586.57 337.53 583.73 344.85 581.23 352.21 578.76 359.54 576.42 366.81 574.65 374.09 573.14 381.29 571.95 388.38 571.47 395.46 571.35 402.26 571.6 408.76 572.5 415.25 573.66 421.45 575.03 427.34 577.84 436.03 583.8 452.06 586.45 459.48 588.84 466.81 591.11 480.96 590.72 488.02 589.35 495.47 583.02 511.43 578.1 520.18 574.36 526.49 570.05 533.08 565.24 539.94 560.21 547.19 554.72 554.68 548.84 562.35 542.8 570.28 536.42 578.26 529.77 586.19 523.01 594.1 516.02 601.73 508.87 608.93 501.65 615.76 494.3 621.89 486.85 627.15 479.39 631.69 471.85 635.14 464.29 637.37 456.72 638.66 449.13 638.64 441.55 637.28 433.97 635.02 426.4 631.51 418.86 626.86 411.32 621.63 403.97 615.68 396.84 609.26 389.69 602.8 382.74 596.23 375.97 589.72 369.19 583.67 362.58 577.94 356.14 572.65 349.66 568.09 343.34 564.05 337.17 560.55 330.94 557.83 324.85 555.59 318.89 553.75 312.85 552.56 306.93 551.61 301.12 550.8 292.32 550.18 275.09 548.58 266.66 547.1 260.97 545.96 255.4 544.35 249.97 542.23 244.45 539.96 239.08 537.16 233.88 533.82 228.63 530.3 223.59 526.25 218.77 521.72 213.96 517.02 209.41 511.87 205.17 506.31 201 500.64 197.17 494.61 193.72 488.27 190.41 481.86 187.53 475.2 185.11 468.32 182.87 461.4 181.14 454.3 179.94 447.06 178.96 439.81 178.54 432.43 178.7 424.95 179.09 417.46 180.05 410.05 181.55 402.73 183.24 395.4 185.43 388.14 188.07 380.96 190.86 373.76 194.06 366.61 197.63 359.52 201.27 352.38 205.24 345.26 209.5 338.18 213.76 331.02 218.28 323.87 223 316.73 227.67 309.5 232.53 302.27 237.54 295.05 242.46 287.76 247.52 280.48 252.69 273.25 257.75 265.99 262.92 258.82 268.19 251.78 273.33 244.78 278.59 237.99 283.95 231.46 289.19 225.09 294.54 219.07 300.02 213.48 305.39 208.17 310.9 203.38 316.54 199.18 322.11 195.36 327.83 192.2 333.72 189.75 339.54 187.73 345.55 186.43 351.74 185.86 357.89 185.66 364.24 186.15 370.8 187.27 377.33 188.61 384.08 190.47 391.06 192.78 398.02 195.05 405.22 197.59 412.66 200.33" stroke-dasharray="0 1" transform="rotate(14.147058823529411, 400, 400)" opacity="0.41"></path><path d="M416.37 210.03C423.53 212.4 430.73 214.76 437.96 217.05 445.19 218.91 452.45 220.63 459.71 222.21 466.98 223.33 474.23 224.33 481.45 225.23 488.66 225.74 495.8 226.24 502.85 226.76 509.86 227.03 516.74 227.43 523.44 228.03 530.06 228.52 536.46 229.31 542.59 230.42 551.4 232.34 566.89 238.48 573.34 242.77 578.89 247.79 586.71 260.27 588.87 267.63 590 275.57 588.9 293.11 586.85 302.52 585.24 308.95 583.23 315.53 580.88 322.21 578.63 328.94 576.2 335.74 573.63 342.57 571.4 349.44 569.19 356.3 567.08 363.14 565.49 369.98 564.11 376.78 563.01 383.49 562.54 390.21 562.39 396.68 562.53 402.89 563.27 409.11 564.23 415.07 565.37 420.78 567.78 429.25 572.94 445.11 575.28 452.61 577.44 460.1 579.64 474.87 579.43 482.35 578.92 487.58 577.85 492.91 576.2 498.37 574.32 504.13 571.86 510.08 568.86 516.24 565.62 522.74 561.86 529.47 557.61 536.41 553.16 543.64 548.27 551.04 542.99 558.55 537.56 566.21 531.78 573.84 525.72 581.35 519.55 588.77 513.13 595.86 506.52 602.48 499.84 608.7 493 614.24 486.04 618.93 479.05 622.93 471.97 625.92 464.82 627.77 457.67 628.77 450.46 628.58 443.23 627.16 436.01 624.93 428.77 621.57 421.52 617.17 414.28 612.23 407.21 606.64 400.31 600.58 393.4 594.47 386.65 588.21 380.07 581.96 373.47 576.09 367.02 570.47 360.73 565.19 354.39 560.54 348.19 556.33 342.13 552.59 336.02 549.54 330.02 546.92 324.14 544.68 318.2 543.04 312.35 541.66 306.62 540.44 297.94 539.26 280.96 536.92 272.66 535.34 264.36 533.48 248.29 527.58 240.61 523.41 235.52 520.34 230.63 516.8 225.96 512.8 221.32 508.67 216.94 504.1 212.86 499.14 208.86 494.07 205.19 488.64 201.9 482.89 198.73 477.07 195.98 470.96 193.68 464.6 191.56 458.21 189.91 451.6 188.78 444.8 187.86 437.99 187.47 431.01 187.63 423.88 188.02 416.74 188.95 409.63 190.39 402.56 192.02 395.48 194.12 388.42 196.67 381.41 199.35 374.38 202.43 367.37 205.87 360.38 209.39 353.36 213.23 346.35 217.35 339.34 221.49 332.29 225.87 325.23 230.47 318.19 235.03 311.09 239.78 303.99 244.68 296.92 249.51 289.81 254.48 282.74 259.57 275.75 264.56 268.77 269.67 261.9 274.87 255.2 279.97 248.58 285.17 242.19 290.47 236.09 295.67 230.18 300.97 224.63 306.38 219.52 311.7 214.69 317.14 210.38 322.71 206.64 328.2 203.27 333.84 200.52 339.62 198.44 345.34 196.75 351.22 195.73 357.28 195.39 363.29 195.37 369.48 195.98 375.86 197.18 382.21 198.56 388.76 200.4 395.51 202.67 402.25 204.89 409.2 207.36 416.36 210.02" stroke-dasharray="5 1" transform="rotate(15.235294117647058, 400, 400)" opacity="0.44"></path><path d="M419.53 219.72C426.39 222.04 433.28 224.35 440.17 226.61 447.06 228.47 453.95 230.23 460.82 231.86 467.68 233.06 474.51 234.16 481.27 235.17 488.02 235.8 494.68 236.41 501.21 237.04 507.7 237.41 514.03 237.88 520.17 238.5 529.13 239.36 545.48 242.41 552.69 244.8 559.22 247.71 569.65 255.76 573.4 260.9 576.24 266.66 578.77 280.19 578.5 287.84 577.98 293.14 576.98 298.69 575.53 304.44 574.05 310.27 572.21 316.28 570.08 322.41 568.07 328.59 565.89 334.87 563.6 341.2 561.62 347.57 559.65 353.97 557.76 360.37 556.34 366.78 555.09 373.18 554.07 379.53 553.62 385.89 553.43 392.05 553.48 398.01 554.46 406.85 557.8 423.57 559.85 431.5 562.2 439.36 566.13 454.62 567.38 462.18 568.17 469.96 567.27 486.06 565.46 494.54 563.89 500.51 561.8 506.64 559.21 512.96 556.42 519.54 553.14 526.3 549.4 533.2 545.49 540.32 541.15 547.54 536.43 554.79 531.57 562.11 526.37 569.34 520.87 576.37 515.27 583.26 509.41 589.79 503.33 595.82 497.19 601.45 490.86 606.39 484.39 610.53 477.89 614.04 471.26 616.59 464.55 618.09 457.82 618.83 451.02 618.48 444.16 617.02 437.3 614.84 430.4 611.64 423.47 607.47 416.55 602.84 409.75 597.58 403.1 591.88 396.45 586.12 389.92 580.18 383.54 574.21 377.14 568.54 370.87 563.05 364.73 557.83 358.55 553.14 352.5 548.81 346.56 544.88 340.57 541.56 334.69 538.62 328.91 536.02 323.08 533.97 317.34 532.18 311.7 530.57 303.18 528.8 286.51 525.62 278.38 523.82 270.27 521.9 254.64 516.37 247.19 512.61 239.91 508.31 226.51 497.47 220.5 490.98 216.68 486.44 213.18 481.54 210.04 476.31 207.04 471.03 204.43 465.44 202.25 459.58 200.24 453.69 198.69 447.55 197.62 441.19 196.76 434.82 196.4 428.24 196.57 421.47 196.95 414.7 197.85 407.9 199.23 401.1 200.79 394.3 202.8 387.49 205.24 380.68 207.81 373.87 210.76 367.04 214.06 360.22 217.45 353.37 221.14 346.52 225.12 339.66 229.12 332.78 233.36 325.89 237.81 319.02 242.25 312.12 246.87 305.23 251.65 298.39 256.37 291.54 261.24 284.76 266.22 278.08 271.13 271.45 276.15 264.95 281.27 258.65 286.3 252.46 291.43 246.52 296.65 240.89 301.79 235.45 307.03 230.4 312.36 225.78 317.62 221.44 322.98 217.61 328.46 214.32 333.87 211.38 339.41 209.03 345.07 207.3 350.69 205.92 356.45 205.16 362.35 205.02 368.22 205.17 374.25 205.88 380.44 207.13 386.6 208.53 392.95 210.36 399.46 212.57 405.97 214.74 412.65 217.14 419.52 219.72" stroke-dasharray="7 3" transform="rotate(16.323529411764707, 400, 400)" opacity="0.47"></path><path d="M422.04 229.41C428.6 231.67 435.15 233.93 441.69 236.15 448.22 238.01 454.73 239.79 461.18 241.46 467.63 242.74 474.02 243.93 480.32 245.04 486.59 245.8 492.75 246.53 498.77 247.26 510.66 247.98 521.78 249.18 531.81 251.16 541.34 252.97 549.47 256.07 555.88 260.54 561.52 265.4 565.24 271.77 566.9 279.49 567.85 287.68 566.92 297.07 564.29 307.37 562.94 312.63 561.29 318.07 559.38 323.67 557.6 329.31 555.66 335.07 553.63 340.92 551.88 346.79 550.14 352.74 548.46 358.71 547.2 364.7 546.08 370.71 545.13 376.73 544.58 385.67 545.21 402.83 546.24 411.05 547.92 419.17 551.59 434.91 553.29 442.62 555.74 453.13 556.96 463.65 556.69 474.35 556.04 485.78 553.54 497.73 549.21 510.21 544.23 523.51 537.48 537.25 529.2 551 520.42 564.79 510.36 577.72 499.31 588.93 493.69 593.98 487.87 598.36 481.89 601.98 475.87 605.01 469.7 607.15 463.42 608.34 457.13 608.85 450.74 608.37 444.26 606.88 437.79 604.75 431.24 601.7 424.64 597.78 418.04 593.43 411.55 588.51 405.16 583.17 398.78 577.75 392.49 572.13 386.33 566.45 380.15 561.01 374.07 555.68 368.1 550.55 362.1 545.87 356.2 541.48 350.41 537.41 338.7 530.9 327.33 525.59 316.33 521.2 305.13 518.41 294.26 515.72 283.82 512.67 273.22 510.13 263.09 506.53 253.63 501.63 244.2 496.6 235.6 490.05 228.09 482.05 222.79 475.74 214.09 461.39 210.8 453.43 208.91 448.01 207.46 442.32 206.47 436.38 205.66 430.43 205.34 424.25 205.51 417.85 205.88 411.46 206.74 405 208.06 398.5 209.55 392.01 211.47 385.47 213.79 378.92 216.24 372.36 219.06 365.77 222.22 359.16 225.46 352.55 229 345.92 232.81 339.28 240.53 325.99 249.15 312.69 258.44 299.61 267.58 286.62 277.27 274.04 287.36 262.21 297.16 250.92 307.37 240.8 317.92 232.3 328.19 224.87 338.9 219.45 350.02 216.32 358.33 214.97 375.52 215.44 384.44 217.13 390.41 218.54 396.53 220.35 402.8 222.5 409.06 224.59 415.47 226.92 422.03 229.41" stroke-dasharray="6 6" transform="rotate(17.41176470588235, 400, 400)" opacity="0.50"></path><path d="M423.81 239.11C436.29 243.2 448.66 247.26 460.74 251.02 472.78 253.35 484.45 255.44 495.51 257.41 506.38 258.35 516.42 259.69 525.36 261.64 533.85 263.32 540.99 266.09 546.5 270.05 551.37 274.25 554.48 279.8 555.75 286.61 556.47 293.78 555.55 302.1 553.13 311.36 550.78 320.86 547.53 331.1 543.73 341.85 540.97 352.67 538.37 363.86 536.2 375.22 535.81 386.59 536.05 397.59 536.78 408.19 538.88 418.87 540.9 429.32 542.49 439.59 544.58 450.2 545.61 460.93 545.34 471.88 544.84 483.45 542.7 495.48 538.93 507.89 534.65 520.89 528.73 534.1 521.37 547.1 513.58 559.93 504.53 571.75 494.47 581.81 484.2 590.35 473.11 596.12 461.43 598.52 449.71 598.54 437.51 595.01 424.99 588.08 412.48 579.68 400.25 569.54 388.39 558.68 376.49 548.55 364.89 538.89 353.66 530.17 342.31 523.27 331.25 517.39 320.53 512.37 309.67 508.84 299.11 505.52 288.99 502.02 278.76 499.14 269.02 495.45 259.94 490.71 250.94 485.99 242.76 479.96 235.64 472.62 228.86 465.12 223.36 456.34 219.36 446.4 215.99 436.37 214.29 425.28 214.45 413.24 215.35 401.2 218.05 388.82 222.32 376.3 227.09 363.78 233.21 351.09 240.43 338.39 247.83 325.72 256.11 313.08 265.06 300.72 273.92 288.55 283.34 276.85 293.15 265.99 302.74 255.7 312.73 246.6 323.03 239.1 333.11 232.6 343.58 227.99 354.41 225.51 365.08 224.1 376.22 224.68 387.79 227.18 399.3 230.04 411.32 234.13 423.8 239.1" stroke-dasharray="5 7" transform="rotate(18.5, 400, 400)" opacity="0.53"></path><path d="M424.8 248.8C436.61 252.77 448.21 256.76 459.44 260.53 470.63 263.01 481.37 265.29 491.43 267.47 501.3 268.66 510.33 270.15 518.25 272.15 528.9 275.05 542.26 286.01 544.54 294.47 545.11 300.74 544.24 308.12 542.06 316.42 540.03 324.91 537.21 334.19 533.88 344.05 531.51 353.98 529.23 364.38 527.26 375.11 526.85 385.84 526.92 396.41 527.37 406.75 529.05 417.17 530.63 427.52 531.84 437.84 533.55 448.45 534.35 459.25 534.04 470.29 533.61 481.82 531.75 493.71 528.43 505.86 524.73 518.37 519.54 530.91 513 543.04 506.1 554.84 497.99 565.53 488.87 574.45 479.55 581.92 469.39 586.81 458.58 588.64 447.72 588.36 436.31 584.91 424.51 578.39 412.7 570.57 401.07 561.12 389.71 550.91 378.33 541.23 367.18 531.83 356.32 523.13 345.39 515.96 334.69 509.64 324.32 504.08 313.84 499.88 303.66 495.94 293.91 491.97 284.11 488.66 274.79 484.77 266.14 480.06 257.6 475.47 249.86 469.78 243.15 462.95 236.79 456.04 231.64 447.95 227.91 438.74 224.77 429.47 223.21 419.16 223.38 407.88 224.26 396.59 226.81 384.93 230.84 373.07 235.35 361.23 241.14 349.21 247.99 337.21 255.04 325.27 262.95 313.42 271.53 301.9 280.07 290.64 289.16 279.92 298.65 270.07 307.97 260.81 317.68 252.75 327.7 246.22 337.53 240.62 347.71 236.77 358.2 234.88 368.58 233.9 379.34 234.72 390.44 237.27 401.5 240.08 412.97 244.03 424.79 248.8" stroke-dasharray="6 2" transform="rotate(19.58823529411765, 400, 400)" opacity="0.55"></path><path d="M424.95 258.49C436.08 262.33 446.9 266.24 457.28 269.99 467.62 272.59 477.44 275.05 486.54 277.42 495.48 278.86 503.54 280.53 510.54 282.62 519.93 285.48 531.44 295.43 533.31 302.97 533.79 308.49 533.01 315.04 531.1 322.49 529.39 330.08 526.97 338.47 524.1 347.52 522.09 356.61 520.11 366.27 518.32 376.39 517.9 386.52 517.83 396.63 518.02 406.68 519.31 416.81 520.49 427 521.33 437.25 522.68 447.75 523.24 458.48 522.84 469.42 522.42 480.72 520.75 492.3 517.79 503.98 514.56 515.85 509.98 527.58 504.17 538.74 498.06 549.47 490.8 559.02 482.56 566.83 474.14 573.3 464.87 577.39 454.91 578.69 444.9 578.17 434.29 574.8 423.21 568.7 412.13 561.44 401.13 552.67 390.32 543.11 379.5 533.94 368.83 524.86 358.41 516.28 347.94 508.96 337.67 502.31 327.7 496.31 317.66 491.53 307.92 487.03 298.6 482.59 289.28 478.83 280.43 474.66 272.24 469.87 264.2 465.29 256.93 459.8 250.64 453.34 244.71 446.87 239.91 439.34 236.46 430.78 233.56 422.19 232.13 412.6 232.32 402.07 233.15 391.55 235.55 380.63 239.34 369.5 243.58 358.42 249.03 347.17 255.49 335.96 262.16 324.86 269.68 313.89 277.85 303.32 286.02 293.03 294.74 283.33 303.86 274.54 312.86 266.32 322.25 259.27 331.91 253.68 341.44 248.92 351.3 245.78 361.4 244.42 371.42 243.82 381.76 244.84 392.37 247.4 402.94 250.16 413.83 253.94 424.95 258.49" stroke-dasharray="1 0" transform="rotate(20.676470588235293, 400, 400)" opacity="0.58"></path><path d="M424.28 268.19C434.69 271.88 444.73 275.68 454.28 279.4 463.78 282.1 472.71 284.71 480.91 287.25 488.95 288.93 496.14 290.81 502.3 293.01 510.56 295.94 520.53 305.2 522.1 311.99 522.55 316.9 521.9 322.75 520.26 329.47 518.86 336.27 516.83 343.88 514.38 352.18 512.7 360.51 510.99 369.47 509.38 379 508.96 388.53 508.76 398.19 508.74 407.9 509.68 417.68 510.48 427.62 510.99 437.68 511.98 447.93 512.29 458.42 511.77 469.08 511.3 479.99 509.76 491.07 507.08 502.12 504.22 513.21 500.17 524.02 494.98 534.15 489.56 543.77 483.07 552.21 475.64 558.96 468.05 564.49 459.62 567.83 450.49 568.68 441.3 567.95 431.47 564.7 421.14 559 410.8 552.31 400.46 544.2 390.24 535.3 380.01 526.66 369.89 517.97 359.96 509.59 350 502.24 340.22 495.39 330.71 489.08 321.18 483.82 311.93 478.83 303.09 473.96 294.29 469.75 285.96 465.27 278.27 460.33 270.74 455.66 263.96 450.27 258.12 444.07 252.62 437.91 248.19 430.84 245.02 422.85 242.35 414.85 241.05 405.93 241.26 396.15 242.05 386.37 244.29 376.22 247.83 365.9 251.78 355.61 256.89 345.21 262.94 334.88 269.22 324.68 276.31 314.68 284.03 305.11 291.79 295.84 300.09 287.2 308.79 279.47 317.42 272.27 326.42 266.2 335.68 261.5 344.86 257.52 354.32 255.03 363.99 254.13 373.6 253.85 383.48 255.03 393.54 257.58 403.59 260.24 413.87 263.85 424.28 268.19" stroke-dasharray="2 3" transform="rotate(21.764705882352942, 400, 400)" opacity="0.61"></path><path d="M422.8 277.88C432.48 281.42 441.74 285.1 450.47 288.75 459.15 291.53 467.24 294.26 474.59 296.95 484.99 299.89 500.87 306.33 505.96 310.53 509.57 315.18 511.15 328.48 509.55 337.22 508.44 343.35 506.78 350.26 504.72 357.89 503.34 365.53 501.89 373.84 500.45 382.79 500.02 391.73 499.72 400.9 499.51 410.22 500.14 419.58 500.61 429.17 500.8 438.91 501.45 448.78 501.51 458.87 500.86 469.08 500.31 479.43 498.83 489.85 496.37 500.13 493.79 510.34 490.16 520.15 485.51 529.21 480.7 537.73 474.89 545.07 468.19 550.83 461.37 555.48 453.73 558.16 445.38 558.61 436.99 557.73 427.95 554.61 418.36 549.31 408.78 543.16 399.12 535.7 389.53 527.46 379.94 519.38 370.4 511.14 361.02 503.05 351.63 495.77 342.39 488.84 333.41 482.33 324.43 476.72 315.72 471.35 307.42 466.11 299.18 461.49 291.4 456.7 284.23 451.6 277.24 446.78 270.97 441.41 265.59 435.39 260.53 429.45 256.47 422.75 253.58 415.27 251.15 407.78 249.98 399.5 250.2 390.45 250.94 381.4 253.03 372.04 256.31 362.55 259.98 353.11 264.72 343.6 270.35 334.21 276.21 324.97 282.85 315.97 290.09 307.44 297.41 299.21 305.25 291.62 313.48 284.92 321.68 278.71 330.24 273.57 339.05 269.7 347.8 266.43 356.81 264.5 366 264.01 375.15 264 384.51 265.29 394 267.79 403.48 270.36 413.11 273.78 422.8 277.88" stroke-dasharray="1 1" transform="rotate(22.85294117647059, 400, 400)" opacity="0.64"></path><path d="M420.56 287.58C429.5 290.94 437.99 294.49 445.92 298.06 453.82 300.87 461.1 303.69 467.66 306.49 476.94 309.73 490.94 316.59 495.39 320.79 498.61 325.25 500.2 337.56 498.96 345.54 498.14 351.11 496.82 357.43 495.12 364.45 494.02 371.46 492.79 379.17 491.51 387.54 491.09 395.91 490.7 404.56 490.33 413.4 490.69 422.28 490.87 431.41 490.78 440.69 491.11 450.06 490.93 459.61 490.14 469.21 489.48 478.86 488.02 488.5 485.71 497.89 483.36 507.13 480.07 515.9 475.88 523.88 471.58 531.32 466.37 537.62 460.34 542.44 454.21 546.29 447.31 548.38 439.72 548.49 432.08 547.48 423.81 544.51 414.98 539.62 406.14 533.99 397.2 527.17 388.27 519.6 379.35 512.1 370.44 504.35 361.66 496.63 352.89 489.52 344.24 482.64 335.84 476.06 327.46 470.22 319.34 464.57 311.62 459.06 303.97 454.11 296.77 449.05 290.16 443.79 283.73 438.81 277.98 433.42 273.06 427.54 268.44 421.76 264.76 415.36 262.15 408.33 259.95 401.31 258.91 393.62 259.13 385.28 259.83 376.94 261.76 368.38 264.78 359.75 268.16 351.16 272.53 342.57 277.73 334.16 283.16 325.89 289.32 317.91 296.06 310.43 302.89 303.22 310.23 296.66 317.94 290.96 325.66 285.68 333.73 281.39 342.03 278.26 350.3 275.63 358.81 274.2 367.46 274.04 376.1 274.26 384.9 275.61 393.77 278.04 402.65 280.49 411.61 283.71 420.56 287.58" stroke-dasharray="6 5" transform="rotate(23.941176470588236, 400, 400)" opacity="0.66"></path><path d="M417.63 297.27C425.84 300.45 433.56 303.84 440.73 307.3 447.86 310.12 454.4 312.99 460.24 315.88 468.5 319.37 480.87 326.65 484.8 330.89 487.71 335.27 489.41 346.85 488.52 354.23 487.96 359.34 486.95 365.14 485.58 371.61 484.72 378.07 483.7 385.21 482.57 393 482.16 400.79 481.71 408.88 481.21 417.18 481.33 425.51 481.26 434.08 480.93 442.78 480.98 451.52 480.57 460.4 479.64 469.26 478.86 478.11 477.39 486.85 475.2 495.28 473 503.51 469.99 511.21 466.19 518.12 462.32 524.51 457.64 529.83 452.21 533.79 446.72 536.92 440.49 538.49 433.61 538.32 426.7 537.22 419.17 534.42 411.09 529.92 403.01 524.81 394.79 518.62 386.55 511.7 378.32 504.81 370.09 497.59 361.95 490.3 353.84 483.47 345.84 476.75 338.06 470.23 330.33 464.29 322.84 458.49 315.73 452.82 308.71 447.62 302.12 442.36 296.08 436.99 290.23 431.88 285 426.48 280.55 420.72 276.38 415.07 273.06 408.94 270.73 402.32 268.76 395.72 267.84 388.58 268.07 380.94 268.72 373.29 270.48 365.52 273.24 357.74 276.33 350.01 280.32 342.35 285.09 334.92 290.06 327.61 295.73 320.64 301.94 314.17 308.25 307.95 315.06 302.37 322.22 297.59 329.41 293.17 336.93 289.66 344.67 287.2 352.41 285.13 360.36 284.12 368.43 284.23 376.5 284.61 384.69 286 392.92 288.33 401.16 290.64 409.43 293.65 417.63 297.27" stroke-dasharray="4 6" transform="rotate(25.029411764705884, 400, 400)" opacity="0.69"></path><path d="M414.12 306.96C421.58 309.95 428.56 313.17 435 316.49 444.32 320.72 459.76 328.78 465.67 332.78 473.82 340.77 478.78 356.16 478.23 363.04 477.91 367.77 477.18 373.13 476.1 379.1 475.46 385.05 474.63 391.64 473.63 398.84 473.23 406.04 472.74 413.54 472.15 421.23 472.07 428.94 471.78 436.86 471.24 444.87 471.04 452.9 470.44 460.99 469.37 469.01 468.47 476.97 466.98 484.76 464.87 492.18 462.78 499.37 460 506.03 456.54 511.9 450.93 519.5 436.2 527.93 427.2 528.1 420.98 526.95 414.17 524.32 406.84 520.23 399.5 515.62 392.01 510.03 384.49 503.77 376.98 497.49 369.45 490.84 362 484.05 354.58 477.59 347.26 471.12 340.15 464.78 333.09 458.87 326.27 453.06 319.8 447.34 313.43 442.01 307.46 436.65 302.01 431.23 296.74 426.05 292.05 420.67 288.07 415.04 284.34 409.52 281.38 403.66 279.32 397.44 277.57 391.24 276.77 384.64 277.01 377.67 277.6 370.69 279.21 363.69 281.71 356.76 284.49 349.87 288.11 343.12 292.43 336.64 296.95 330.27 302.1 324.26 307.76 318.76 313.54 313.47 319.77 308.79 326.35 304.85 332.97 301.21 339.9 298.39 347.04 296.5 354.19 294.91 361.53 294.25 368.98 294.56 376.43 295.07 383.98 296.44 391.53 298.65 399.1 300.81 406.66 303.6 414.12 306.96" stroke-dasharray="2 6" transform="rotate(26.117647058823533, 400, 400)" opacity="0.72"></path><path d="M410.14 316.66C416.86 319.44 423.11 322.46 428.85 325.62 437.16 329.77 450.85 337.94 456.08 342.06 463.43 350.25 468.32 365.28 468.09 371.73 467.73 378.63 465.89 395.12 464.7 404.75 464.31 411.35 463.79 418.22 463.13 425.24 462.89 432.28 462.43 439.47 461.73 446.71 461.32 453.94 460.54 461.18 459.37 468.28 458.35 475.3 456.83 482.1 454.78 488.5 451.49 497.49 441.93 511.46 435.63 515.74 428.7 518.03 412 515.45 402.35 510.53 395.76 506.41 389.01 501.42 382.21 495.81 375.44 490.15 368.63 484.1 361.9 477.85 355.2 471.82 348.59 465.72 342.17 459.66 335.81 453.92 329.68 448.22 323.87 442.59 318.17 437.26 312.84 431.91 307.99 426.54 303.29 421.36 299.13 416.06 295.62 410.61 292.32 405.25 289.72 399.66 287.92 393.84 286.39 388.04 285.71 381.97 285.95 375.65 286.49 369.33 287.93 363.07 290.17 356.96 292.66 350.88 295.89 345 299.77 339.42 303.82 333.94 308.45 328.83 313.56 324.23 318.77 319.78 324.41 315.92 330.37 312.74 336.38 309.78 342.69 307.56 349.18 306.15 355.71 304.96 362.41 304.57 369.18 305.03 375.98 305.61 382.86 306.94 389.71 309 396.58 310.99 403.42 313.56 410.14 316.66" stroke-dasharray="7 0" transform="rotate(27.205882352941178, 400, 400)" opacity="0.75"></path><path d="M405.82 326.35C417.79 331.16 428.01 336.87 436.13 342.96 444.13 347.65 449.97 353.08 453.47 359.31 456.99 364.74 458.49 371.62 458.1 380.06 458.44 388.27 457.61 398.4 455.76 410.39 455.43 422.38 454.3 435.19 452.39 448.03 451.44 460.76 449.04 473.19 445.01 484.17 441.21 494.33 435.33 502.12 427.45 506.36 419.51 508.78 409.53 507.06 397.79 500.84 386.05 493.29 373.78 483.07 361.75 471.67 349.85 460.82 338.34 449.55 328 438.49 318.03 428.32 309.51 417.94 303.21 407.43 297.66 397.24 294.67 386.36 294.88 375 296.11 363.63 300.43 352.86 307.11 343.33 314.42 334.05 323.75 326.45 334.32 321.23 345.14 316.62 356.99 314.65 369.14 315.61 381.38 316.86 393.85 320.52 405.82 326.35" stroke-dasharray="5 5" transform="rotate(28.294117647058822, 400, 400)" opacity="0.78"></path><path d="M401.3 336.05C411.83 340.45 420.79 345.8 427.91 351.61 434.95 356.32 440.15 361.75 443.38 367.86 446.68 373.3 448.29 379.94 448.27 387.81 448.87 395.47 448.37 404.71 446.82 415.45 446.46 426.18 445.23 437.47 443.21 448.59 441.98 459.58 439.45 470.08 435.57 479.13 431.92 487.46 426.55 493.65 419.5 496.75 412.44 498.46 403.63 496.69 393.3 491.15 382.98 484.57 372.21 475.61 361.67 465.5 351.25 455.68 341.22 445.29 332.24 434.96 323.59 425.24 316.25 415.35 310.87 405.48 306.11 395.86 303.57 385.86 303.82 375.75 304.89 365.63 308.65 356.35 314.48 348.36 320.83 340.55 328.99 334.36 338.26 330.28 347.78 326.61 358.23 325.21 368.96 326.3 379.78 327.52 390.78 330.81 401.3 336.05" stroke-dasharray="6 6" transform="rotate(29.382352941176467, 400, 400)" opacity="0.80"></path><path d="M396.75 345.74C405.86 349.71 413.61 354.63 419.8 360.06 425.96 364.66 430.58 369.96 433.56 375.83 436.65 381.18 438.32 387.5 438.6 394.77 439.38 401.86 439.15 410.19 437.88 419.64 437.51 429.09 436.24 438.81 434.2 448.2 432.77 457.46 430.21 466.1 426.52 473.35 423.05 480.01 418.15 484.77 411.9 486.92 405.66 488.05 397.98 486.31 389.04 481.45 380.1 475.81 370.82 468.11 361.77 459.31 352.83 450.63 344.25 441.29 336.63 431.9 329.28 422.89 323.08 413.71 318.59 404.65 314.59 395.77 312.49 386.74 312.76 377.86 313.68 368.98 316.89 361.08 321.87 354.47 327.28 347.98 334.27 342.98 342.24 339.84 350.44 336.95 359.46 335.98 368.75 337.09 378.11 338.21 387.64 341.12 396.75 345.74" stroke-dasharray="5 3" transform="rotate(30.470588235294116, 400, 400)" opacity="0.83"></path><path d="M392.3 355.43C400.02 358.94 406.63 363.36 411.95 368.3 417.26 372.65 421.33 377.67 424.06 383.17 426.9 388.29 428.59 394.18 429.1 400.76 429.99 407.22 429.96 414.58 428.95 422.73 428.58 430.86 427.33 439.02 425.35 446.72 423.82 454.31 421.32 461.2 417.88 466.81 412.43 473.75 396.03 476.75 385.14 471.76 377.55 467.02 369.73 460.54 362.15 453.07 354.66 445.62 347.52 437.47 341.22 429.19 335.14 421.13 330.04 412.89 326.39 404.81 323.11 396.84 321.42 388.86 321.7 381.22 322.46 373.57 325.14 366.94 329.3 361.55 333.79 356.21 339.63 352.24 346.31 349.84 353.18 347.57 360.77 346.9 368.61 347.94 376.51 348.94 384.57 351.44 392.3 355.43" stroke-dasharray="5 2" transform="rotate(31.558823529411764, 400, 400)" opacity="0.86"></path><path d="M388.1 365.13C394.48 368.14 399.97 371.98 404.45 376.34 410.69 382.59 418.28 397.24 419.75 405.69 420.67 411.4 420.79 417.73 420.01 424.54 419.66 431.33 418.49 437.96 416.65 444.05 413.95 452.7 404.78 464.65 398.18 466.7 393.53 467.03 388 465.54 381.73 462.06 375.46 458.2 369.07 452.91 362.93 446.76 356.84 440.58 351.1 433.75 346.06 426.72 341.19 419.8 337.14 412.69 334.27 405.74 331.67 398.86 330.36 392.04 330.63 385.63 332.34 376.49 342.74 363.58 350.52 360.2 356.08 358.42 362.26 357.95 368.66 358.86 375.12 359.69 381.73 361.78 388.1 365.13" stroke-dasharray="2 1" transform="rotate(32.64705882352941, 400, 400)" opacity="0.89"></path><path d="M384.31 374.82C394.4 379.51 401.93 387.12 406.14 395.87 410.65 403.97 412.5 414.08 411.07 424.97 410.74 435.85 407.38 445.44 401.91 451.52 396.83 456.84 388.9 457.63 378.94 452.37 368.97 446.13 358.97 435.72 351.19 424.36 343.84 413.15 339.29 401.19 339.57 390.84 340.76 380.49 346.62 373.57 354.92 370.81 363.6 368.03 374.21 369.25 384.31 374.82" stroke-dasharray="3 3" transform="rotate(33.73529411764706, 400, 400)" opacity="0.92"></path><path d="M381.03 384.51C388.54 388.19 394.35 394.25 397.79 401.21 401.43 407.84 403.08 415.84 402.13 424 400.39 435.52 387.36 446.55 376.84 442.68 369.4 438.12 362.16 430.47 356.65 421.98 351.39 413.52 348.21 404.4 348.51 396.57 351.44 386.16 369.65 379.9 381.03 384.51" stroke-dasharray="5 4" transform="rotate(34.8235294117647, 400, 400)" opacity="0.94"></path><path d="M378.39 394.21C388.33 399.04 394.56 410.84 393.2 421.68 392.88 432.51 385.39 438.1 375.51 432.98 365.63 426.91 357.15 413.03 357.45 402.5 358.69 391.96 368.43 388.47 378.39 394.21" stroke-dasharray="6 4" transform="rotate(35.911764705882355, 400, 400)" opacity="0.97"></path></g></svg>