<svg xmlns="http://www.w3.org/2000/svg" version="1.1" xmlns:xlink="http://www.w3.org/1999/xlink" xmlns:svgjs="http://svgjs.dev/svgjs" viewBox="0 0 800 800"><defs><linearGradient x1="50%" y1="0%" x2="50%" y2="100%" id="ccchaos-grad"><stop stop-color="hsl(230, 55%, 50%)" stop-opacity="1" offset="0%"></stop><stop stop-color="hsl(230, 55%, 70%)" stop-opacity="1" offset="100%"></stop></linearGradient></defs><g stroke-width="1.5" stroke="url(#ccchaos-grad)" fill="none" stroke-linecap="round"><path d="M373.54 59.59C384.32 57.79 395.1 56.92 405.88 56.98 416.71 57.46 427.62 58.92 438.64 61.32 449.81 64.14 461.22 67.86 472.95 72.4 484.97 77.26 497.45 82.84 510.43 89.04 523.81 95.4 537.78 102.25 552.28 109.53 567.1 116.77 582.33 124.33 597.76 132.13 613.06 139.77 628.12 147.59 642.54 155.55 656.01 163.28 668.14 171.13 678.44 179.09 686.91 186.79 692.96 194.63 696.31 202.6 697.53 210.35 696.12 218.28 692.33 226.4 687.39 234.34 681.17 242.52 674.45 250.95 668.86 259.26 664.51 267.86 662.31 276.75 663.49 285.57 667.95 294.72 675.9 304.19 687.47 313.62 701.77 323.39 717.88 333.51 734.87 343.6 751.12 354.04 765.1 364.83 775.91 375.61 782.06 386.74 782.76 398.22 778.47 409.71 769.14 421.28 755.86 432.92 740.3 444.57 723.53 456.3 707.06 468.08 692.45 479.88 680.43 491.73 671.68 503.59 666.88 515.47 665.55 527.36 667.25 539.21 671.91 551.04 678.08 562.79 684.78 574.37 691.89 585.88 697.77 597.16 701.74 608.1 704.03 618.85 703.54 629.15 700.21 638.89 694.59 648.28 686.33 656.98 675.81 664.87 663.63 672.27 649.94 678.74 635.25 684.21 619.91 689.11 604.28 692.96 588.72 695.74 573.28 698.03 558.3 699.34 543.89 699.74 529.96 699.91 516.66 699.4 503.97 698.36 491.75 697.53 480.01 696.51 468.66 695.46 457.62 695.14 446.8 695.13 436.12 695.56 425.58 697.08 415.04 699.21 404.46 701.98 393.92 705.86 383.27 710.27 372.52 715.07 361.77 720.59 351.17 725.97 340.76 730.96 330.38 735.97 320.22 740.12 310.36 743.22 300.57 745.72 291.12 746.86 282.08 746.57 273.15 745.36 264.66 742.63 256.66 738.46 248.73 733.37 241.28 726.96 234.31 719.39 227.3 711.15 220.68 702 214.39 692.11 207.88 681.91 201.56 671.23 195.34 660.23 188.68 649.23 181.99 638.09 175.19 626.92 167.84 615.95 160.34 605.05 152.71 594.25 144.61 583.74 136.5 573.34 128.5 563.04 120.35 553.03 112.56 543.07 105.29 533.16 98.29 523.46 92.06 513.72 86.73 503.92 81.93 494.26 78.12 484.47 75.32 474.53 73.01 464.66 71.56 454.59 70.93 444.31 70.42 434.06 70.45 423.57 70.9 412.84 71.06 402.11 71.4 391.14 71.86 379.95 71.79 368.75 71.8 357.6 71.93 346.53 71.67 335.48 71.73 324.53 72.22 313.74 72.71 302.98 73.89 292.4 75.88 282.06 78.27 271.78 81.64 261.77 85.99 252.08 90.9 242.49 96.78 233.25 103.51 224.42 110.62 215.7 118.37 207.42 126.61 199.61 134.83 191.92 143.27 184.71 151.79 178 159.93 171.38 167.98 165.25 175.91 159.61 183.29 153.98 190.54 148.8 197.69 144.04 204.36 139.19 211.04 134.68 217.82 130.5 224.3 126.1 231.02 121.92 238.05 117.95 244.96 113.66 252.28 109.5 260.03 105.47 267.8 101.05 276.03 96.74 284.71 92.56 293.45 88.04 302.61 83.7 312.17 79.6 321.77 75.31 331.71 71.38 341.96 67.91 352.22 64.47 362.75 61.66 373.53 59.59" stroke-dasharray="0 0" transform="rotate(0, 400, 400)" opacity="0.05"></path><path d="M377.23 70.89C387.74 69.1 398.38 68.2 409.15 68.2 419.96 68.59 430.98 69.92 442.23 72.16 453.61 74.81 465.32 78.33 477.4 82.64 489.71 87.28 502.48 92.62 515.7 98.59 529.19 104.72 543.12 111.37 557.4 118.44 571.78 125.52 586.3 132.93 600.72 140.6 614.76 148.14 628.24 155.89 640.79 163.78 652.24 171.48 662.15 179.3 670.15 187.24 676.4 194.95 680.34 202.79 681.83 210.75 681.57 218.5 679.12 226.41 674.79 234.49 669.84 242.39 664.13 250.51 658.39 258.84 654.1 267.05 651.3 275.52 650.72 284.25 653.38 292.91 659.09 301.86 667.93 311.11 679.91 320.31 694.18 329.84 709.83 339.68 726.03 349.5 741.3 359.65 754.3 370.14 764.29 380.61 769.92 391.42 770.5 402.58 766.5 413.73 757.82 424.97 745.42 436.27 730.81 447.58 714.88 458.95 698.99 470.36 684.56 481.78 672.28 493.24 662.82 504.68 656.89 516.13 654.17 527.55 654.34 538.89 657.46 550.19 662.28 561.37 667.99 572.34 674.5 583.21 680.32 593.79 684.76 604.01 688.04 614.01 689.01 623.54 687.49 632.48 683.99 641.07 677.99 648.98 669.74 656.08 659.81 662.72 648.19 668.49 635.3 673.3 621.54 677.61 607.14 680.96 592.49 683.34 577.69 685.32 563.03 686.42 548.73 686.72 534.68 686.88 521.11 686.46 508.07 685.59 495.37 684.99 483.16 684.24 471.38 683.5 459.86 683.47 448.66 683.73 437.72 684.4 426.92 686.08 416.26 688.31 405.71 691.09 395.2 694.9 384.73 699.17 374.3 703.77 363.88 709.04 353.72 714.15 343.86 718.89 334 723.67 324.46 727.66 315.28 730.69 306.12 733.2 297.35 734.47 289.01 734.41 280.7 733.52 272.82 731.23 265.4 727.58 257.97 723.08 250.95 717.32 244.32 710.43 237.57 702.88 231.11 694.41 224.88 685.18 218.36 675.6 211.92 665.49 205.51 654.99 198.63 644.43 191.66 633.65 184.57 622.78 176.94 612.04 169.18 601.3 161.32 590.61 153.08 580.15 144.88 569.76 136.84 559.46 128.76 549.41 121.09 539.4 114 529.45 107.24 519.7 101.29 509.93 96.25 500.14 91.78 490.48 88.3 480.73 85.82 470.88 83.81 461.1 82.66 451.18 82.29 441.09 82.03 431.04 82.27 420.8 82.89 410.38 83.18 399.96 83.62 389.34 84.12 378.55 84.05 367.76 84.01 357.06 84.03 346.47 83.64 335.89 83.51 325.44 83.77 315.17 84.01 304.94 84.91 294.9 86.57 285.12 88.63 275.39 91.65 265.94 95.65 256.82 100.22 247.78 105.76 239.09 112.18 230.8 119.03 222.61 126.58 214.83 134.67 207.5 142.84 200.27 151.29 193.48 159.89 187.17 168.21 180.91 176.5 175.09 184.68 169.73 192.38 164.35 199.93 159.36 207.37 154.75 214.31 150.02 221.21 145.6 228.13 141.46 234.68 137.1 241.39 132.93 248.31 128.95 255.03 124.64 262.08 120.46 269.49 116.39 276.83 111.97 284.59 107.65 292.77 103.47 300.94 98.98 309.54 94.67 318.56 90.61 327.58 86.37 337 82.5 346.79 79.09 356.57 75.71 366.72 72.95 377.22 70.89" stroke-dasharray="0 0" transform="rotate(2.821428571428571, 400, 400)" opacity="0.08"></path><path d="M383.23 82.19C393.52 80.41 404.03 79.48 414.76 79.42 425.54 79.73 436.6 80.94 447.95 83.02 459.41 85.49 471.24 88.81 483.43 92.9 495.79 97.3 508.54 102.4 521.64 108.12 534.87 114.02 548.37 120.44 562.02 127.29 575.56 134.18 588.99 141.41 602.04 148.92 614.53 156.34 626.22 163.98 636.75 171.78 646.12 179.42 653.88 187.2 659.72 195.09 663.99 202.79 666.14 210.61 666.13 218.55 664.79 226.29 661.7 234.18 657.22 242.21 652.59 250.09 647.65 258.14 643.08 266.39 640.17 274.52 638.91 282.88 639.87 291.48 643.89 299.99 650.68 308.77 660.24 317.82 672.49 326.82 686.59 336.12 701.7 345.71 717.08 355.27 731.39 365.15 743.44 375.34 752.63 385.51 757.77 396.01 758.25 406.83 754.52 417.65 746.47 428.54 734.92 439.47 721.24 450.42 706.16 461.41 690.89 472.41 676.74 483.42 664.33 494.44 654.32 505.42 647.42 516.38 643.43 527.29 642.16 538.07 643.76 548.81 647.18 559.37 651.73 569.69 657.42 579.89 662.86 589.77 667.42 599.24 671.3 608.5 673.33 617.25 673.28 625.41 671.59 633.24 667.61 640.38 661.5 646.74 653.78 652.69 644.28 657.81 633.35 662.03 621.41 665.83 608.57 668.75 595.18 670.79 581.42 672.52 567.53 673.48 553.74 673.73 539.99 673.92 526.55 673.62 513.5 672.94 500.66 672.57 488.24 672.1 476.25 671.65 464.46 671.89 453.02 672.4 441.91 673.29 430.93 675.11 420.18 677.42 409.66 680.22 399.18 683.95 388.85 688.07 378.69 692.47 368.52 697.48 358.72 702.33 349.3 706.83 339.87 711.38 330.82 715.21 322.17 718.16 313.51 720.67 305.26 722.02 297.43 722.17 289.58 721.58 282.13 719.69 275.09 716.52 267.97 712.58 261.19 707.43 254.71 701.19 248.04 694.32 241.57 686.54 235.24 677.98 228.57 669.04 221.91 659.53 215.22 649.59 208.05 639.52 200.77 629.18 193.36 618.68 185.47 608.24 177.47 597.74 169.43 587.24 161.08 576.92 152.85 566.63 144.86 556.4 136.9 546.37 129.42 536.38 122.58 526.45 116.12 516.69 110.5 506.94 105.81 497.18 101.7 487.55 98.57 477.86 96.42 468.12 94.73 458.44 93.87 448.66 93.75 438.77 93.72 428.91 94.15 418.92 94.91 408.79 95.33 398.67 95.84 388.4 96.38 378 96.31 367.61 96.23 357.33 96.17 347.2 95.65 337.08 95.37 327.12 95.42 317.36 95.42 307.63 96.05 298.11 97.4 288.86 99.13 279.66 101.78 270.74 105.39 262.16 109.57 253.64 114.73 245.46 120.78 237.68 127.32 229.97 134.59 222.66 142.46 215.77 150.5 208.95 158.89 202.55 167.51 196.58 175.94 190.64 184.4 185.1 192.81 179.96 200.8 174.79 208.67 169.96 216.42 165.47 223.7 160.84 230.89 156.49 238.05 152.37 244.82 148.03 251.66 143.86 258.64 139.86 265.35 135.54 272.31 131.33 279.56 127.24 286.67 122.82 294.14 118.5 302 114.33 309.79 109.87 318 105.6 326.62 101.58 335.21 97.42 344.23 93.61 353.67 90.26 363.09 86.95 372.94 84.23 383.22 82.2" stroke-dasharray="0 0" transform="rotate(5.642857142857142, 400, 400)" opacity="0.12"></path><path d="M390.93 93.49C401.02 91.73 411.39 90.78 422.03 90.65 432.71 90.88 443.71 91.97 455.01 93.9 466.39 96.2 478.12 99.3 490.15 103.16 502.28 107.33 514.7 112.18 527.34 117.64 539.97 123.29 552.7 129.46 565.35 136.08 577.74 142.75 589.78 149.78 601.23 157.1 611.99 164.37 621.77 171.87 630.28 179.55 637.65 187.1 643.39 194.81 647.32 202.63 649.9 210.29 650.62 218.08 649.53 225.97 647.51 233.69 644.17 241.55 639.89 249.54 635.86 257.37 631.9 265.38 628.61 273.55 627.12 281.6 627.35 289.86 629.76 298.32 634.97 306.71 642.69 315.33 652.78 324.2 665.16 333.01 678.99 342.1 693.49 351.45 708.03 360.77 721.38 370.38 732.5 380.28 740.94 390.16 745.61 400.34 745.99 410.81 742.53 421.29 735.07 431.81 724.35 442.36 711.58 452.92 697.35 463.5 682.76 474.07 668.97 484.63 656.55 495.18 646.14 505.65 638.43 516.1 633.32 526.46 630.72 536.65 630.85 546.78 632.84 556.71 636.15 566.35 640.82 575.86 645.63 585.03 649.98 593.76 654.08 602.28 656.79 610.28 657.82 617.69 657.59 624.78 655.34 631.21 651.13 636.89 645.48 642.21 638.05 646.74 629.12 650.45 619.12 653.81 608.04 656.36 596.18 658.14 583.79 659.67 571.01 660.54 558.09 660.79 545.05 661.04 532.11 660.88 519.39 660.42 506.76 660.28 494.44 660.07 482.48 659.91 470.66 660.4 459.18 661.15 448.04 662.23 437 664.18 426.25 666.55 415.79 669.35 405.37 672.99 395.18 676.97 385.22 681.17 375.27 685.93 365.75 690.53 356.67 694.79 347.57 699.12 338.88 702.78 330.62 705.63 322.31 708.11 314.41 709.54 306.92 709.87 299.35 709.54 292.15 708 285.3 705.29 278.3 701.86 271.58 697.29 265.09 691.69 258.34 685.48 251.72 678.36 245.17 670.48 238.25 662.2 231.29 653.32 224.27 643.96 216.79 634.44 209.19 624.59 201.48 614.52 193.36 604.46 185.18 594.28 177.01 584.06 168.64 573.94 160.45 563.83 152.58 553.75 144.83 543.82 137.61 533.92 131.08 524.07 124.98 514.37 119.74 504.67 115.44 495 111.72 485.43 108.96 475.83 107.15 466.21 105.78 456.65 105.2 447.03 105.31 437.34 105.49 427.68 106.08 417.93 106.98 408.09 107.5 398.26 108.07 388.33 108.63 378.31 108.57 368.3 108.46 358.43 108.33 348.75 107.72 339.07 107.3 329.57 107.17 320.3 106.96 311.05 107.33 302.03 108.38 293.29 109.76 284.58 112.04 276.17 115.24 268.08 119.01 260.04 123.74 252.35 129.38 245.03 135.53 237.76 142.46 230.87 150.03 224.38 157.85 217.93 166.1 211.86 174.64 206.19 183.1 200.52 191.66 195.22 200.23 190.28 208.48 185.27 216.64 180.57 224.69 176.17 232.32 171.62 239.85 167.31 247.32 163.21 254.39 158.88 261.47 154.7 268.63 150.67 275.49 146.34 282.52 142.12 289.76 138.01 296.82 133.59 304.19 129.28 311.88 125.12 319.47 120.7 327.44 116.48 335.81 112.53 344.13 108.43 352.87 104.7 362.05 101.41 371.21 98.17 380.82 95.5 390.92 93.5" stroke-dasharray="0 0" transform="rotate(8.464285714285714, 400, 400)" opacity="0.15"></path><path d="M399.54 104.8C409.45 103.05 419.65 102.08 430.11 101.9 440.61 102.05 451.41 103.02 462.48 104.79 473.6 106.92 485 109.82 496.62 113.45 508.26 117.38 520.06 121.97 531.93 127.16 543.68 132.55 555.34 138.46 566.73 144.81 577.74 151.25 588.22 158.05 597.94 165.16 606.92 172.25 614.81 179.58 621.39 187.11 626.91 194.54 630.89 202.14 633.22 209.87 634.47 217.46 634.15 225.18 632.37 233.01 630.04 240.69 626.8 248.49 623.04 256.42 619.83 264.21 617 272.15 615.07 280.24 614.99 288.21 616.64 296.37 620.35 304.71 626.6 312.97 635.05 321.45 645.53 330.14 657.88 338.78 671.35 347.65 685.19 356.77 698.85 365.86 711.26 375.21 721.5 384.81 729.22 394.4 733.44 404.26 733.73 414.37 730.53 424.49 723.64 434.64 713.71 444.79 701.82 454.93 688.46 465.08 674.57 475.18 661.22 485.28 648.91 495.32 638.23 505.26 629.88 515.17 623.8 524.94 620 534.52 618.75 544.03 619.35 553.3 621.35 562.27 624.87 571.09 628.83 579.55 632.7 587.56 636.69 595.35 639.71 602.64 641.44 609.33 641.85 618.63 632.25 633.33 622.49 638.6 614.43 641.58 605.19 643.85 595.01 645.41 584.2 646.82 572.8 647.63 561.05 647.92 549.04 648.27 536.92 648.27 524.85 648.02 512.76 648.12 500.84 648.17 489.17 648.28 477.58 649.01 466.26 649.97 455.26 651.23 444.33 653.28 433.69 655.7 423.35 658.48 413.05 662.03 403.02 665.86 393.25 669.87 383.49 674.39 374.2 678.73 365.36 682.76 356.49 686.86 348.05 690.35 340.03 693.11 331.95 695.55 324.25 697.03 316.93 697.5 309.49 697.4 302.37 696.19 295.53 693.88 288.51 690.93 281.7 686.92 275.05 681.91 268.11 676.33 261.24 669.88 254.39 662.66 247.16 655.04 239.87 646.81 232.5 638.07 224.72 629.12 216.84 619.81 208.87 610.24 200.59 600.61 192.3 590.83 184.09 580.95 175.78 571.13 167.73 561.27 160.06 551.4 152.59 541.66 145.72 531.92 139.55 522.21 133.87 512.62 129.05 503.05 125.17 493.49 121.86 484.04 119.48 474.57 118.02 465.1 116.96 455.69 116.64 446.24 116.98 436.77 117.34 427.32 118.08 417.82 119.08 408.27 119.68 398.72 120.31 389.12 120.89 379.47 120.84 369.83 120.7 360.36 120.51 351.1 119.83 341.84 119.3 332.79 119.01 323.98 118.61 315.18 118.74 306.63 119.5 298.37 120.56 290.12 122.46 282.17 125.24 274.55 128.57 266.96 132.85 259.7 138.02 252.8 143.73 245.92 150.24 239.41 157.44 233.27 164.95 227.14 172.96 221.37 181.33 215.96 189.73 210.52 198.3 205.41 206.94 200.63 215.37 195.76 223.75 191.16 232.07 186.83 240.02 182.33 247.89 178.05 255.67 173.95 263.09 169.62 270.49 165.43 277.9 161.38 285.01 157.04 292.23 152.81 299.6 148.69 306.76 144.28 314.15 139.99 321.82 135.86 329.36 131.49 337.24 127.33 345.48 123.43 353.64 119.42 362.22 115.77 371.22 112.55 380.19 109.39 389.62 106.77 399.53 104.8" stroke-dasharray="0 0" transform="rotate(11.285714285714285, 400, 400)" opacity="0.19"></path><path d="M408.2 116.1C417.91 114.37 427.88 113.39 438.07 113.15 448.29 113.23 458.76 114.09 469.42 115.71 480.1 117.66 490.97 120.36 501.93 123.76 512.86 127.44 523.81 131.77 534.65 136.69 545.31 141.81 555.71 147.44 565.66 153.52 575.18 159.7 584.03 166.25 592 173.12 599.25 180 605.38 187.13 610.22 194.48 614.15 201.76 616.68 209.21 617.77 216.81 618.06 224.3 617.08 231.92 615.01 239.65 612.72 247.26 609.89 254.99 606.88 262.84 604.67 270.56 603.07 278.42 602.5 286.41 603.78 294.31 606.74 302.36 611.6 310.57 618.72 318.71 627.73 327.03 638.43 335.54 650.64 344 663.64 352.67 676.77 361.56 689.56 370.41 701.04 379.49 710.42 388.8 717.46 398.09 721.27 407.62 721.48 417.37 718.52 427.12 712.17 436.88 703 446.6 691.98 456.32 679.48 466.01 666.32 475.63 653.48 485.23 641.37 494.75 630.58 504.14 621.73 513.48 614.85 522.66 610 531.62 607.47 540.5 606.72 549.12 607.43 557.4 609.71 565.55 612.67 573.31 615.83 580.62 619.4 587.74 622.39 594.34 624.46 600.37 626.07 608.74 620.62 621.87 613.45 626.55 607.24 629.22 599.81 631.25 591.36 632.67 582.23 633.99 572.36 634.8 561.97 635.16 551.22 635.62 540.19 635.8 529.04 635.77 517.77 636.09 506.52 636.39 495.39 636.76 484.27 637.7 473.34 638.86 462.65 640.28 452.01 642.41 441.6 644.87 431.48 647.62 421.38 651.07 411.54 654.75 401.97 658.57 392.39 662.85 383.29 666.95 374.62 670.75 365.92 674.63 357.64 677.95 349.74 680.59 341.77 682.98 334.15 684.49 326.84 685.08 319.41 685.17 312.24 684.25 305.28 682.32 298.13 679.81 291.12 676.3 284.21 671.86 277.01 666.89 269.84 661.07 262.64 654.51 255.1 647.55 247.49 639.96 239.8 631.86 231.77 623.52 223.66 614.79 215.53 605.75 207.16 596.62 198.86 587.29 190.72 577.81 182.57 568.36 174.74 558.82 167.36 549.25 160.26 539.76 153.79 530.25 148.06 520.75 142.84 511.35 138.48 501.95 135.04 492.57 132.15 483.28 130.16 473.98 129.03 464.7 128.27 455.47 128.21 446.22 128.74 436.98 129.27 427.76 130.13 418.51 131.21 409.25 131.89 400 132.55 390.73 133.15 381.44 133.11 372.15 132.95 363.07 132.72 354.22 131.99 345.36 131.37 336.73 130.95 328.35 130.39 319.98 130.3 311.87 130.78 304.04 131.52 296.23 133.05 288.7 135.42 281.5 138.3 274.31 142.09 267.44 146.77 260.92 151.99 254.4 158.02 248.21 164.77 242.38 171.89 236.53 179.57 231.01 187.67 225.81 195.88 220.57 204.35 215.62 212.97 210.97 221.46 206.2 229.98 201.69 238.48 197.4 246.7 192.95 254.85 188.67 262.93 184.58 270.69 180.25 278.41 176.05 286.12 171.97 293.54 167.63 301.01 163.39 308.59 159.27 315.94 154.88 323.47 150.63 331.22 146.53 338.82 142.23 346.71 138.13 354.9 134.31 363.02 130.39 371.5 126.82 380.37 123.68 389.21 120.59 398.47 118.04 408.19 116.1" stroke-dasharray="0 0" transform="rotate(14.107142857142858, 400, 400)" opacity="0.22"></path><path d="M416.02 127.4C425.51 125.7 435.17 124.7 445 124.42 454.84 124.43 464.83 125.18 474.93 126.65 485.02 128.43 495.17 130.93 505.3 134.09 515.34 137.53 525.26 141.6 534.93 146.23 544.36 151.07 553.39 156.41 561.85 162.2 569.86 168.1 577.11 174.39 583.44 180.99 589.11 187.63 593.68 194.54 597.06 201.67 599.7 208.76 601.13 216.04 601.35 223.47 601.06 230.82 599.81 238.31 597.79 245.92 595.85 253.43 593.68 261.06 591.61 268.79 590.5 276.42 590.17 284.18 590.94 292.06 593.49 299.85 597.62 307.78 603.46 315.84 611.27 323.85 620.68 332.01 631.45 340.33 643.39 348.61 655.86 357.07 668.23 365.71 680.14 374.33 690.72 383.14 699.28 392.13 705.66 401.12 709.09 410.31 709.22 419.68 706.49 429.06 700.66 438.4 692.22 447.69 682.04 456.97 670.39 466.19 658 475.3 645.72 484.41 633.92 493.39 623.13 502.2 613.94 510.98 606.42 519.56 600.66 527.9 597 536.15 595 544.12 594.43 551.74 595.45 559.24 597.3 566.34 599.57 572.99 603.82 582.44 609.48 598.39 609.49 604.73 607.15 610.14 594.74 617.68 585.07 619.93 577.61 621.21 569.33 622.05 560.39 622.51 551.06 623.11 541.28 623.46 531.23 623.66 520.99 624.21 510.63 624.74 500.25 625.34 489.83 626.49 479.47 627.82 469.27 629.37 459.07 631.58 449.04 634.05 439.23 636.77 429.43 640.11 419.84 643.64 410.48 647.26 401.12 651.31 392.18 655.18 383.65 658.75 375.08 662.41 366.88 665.55 359.02 668.08 351.09 670.4 343.44 671.92 336.06 672.61 328.55 672.87 321.23 672.2 314.08 670.6 306.73 668.49 299.46 665.46 292.25 661.55 284.77 657.15 277.29 651.94 269.76 646.01 261.94 639.7 254.06 632.76 246.11 625.3 237.91 617.59 229.68 609.45 221.48 600.99 213.14 592.4 204.94 583.57 196.96 574.56 189.08 565.53 181.58 556.39 174.57 547.17 167.91 538 161.91 528.78 156.67 519.56 151.95 510.41 148.07 501.24 145.08 492.1 142.62 483.02 141.01 473.94 140.21 464.88 139.74 455.87 139.9 446.86 140.61 437.87 141.27 428.9 142.23 419.92 143.38 410.96 144.1 402.01 144.8 393.06 145.41 384.13 145.38 375.2 145.22 366.49 144.96 358.02 144.19 349.55 143.5 341.32 142.98 333.35 142.28 325.38 142 317.67 142.24 310.24 142.68 302.82 143.85 295.69 145.81 288.86 148.23 282.04 151.53 275.52 155.68 269.32 160.37 263.12 165.88 257.22 172.11 251.64 178.76 246.03 186.01 240.72 193.74 235.71 201.67 230.63 209.92 225.81 218.39 221.25 226.83 216.58 235.37 212.12 243.94 207.86 252.32 203.44 260.68 199.17 268.98 195.07 277.03 190.74 285.04 186.53 293.02 182.44 300.75 178.1 308.5 173.87 316.3 169.76 323.91 165.41 331.62 161.19 339.5 157.14 347.23 152.91 355.19 148.9 363.39 145.15 371.52 141.33 379.95 137.85 388.71 134.8 397.44 131.79 406.53 129.3 416.01 127.4" stroke-dasharray="0 0" transform="rotate(16.928571428571427, 400, 400)" opacity="0.25"></path><path d="M422.23 138.7C431.43 137.03 440.73 136.03 450.09 135.7 459.45 135.64 468.87 136.28 478.28 137.61 487.65 139.23 496.96 141.53 506.13 144.46 515.17 147.65 523.97 151.45 532.39 155.79 540.56 160.34 548.22 165.39 555.23 170.87 561.81 176.48 567.6 182.48 572.47 188.8 576.78 195.17 580.08 201.82 582.32 208.7 584.02 215.57 584.71 222.64 584.44 229.87 583.92 237.05 582.73 244.37 581.07 251.82 579.73 259.19 578.4 266.67 577.4 274.27 577.45 281.78 578.36 289.41 580.4 297.14 584.1 304.8 589.23 312.59 595.87 320.49 604.2 328.34 613.84 336.33 624.53 344.45 636.11 352.54 647.97 360.77 659.56 369.16 670.59 377.52 680.29 386.05 688.07 394.73 693.84 403.41 696.9 412.24 696.96 421.23 694.45 430.21 689.12 439.14 681.38 447.97 672 456.81 661.2 465.54 649.57 474.15 637.91 482.74 626.5 491.17 615.83 499.42 606.47 507.63 598.46 515.62 591.97 523.34 587.32 530.99 584.19 538.33 582.41 545.32 582.19 552.19 582.87 558.66 584.15 564.7 587.27 573.27 592.49 587.64 593.21 593.34 592.21 598.22 583.65 605.12 576.2 607.26 570.31 608.53 563.55 609.43 556.07 610.01 548.18 610.75 539.74 611.3 530.9 611.71 521.82 612.47 512.49 613.23 503.02 614.04 493.45 615.36 483.84 616.84 474.25 618.51 464.65 620.77 455.12 623.24 445.71 625.92 436.31 629.15 427.04 632.53 417.93 635.96 408.82 639.78 400.07 643.42 391.65 646.77 383.2 650.21 375.05 653.18 367.18 655.59 359.24 657.82 351.53 659.34 344.02 660.1 336.39 660.49 328.89 660.04 321.5 658.74 313.93 657 306.41 654.39 298.91 650.97 291.18 647.11 283.42 642.49 275.63 637.17 267.6 631.48 259.53 625.19 251.44 618.36 243.18 611.28 234.94 603.77 226.79 595.9 218.61 587.88 210.62 579.59 202.93 571.1 195.41 562.55 188.32 553.85 181.78 545.05 175.62 536.26 170.14 527.41 165.43 518.52 161.23 509.68 157.85 500.81 155.33 491.95 153.29 483.14 152.04 474.32 151.56 465.54 151.34 456.78 151.71 448.04 152.57 439.32 153.35 430.63 154.39 421.94 155.57 413.29 156.34 404.65 157.05 396.03 157.66 387.44 157.65 378.86 157.49 370.51 157.22 362.41 156.43 354.31 155.69 346.45 155.09 338.86 154.28 331.26 153.83 323.93 153.85 316.87 154.02 309.81 154.86 303.03 156.42 296.54 158.4 290.04 161.2 283.83 164.82 277.92 168.95 271.98 173.89 266.34 179.56 260.98 185.67 255.57 192.4 250.44 199.66 245.57 207.19 240.62 215.1 235.91 223.3 231.43 231.56 226.82 239.98 222.41 248.5 218.18 256.92 213.77 265.36 209.52 273.79 205.4 282.03 201.08 290.25 196.87 298.44 192.77 306.43 188.45 314.42 184.23 322.42 180.14 330.26 175.84 338.17 171.68 346.17 167.69 354.06 163.54 362.1 159.62 370.32 155.96 378.48 152.24 386.87 148.87 395.51 145.9 404.12 142.98 413.02 140.56 422.22 138.7" stroke-dasharray="0 0" transform="rotate(19.75, 400, 400)" opacity="0.29"></path><path d="M426.19 150C435.05 148.36 443.91 147.36 452.73 146.99 461.54 146.87 470.29 147.41 478.93 148.6 487.51 150.06 495.92 152.16 504.06 154.86 512.07 157.81 519.73 161.34 526.93 165.39 533.87 169.65 540.24 174.39 545.93 179.55 551.25 184.86 555.78 190.54 559.45 196.55 562.69 202.63 565.04 209 566.48 215.6 567.58 222.22 567.89 229.05 567.49 236.04 567.06 243.01 566.22 250.13 565.16 257.37 564.59 264.56 564.24 271.87 564.35 279.29 565.56 286.65 567.66 294.11 570.85 301.67 575.54 309.18 581.52 316.79 588.78 324.51 597.44 332.18 607.15 339.97 617.64 347.87 628.76 355.74 639.96 363.74 650.75 371.85 660.91 379.95 669.76 388.18 676.79 396.53 681.98 404.88 684.7 413.35 684.71 421.94 682.4 430.52 677.54 439.02 670.46 447.4 661.87 455.77 651.89 464.02 641.05 472.11 630.05 480.19 619.1 488.09 608.67 495.78 599.25 503.42 590.92 510.83 583.86 517.96 578.38 525.02 574.26 531.76 571.39 538.15 569.74 547.39 571.5 563.59 573.44 570.44 575.87 581.37 570.57 592.58 564.99 594.68 560.47 595.98 555.09 596.96 548.97 597.67 542.46 598.57 535.34 599.3 527.72 599.92 519.86 600.88 511.63 601.84 503.15 602.85 494.54 604.33 485.77 605.93 476.91 607.69 468.01 609.98 459.08 612.45 450.17 615.07 441.26 618.19 432.38 621.41 423.57 624.66 414.76 628.26 406.21 631.67 397.92 634.8 389.61 638.03 381.52 640.82 373.64 643.1 365.7 645.25 357.92 646.75 350.27 647.55 342.52 648.06 334.86 647.8 327.26 646.76 319.51 645.34 311.77 643.12 304.04 640.15 296.13 636.79 288.19 632.71 280.23 627.97 272.11 622.89 263.97 617.21 255.86 611.01 247.67 604.57 239.55 597.68 231.59 590.42 223.68 583 216.03 575.28 208.73 567.33 201.67 559.31 195.09 551.1 189.08 542.77 183.48 534.42 178.57 525.98 174.41 517.49 170.74 509.01 167.86 500.49 165.8 491.97 164.17 483.48 163.27 474.98 163.07 466.5 163.1 458.04 163.64 449.6 164.62 441.19 165.5 432.8 166.59 424.43 167.8 416.1 168.59 407.77 169.31 399.49 169.92 391.25 169.92 383.01 169.77 375.02 169.49 367.27 168.71 359.52 167.94 352.02 167.28 344.78 166.39 337.53 165.81 330.54 165.64 323.82 165.57 317.08 166.09 310.62 167.28 304.43 168.83 298.22 171.14 292.28 174.23 286.61 177.79 280.92 182.14 275.48 187.2 270.31 192.71 265.08 198.87 260.09 205.58 255.35 212.6 250.51 220.06 245.88 227.86 241.46 235.8 236.91 243.97 232.53 252.29 228.31 260.6 223.93 268.99 219.68 277.4 215.57 285.71 211.25 294.02 207.05 302.32 202.96 310.47 198.67 318.61 194.48 326.76 190.43 334.77 186.19 342.82 182.09 350.91 178.18 358.92 174.12 367.01 170.3 375.23 166.74 383.39 163.13 391.7 159.86 400.19 156.98 408.65 154.17 417.32 151.82 426.18 150" stroke-dasharray="0 0" transform="rotate(22.57142857142857, 400, 400)" opacity="0.32"></path><path d="M427.49 161.3C435.96 159.7 444.32 158.7 452.54 158.29 460.75 158.12 468.79 158.56 476.62 159.62 484.39 160.92 491.87 162.82 499.02 165.3 506.02 168.01 512.6 171.27 518.67 175.03 524.51 178.99 529.75 183.42 534.32 188.26 538.59 193.24 542.13 198.6 544.9 204.29 547.37 210.05 549.09 216.11 550.09 222.41 550.92 228.74 551.17 235.29 550.95 242.02 550.87 248.73 550.6 255.61 550.32 262.62 550.64 269.59 551.32 276.69 552.55 283.89 554.86 291.05 558.05 298.31 562.25 305.67 567.77 312.98 574.4 320.39 582.1 327.89 590.93 335.36 600.56 342.92 610.73 350.58 621.32 358.21 631.81 365.95 641.79 373.77 651.09 381.59 659.12 389.51 665.44 397.51 670.09 405.52 672.5 413.61 672.45 421.79 670.35 429.96 665.92 438.02 659.48 445.94 651.64 453.85 642.47 461.61 632.41 469.2 622.1 476.76 611.69 484.13 601.58 491.27 592.24 498.38 583.74 505.23 576.28 511.79 570.15 518.29 565.18 524.48 561.34 530.32 558.05 538.75 556.73 553.47 557.52 559.67 557.63 574.89 546.3 584.12 539.26 585.52 534 586.56 528.09 587.47 521.64 588.29 514.96 589.44 507.83 590.58 500.35 591.76 492.74 593.37 484.86 595.09 476.79 596.92 468.67 599.23 460.4 601.67 452.05 604.23 443.7 607.23 435.28 610.29 426.82 613.36 418.37 616.74 410.08 619.93 401.96 622.85 393.82 625.87 385.83 628.49 377.97 630.64 370.06 632.68 362.25 634.14 354.52 634.98 346.7 635.57 338.93 635.46 331.19 634.66 323.33 633.52 315.48 631.65 307.61 629.1 299.63 626.19 291.63 622.62 283.64 618.42 275.55 613.91 267.5 608.84 259.51 603.25 251.52 597.42 243.67 591.15 236.03 584.51 228.52 577.7 221.32 570.57 214.52 563.19 208 555.72 201.99 548.05 196.57 540.22 191.57 532.36 187.24 524.38 183.65 516.32 180.53 508.26 178.15 500.15 176.52 492.01 175.28 483.89 174.71 475.74 174.77 467.61 175 459.5 175.69 451.39 176.77 443.31 177.71 435.25 178.83 427.21 180.05 419.22 180.85 411.23 181.57 403.29 182.18 395.4 182.19 387.51 182.05 379.86 181.78 372.45 181.01 365.05 180.24 357.88 179.55 350.97 178.6 344.05 177.92 337.37 177.59 330.95 177.31 324.52 177.56 318.34 178.4 312.41 179.55 306.46 181.4 300.76 183.96 295.32 186.96 289.83 190.7 284.57 195.14 279.56 200.01 274.48 205.53 269.62 211.62 264.97 218.05 260.22 224.96 255.67 232.25 251.29 239.74 246.79 247.52 242.44 255.5 238.24 263.55 233.89 271.73 229.65 279.99 225.54 288.21 221.25 296.47 217.07 304.73 213 312.91 208.75 321.09 204.61 329.26 200.61 337.35 196.44 345.45 192.43 353.55 188.6 361.6 184.66 369.68 180.94 377.82 177.49 385.93 174 394.11 170.84 402.39 168.06 410.65 165.34 419.02 163.07 427.48 161.31" stroke-dasharray="0 0" transform="rotate(25.392857142857146, 400, 400)" opacity="0.36"></path><path d="M426.02 172.6C434.03 171.04 441.85 170.04 449.45 169.61 457.03 169.38 464.36 169.73 471.39 170.66 478.35 171.81 484.97 173.53 491.18 175.78 497.27 178.26 502.89 181.25 507.98 184.72 515.05 190.44 525.81 204.17 529.41 212.02 531.42 217.46 532.84 223.18 533.7 229.15 534.56 235.17 535.03 241.41 535.23 247.83 535.7 254.26 536.16 260.86 536.77 267.59 538.03 274.31 539.74 281.16 542.04 288.11 545.35 295.03 549.49 302.06 554.53 309.17 560.7 316.25 567.8 323.43 575.76 330.68 584.61 337.9 594.03 345.21 603.77 352.6 613.75 359.96 623.51 367.41 632.67 374.93 641.14 382.44 648.38 390.03 654.03 397.67 658.17 405.32 660.28 413.03 660.19 420.78 658.28 428.54 654.27 436.16 648.43 443.61 641.31 451.06 632.92 458.34 623.65 465.43 614.04 472.49 604.22 479.35 594.52 485.97 585.39 492.55 576.87 498.87 569.16 504.91 562.54 510.89 556.9 516.56 552.25 521.89 547.48 529.59 543.12 543 542.63 548.65 541.72 562.83 532.95 571.96 527.34 573.55 520.69 575.29 504.18 578.8 494.61 580.78 487.96 582.5 480.98 584.3 473.7 586.19 466.37 588.5 458.81 590.91 451.07 593.39 443.31 596.26 435.4 599.17 427.36 602.06 419.32 605.22 411.35 608.2 403.46 610.92 395.55 613.73 387.71 616.17 379.94 618.19 372.13 620.13 364.37 621.54 356.63 622.39 348.85 623.04 341.06 623.06 333.29 622.45 325.44 621.55 317.59 620 309.73 617.82 301.81 615.33 293.9 612.22 286.02 608.53 278.12 604.56 270.29 600.05 262.59 595.05 254.95 589.83 247.49 584.16 240.3 578.12 233.3 571.92 226.64 565.4 220.42 558.6 214.51 551.71 209.13 544.59 204.35 537.3 199.97 529.96 196.25 522.48 193.22 514.9 190.63 507.3 188.72 499.63 187.51 491.92 186.62 484.21 186.35 476.46 186.63 468.72 187.04 460.98 187.85 453.24 189 445.53 189.99 437.82 191.12 430.14 192.33 422.5 193.12 414.86 193.84 407.26 194.43 399.72 194.46 392.18 194.34 384.88 194.08 377.81 193.35 370.73 192.59 363.89 191.88 357.28 190.91 350.67 190.15 344.29 189.7 338.15 189.25 329.03 191.28 311.93 194.06 303.92 196.51 298.62 199.65 293.52 203.45 288.64 207.67 283.7 212.52 278.94 217.94 274.38 223.71 269.72 229.98 265.22 236.67 260.89 243.6 256.44 250.86 252.13 258.37 247.95 266.01 243.62 273.83 239.41 281.77 235.32 289.75 231.07 297.8 226.92 305.88 222.89 313.93 218.7 322.01 214.62 330.07 210.69 338.1 206.61 346.12 202.69 354.13 198.96 362.1 195.14 370.08 191.54 378.06 188.2 386.02 184.84 394 181.8 401.99 179.12 409.98 176.51 417.99 174.32 426.01 172.61" stroke-dasharray="0 0" transform="rotate(28.214285714285715, 400, 400)" opacity="0.39"></path><path d="M421.91 183.91C429.43 182.39 436.69 181.4 443.66 180.94 450.61 180.66 457.25 180.93 463.53 181.73 472.68 183.5 488.72 189.92 495.45 194.47 501.46 199.73 510.53 212.45 513.63 219.78 516.16 227.56 519.45 244.49 520.69 253.54 521.86 259.65 523.13 265.93 524.66 272.36 526.86 278.78 529.53 285.33 532.8 292 536.98 298.64 541.9 305.39 547.6 312.22 554.25 319.04 561.64 325.94 569.68 332.91 578.39 339.86 587.48 346.88 596.72 353.97 606.04 361.04 615.04 368.18 623.39 375.36 631.05 382.54 637.54 389.78 642.56 397.05 646.23 404.32 648.07 411.64 647.94 418.97 646.2 426.3 642.58 433.47 637.31 440.47 630.88 447.46 623.25 454.26 614.76 460.86 605.87 467.44 596.68 473.81 587.47 479.93 578.64 486.02 570.23 491.85 562.42 497.39 555.49 502.89 549.36 508.08 544.05 512.96 538.02 520.01 530.81 532.29 528.99 537.47 525.98 550.84 518.33 560 513.75 561.8 508.31 563.76 494.44 567.72 486.18 569.91 480.42 571.71 474.26 573.58 467.75 575.5 461.2 577.79 454.34 580.15 447.22 582.55 440.08 585.29 432.71 588.05 425.13 590.76 417.55 593.71 409.95 596.48 402.36 599 394.76 601.61 387.16 603.88 379.56 605.76 371.95 607.59 364.33 608.94 356.71 609.79 349.06 610.47 341.39 610.59 333.72 610.14 326.02 609.46 318.31 608.19 310.61 606.33 302.91 604.22 295.24 601.53 287.63 598.31 280.07 594.84 272.62 590.86 265.33 586.42 258.17 581.77 251.23 576.7 244.61 571.25 238.2 565.65 232.18 559.72 226.61 553.51 221.36 547.2 216.64 540.66 212.5 533.92 208.75 527.12 205.63 520.17 203.16 513.1 201.07 506 199.61 498.8 198.78 491.55 198.22 484.29 198.2 476.98 198.67 469.65 199.22 462.32 200.12 454.98 201.31 447.66 202.32 440.34 203.45 433.03 204.63 425.75 205.41 418.49 206.11 411.25 206.69 404.06 206.73 396.88 206.63 389.91 206.4 383.17 205.71 376.42 204.98 369.89 204.28 363.58 203.3 357.26 202.51 351.16 201.96 345.28 201.29 336.54 202.43 320.07 204.55 312.34 206.48 307.2 209.04 302.25 212.23 297.49 215.79 292.66 219.96 288 224.68 283.52 229.75 278.94 235.32 274.51 241.33 270.22 247.6 265.83 254.24 261.55 261.17 257.41 268.26 253.12 275.58 248.95 283.07 244.9 290.64 240.7 298.32 236.6 306.06 232.63 313.83 228.51 321.64 224.51 329.46 220.66 337.27 216.69 345.08 212.88 352.86 209.26 360.63 205.57 368.39 202.1 376.1 198.89 383.82 195.66 391.5 192.74 399.14 190.18 406.78 187.67 414.38 185.56 421.9 183.91" stroke-dasharray="0 0" transform="rotate(31.035714285714285, 400, 400)" opacity="0.42"></path><path d="M415.58 195.21C422.58 193.74 429.28 192.76 435.65 192.28 445 192.06 461.8 194.38 469.13 196.9 475.92 200.15 487.07 209.09 491.41 214.67 495.23 220.8 500.92 234.82 503.09 242.58 504.65 247.9 506.14 253.44 507.63 259.17 509.55 264.94 511.66 270.88 514.09 276.96 517.15 283.05 520.7 289.28 524.79 295.62 529.68 301.95 535.21 308.39 541.38 314.9 548.31 321.41 555.8 328 563.77 334.65 572.22 341.3 580.88 348 589.54 354.76 598.16 361.51 606.38 368.31 613.94 375.14 620.82 381.97 626.59 388.83 631.02 395.72 634.25 402.6 635.84 409.5 635.68 416.4 634.11 423.3 630.86 430.03 626.13 436.58 620.35 443.11 613.46 449.46 605.72 455.59 597.57 461.71 589.03 467.6 580.38 473.26 571.94 478.88 563.76 484.25 556 489.35 548.92 494.4 542.46 499.17 536.68 503.64 529.62 510.12 519.87 521.42 516.74 526.22 510.9 538.99 503.08 548.28 499.15 550.27 494.56 552.42 482.73 556.79 475.56 559.13 470.55 561 465.13 562.91 459.33 564.84 453.47 567.1 447.28 569.4 440.77 571.72 434.25 574.32 427.44 576.92 420.36 579.46 413.28 582.21 406.11 584.77 398.89 587.1 391.66 589.51 384.39 591.61 377.07 593.35 369.75 595.06 362.39 596.35 355 597.17 347.62 597.88 340.2 598.07 332.78 597.76 325.37 597.25 317.96 596.22 310.59 594.65 303.25 592.87 295.96 590.57 288.79 587.77 281.7 584.76 274.76 581.28 268.02 577.36 261.44 573.25 255.14 568.74 249.16 563.86 243.42 558.84 238.09 553.5 233.21 547.88 228.65 542.15 224.6 536.18 221.12 530.01 217.99 523.77 215.44 517.36 213.5 510.81 211.87 504.23 210.82 497.54 210.33 490.77 210.05 483.99 210.25 477.14 210.88 470.25 211.54 463.37 212.5 456.45 213.7 449.54 214.7 442.62 215.81 435.71 216.95 428.82 217.71 421.93 218.38 415.07 218.95 408.24 219.01 401.42 218.93 394.79 218.73 388.37 218.08 381.95 217.4 375.72 216.73 369.7 215.37 360.75 213.52 343.81 213.4 335.81 213.92 327.95 217.92 313.07 221.53 306.02 224.45 301.31 227.94 296.75 231.97 292.34 236.32 287.84 241.16 283.48 246.44 279.25 251.99 274.92 257.92 270.7 264.17 266.6 270.62 262.37 277.32 258.26 284.22 254.26 291.24 250.13 298.41 246.1 305.68 242.2 313.01 238.18 320.4 234.28 327.82 230.53 335.27 226.69 342.72 223 350.15 219.5 357.59 215.95 365 212.62 372.35 209.54 379.71 206.46 387.01 203.67 394.22 201.21 401.44 198.82 408.57 196.8 415.57 195.21" stroke-dasharray="0 0" transform="rotate(33.857142857142854, 400, 400)" opacity="0.46"></path><path d="M407.68 206.51C417.22 204.61 434.63 203.34 442.42 203.97 449.79 205.31 462.5 210.45 467.81 214.18 472.68 218.53 480.59 229.24 483.79 235.48 486.93 242.15 492.96 256.86 496.26 264.79 498.93 270.18 501.84 275.75 505.07 281.46 508.9 287.2 513.16 293.07 517.92 299.04 523.34 305.03 529.28 311.12 535.73 317.28 542.76 323.45 550.21 329.7 557.96 336 566.03 342.3 574.17 348.66 582.2 355.06 590.1 361.45 597.54 367.89 604.31 374.34 610.44 380.8 615.55 387.28 619.43 393.76 622.25 400.25 623.61 406.73 623.42 413.2 622.01 419.66 619.11 425.95 614.88 432.05 609.72 438.15 603.53 444.05 596.53 449.73 589.11 455.4 581.26 460.86 573.2 466.07 565.24 471.27 557.4 476.22 549.82 480.9 542.74 485.56 536.12 489.95 530.03 494.06 522.21 500.04 510.32 510.5 506 514.99 496.91 527.33 487.93 536.79 484.29 538.96 480.19 541.29 469.77 545.98 463.45 548.45 456.63 551.33 441 557.55 432.28 560.88 426.34 563.35 420.08 565.79 413.52 568.15 406.96 570.71 400.27 573.07 393.49 575.21 386.71 577.44 379.84 579.36 372.9 580.97 365.98 582.56 358.99 583.76 351.98 584.56 344.98 585.26 337.95 585.51 330.93 585.31 323.94 584.95 316.97 584.11 310.06 582.8 303.22 581.32 296.47 579.35 289.85 576.94 283.36 574.35 277.04 571.32 270.95 567.88 265.05 564.27 259.44 560.29 254.17 555.96 249.16 551.5 244.54 546.72 240.37 541.66 236.5 536.51 233.12 531.11 230.27 525.5 227.73 519.82 225.72 513.96 224.25 507.95 223.05 501.91 222.36 495.73 222.17 489.47 222.13 483.18 222.5 476.81 223.24 470.39 223.97 463.96 224.96 457.5 226.15 451.01 227.14 444.52 228.2 438.02 229.29 431.53 230.01 425.04 230.66 418.55 231.2 412.1 231.28 405.64 231.23 399.36 231.06 393.26 230.16 384.2 227.92 366.96 226.89 358.78 225.94 350.74 225.74 335.47 226.76 328.21 228.57 321.04 235.14 307.35 239.91 300.8 243.55 296.4 247.66 292.11 252.19 287.95 256.99 283.69 262.17 279.54 267.68 275.5 273.4 271.36 279.39 267.32 285.61 263.39 291.98 259.36 298.51 255.43 305.18 251.62 311.94 247.71 318.79 243.93 325.68 240.3 332.63 236.59 339.59 233.05 346.54 229.69 353.53 226.29 360.48 223.1 367.37 220.17 374.28 217.23 381.11 214.58 387.84 212.24 394.58 209.96 401.2 208.04 407.67 206.51" stroke-dasharray="0 0" transform="rotate(36.67857142857143, 400, 400)" opacity="0.49"></path><path d="M399 217.81C410.88 215.21 421.5 214.34 430.79 215.14 440 216.52 447.83 219.59 454.32 224.16 460.85 229.27 466.28 235.79 470.88 243.47 476.1 251.52 481.2 260.59 486.69 270.45 493.81 280.49 502.16 291.2 512.06 302.36 524.08 313.59 537.63 325.21 552.17 337.05 567.42 348.92 582 360.98 594.52 373.1 604.64 385.23 610.52 397.41 611.16 409.47 607.61 421.54 599.2 432.88 587.2 443.41 573.51 453.91 558.6 463.53 543.79 472.19 530.37 480.77 518.42 488.36 508.26 494.89 500.42 501.38 494.05 506.87 488.69 511.38 482.89 517.95 470.23 528.22 461.36 532.7 454.93 536.41 447.01 540.06 437.66 543.64 428.2 548.18 417.38 552.65 405.32 556.85 393.26 561.71 380.63 565.7 367.68 568.61 354.82 571.52 341.73 572.94 328.68 572.8 315.86 572.18 303.25 569.83 291.22 565.83 279.72 561.24 269.13 555.07 259.86 547.54 251.51 539.55 244.8 530.4 240.01 520.35 236.24 510.04 234.34 499.02 234.29 487.53 234.64 475.95 236.21 464.02 238.67 451.93 240.31 439.84 241.99 427.64 243.46 415.48 243.2 403.32 242.57 391.76 241.76 380.85 239.84 369.9 238.48 359.55 238.03 349.82 237.67 339.97 238.91 330.66 241.86 321.9 245.67 312.91 251.38 304.37 258.77 296.3 267.08 287.9 276.83 279.88 287.62 272.31 299.03 264.39 311.14 256.89 323.6 249.97 336.34 242.81 349.2 236.34 361.87 230.77 374.64 225.23 387.11 220.82 398.99 217.81" stroke-dasharray="0 0" transform="rotate(39.5, 400, 400)" opacity="0.53"></path><path d="M390.42 229.11C401.28 226.62 411.03 225.72 419.64 226.34 428.21 227.48 435.67 230.16 442.1 234.23 448.68 238.78 454.52 244.63 459.9 251.58 465.97 258.88 472.19 267.16 478.95 276.19 487.15 285.42 496.48 295.3 507.07 305.64 519.27 316.07 532.53 326.88 546.3 337.91 560.36 348.98 573.5 360.24 584.54 371.54 593.39 382.85 598.45 394.18 598.91 405.38 595.78 416.57 588.37 427.08 577.7 436.8 565.41 446.49 551.75 455.37 537.84 463.36 524.81 471.3 512.76 478.35 502.06 484.46 493.23 490.57 485.67 495.82 479.12 500.22 473.95 504.78 469.07 508.67 464.04 511.95 459.56 515.67 454.35 519.03 448.15 522.09 442.02 525.87 434.68 529.54 426.1 533.08 417.46 537.44 407.6 541.66 396.58 545.55 385.55 550.01 373.98 553.64 362.13 556.28 350.37 558.95 338.44 560.3 326.62 560.25 315.07 559.85 303.84 557.9 293.26 554.48 283.23 550.57 274.15 545.23 266.38 538.63 259.43 531.63 254.02 523.53 250.35 514.54 247.51 505.31 246.3 495.36 246.67 484.89 247.26 474.34 248.88 463.38 251.24 452.2 252.77 441.01 254.34 429.65 255.72 418.25 255.52 406.86 255 395.97 254.32 385.63 252.56 375.26 251.25 365.39 250.68 356.06 250.04 346.62 250.75 337.64 252.93 329.14 255.74 320.45 260.24 312.15 266.28 304.28 273.11 296.14 281.32 288.36 290.6 281.01 300.45 273.38 311.08 266.18 322.15 259.55 333.53 252.74 345.11 246.6 356.59 241.34 368.19 236.12 379.55 231.97 390.41 229.11" stroke-dasharray="0 0" transform="rotate(42.32142857142857, 400, 400)" opacity="0.56"></path><path d="M382.81 240.41C392.7 238.04 401.71 237.11 409.81 237.59 417.93 238.5 425.22 240.81 431.78 244.39 438.56 248.4 444.93 253.61 451.11 259.84 457.99 266.39 465.19 273.87 472.96 282.07 481.94 290.47 491.87 299.5 502.76 308.97 514.8 318.56 527.5 328.52 540.3 338.7 553.06 348.93 564.75 359.35 574.39 369.79 582.05 380.26 586.35 390.74 586.65 401.07 583.92 411.41 577.44 421.09 568.03 430.05 557.12 438.98 544.75 447.17 531.87 454.56 519.48 461.92 507.64 468.49 496.75 474.24 487.28 480.03 478.86 485.07 471.34 489.38 465.05 493.88 459.17 497.8 453.38 501.19 448.2 504.99 442.6 508.46 436.35 511.64 430.25 515.44 423.24 519.09 415.25 522.55 407.24 526.7 398.21 530.66 388.18 534.25 378.15 538.32 367.68 541.61 357.01 543.98 346.43 546.41 335.78 547.66 325.33 547.68 315.16 547.43 305.39 545.82 296.33 542.9 287.78 539.6 280.2 535 273.87 529.25 268.24 523.16 264.01 516.04 261.33 508.06 259.26 499.87 258.61 490.95 259.3 481.5 260.04 471.95 261.64 461.97 263.85 451.71 265.25 441.43 266.69 430.92 267.97 420.31 267.83 409.71 267.44 399.5 266.9 389.75 265.33 379.97 264.13 370.6 263.53 361.69 262.72 352.69 263.03 344.07 264.58 335.88 266.56 327.52 270.01 319.51 274.83 311.89 280.28 304.05 287.03 296.56 294.82 289.49 303.13 282.2 312.25 275.33 321.89 269.04 331.81 262.61 342.04 256.83 352.3 251.88 362.67 247 372.91 243.11 382.81 240.41" stroke-dasharray="0 0" transform="rotate(45.14285714285714, 400, 400)" opacity="0.59"></path><path d="M376.94 251.71C385.93 249.46 394.31 248.54 402.03 248.87 409.8 249.57 417.03 251.54 423.82 254.66 430.86 258.15 437.74 262.74 444.64 268.27 452.16 274.09 460.09 280.77 468.56 288.14 477.97 295.69 488.13 303.86 498.94 312.46 510.52 321.16 522.4 330.25 534.08 339.55 545.49 348.91 555.75 358.45 564.05 368.03 570.61 377.63 574.23 387.24 574.39 396.72 572.02 406.21 566.41 415.1 558.2 423.32 548.61 431.54 537.56 439.09 525.83 445.92 514.28 452.75 502.91 458.9 492.15 464.33 482.42 469.82 473.47 474.68 465.29 478.91 458.12 483.34 451.4 487.27 444.92 490.74 439.03 494.58 432.97 498.11 426.54 501.35 420.32 505.11 413.48 508.7 405.93 512.05 398.39 515.97 390.07 519.66 380.98 522.95 371.89 526.65 362.51 529.6 353.05 531.71 343.68 533.9 334.36 535.04 325.34 535.09 316.56 534.96 308.26 533.63 300.71 531.14 293.59 528.35 287.42 524.41 282.42 519.43 277.96 514.17 274.76 507.95 272.91 500.92 271.49 493.71 271.25 485.79 272.14 477.32 272.95 468.76 274.47 459.74 276.5 450.39 277.75 441.03 279.04 431.38 280.23 421.58 280.15 411.77 279.87 402.26 279.48 393.12 278.14 383.96 277.09 375.12 276.52 366.66 275.65 358.14 275.7 349.93 276.77 342.08 278.09 334.11 280.66 326.44 284.44 319.13 288.68 311.66 294.1 304.5 300.52 297.76 307.34 290.86 315 284.37 323.24 278.44 331.72 272.41 340.6 267.02 349.64 262.4 358.78 257.87 367.94 254.24 376.94 251.71" stroke-dasharray="0 0" transform="rotate(47.96428571428571, 400, 400)" opacity="0.63"></path><path d="M373.4 263.02C381.57 260.9 389.38 259.98 396.8 260.18 404.27 260.7 411.48 262.35 418.48 265.04 425.72 268.04 433 272.03 440.41 276.89 448.35 281.99 456.7 287.89 465.5 294.44 474.99 301.15 485.02 308.44 495.42 316.16 506.26 323.98 517.13 332.17 527.58 340.58 537.62 349.04 546.48 357.69 553.54 366.39 559.08 375.11 562.09 383.86 562.14 392.5 560.1 401.14 555.28 409.26 548.2 416.79 539.88 424.32 530.15 431.27 519.64 437.59 509.07 443.93 498.43 449.68 488.09 454.82 478.44 460.03 469.32 464.71 460.8 468.86 453.06 473.19 445.74 477.1 438.74 480.6 432.25 484.42 425.77 487.96 419.16 491.21 412.76 494.89 406 498.36 398.79 501.58 391.63 505.25 383.92 508.65 375.7 511.65 367.48 514.98 359.16 517.61 350.89 519.48 342.7 521.42 334.69 522.44 327.06 522.51 319.63 522.45 312.74 521.34 306.59 519.22 298.35 515.19 287.44 502.01 285.08 493.16 284.14 486.86 284.19 479.88 285.16 472.35 285.97 464.75 287.36 456.67 289.17 448.23 290.26 439.77 291.4 430.99 292.49 421.99 292.46 413 292.3 404.21 292.06 395.71 290.97 387.19 290.1 378.92 289.63 370.96 288.8 362.95 288.7 355.19 289.45 347.76 290.29 340.22 292.17 332.95 295.09 326.02 298.32 318.95 302.59 312.2 307.78 305.84 313.28 299.36 319.59 293.29 326.52 287.75 333.64 282.17 341.24 277.17 349.13 272.9 357.09 268.72 365.22 265.37 373.4 263.02" stroke-dasharray="0 0" transform="rotate(50.78571428571429, 400, 400)" opacity="0.66"></path><path d="M372.55 274.32C379.96 272.35 387.25 271.44 394.37 271.53 401.55 271.89 408.68 273.25 415.78 275.53 423.09 278.07 430.56 281.5 438.23 285.71 446.29 290.13 454.72 295.28 463.49 301.02 472.72 306.91 482.28 313.34 491.98 320.17 501.88 327.1 511.6 334.39 520.75 341.9 529.43 349.46 536.96 357.22 542.86 365.04 547.47 372.88 549.92 380.76 549.88 388.58 548.15 396.4 544.06 403.76 538.02 410.62 530.91 417.49 522.48 423.86 513.22 429.7 503.76 435.56 494.03 440.93 484.37 445.79 475.12 450.72 466.17 455.21 457.64 459.25 449.67 463.45 442.06 467.29 434.76 470.78 427.89 474.53 421.13 478.01 414.4 481.21 407.87 484.76 401.18 488.09 394.29 491.13 387.45 494.53 380.3 497.64 372.88 500.35 365.46 503.32 358.12 505.64 350.99 507.28 343.91 508.98 337.12 509.87 330.78 509.93 321.78 509.45 307.54 503.77 302.76 498.65 299.3 492.48 297.26 476.31 298.34 466.63 299.08 459.93 300.29 452.76 301.86 445.21 302.78 437.64 303.76 429.72 304.74 421.55 304.77 413.38 304.72 405.34 304.64 397.5 303.78 389.66 303.14 382 302.81 374.58 302.09 367.13 301.97 359.88 302.52 352.91 303.05 345.86 304.44 339.05 306.69 332.55 309.12 325.96 312.45 319.65 316.62 313.73 320.99 307.73 326.12 302.11 331.89 297 337.79 291.87 344.23 287.28 351.06 283.38 357.94 279.56 365.13 276.49 372.55 274.32" stroke-dasharray="0 0" transform="rotate(53.60714285714286, 400, 400)" opacity="0.69"></path><path d="M374.48 285.62C381.18 283.8 387.95 282.92 394.73 282.93 401.56 283.14 408.49 284.24 415.52 286.15 422.71 288.26 430.12 291.16 437.73 294.76 445.62 298.53 453.8 302.95 462.19 307.91 470.84 313 479.66 318.59 488.43 324.56 497.22 330.61 505.69 337.01 513.53 343.63 520.88 350.29 527.16 357.15 531.99 364.1 535.77 371.07 537.73 378.1 537.62 385.1 536.17 392.1 532.75 398.73 527.67 404.94 521.7 411.16 514.52 416.96 506.52 422.33 498.24 427.73 489.56 432.72 480.79 437.29 472.2 441.93 463.73 446.2 455.52 450.1 447.67 454.13 440.08 457.86 432.77 461.26 425.77 464.89 418.93 468.26 412.23 471.35 405.7 474.72 399.16 477.86 392.6 480.69 386.1 483.81 379.49 486.63 372.81 489.04 366.13 491.68 359.7 493.7 353.59 495.11 344.66 496.97 329.26 496.98 323.17 495.03 318.03 492.17 311.86 482.54 310.86 475.95 310.6 468.62 312.74 451.2 314.56 441.36 315.3 434.66 316.13 427.6 317 420.26 317.07 412.92 317.12 405.64 317.18 398.51 316.58 391.37 316.16 384.36 316.01 377.54 315.47 370.69 315.4 364.01 315.89 357.56 316.25 351.07 317.32 344.78 319.11 338.77 320.95 332.7 323.57 326.9 326.92 321.45 330.37 315.96 334.54 310.84 339.32 306.18 344.19 301.52 349.61 297.37 355.51 293.84 361.43 290.38 367.77 287.6 374.48 285.62" stroke-dasharray="0 0" transform="rotate(56.42857142857143, 400, 400)" opacity="0.73"></path><path d="M378.99 296.92C385.02 295.27 391.24 294.43 397.58 294.36 403.97 294.45 410.56 295.31 417.29 296.88 424.14 298.61 431.22 301.02 438.47 304.04 445.88 307.2 453.5 310.94 461.21 315.16 469.04 319.49 476.89 324.26 484.57 329.39 492.15 334.59 499.34 340.11 505.88 345.86 511.96 351.64 517.08 357.62 520.96 363.71 524 369.81 525.53 376 525.37 382.2 524.17 388.4 521.35 394.31 517.16 399.88 512.24 405.45 506.24 410.7 499.48 415.6 492.42 420.53 484.89 425.13 477.14 429.38 469.44 433.7 461.7 437.72 454.09 441.42 446.68 445.24 439.42 448.79 432.39 452.05 425.56 455.49 418.9 458.7 412.42 461.63 406.06 464.77 399.79 467.67 393.64 470.28 387.53 473.1 381.46 475.62 375.48 477.74 366.7 480.91 351.12 484.55 344.51 484.87 334.09 482.47 324.97 472.26 324.3 466.64 324.11 460.37 325.8 445.34 327.25 436.76 327.82 430.9 328.49 424.69 329.26 418.18 329.36 411.67 329.51 405.18 329.7 398.78 329.33 392.37 329.14 386.05 329.18 379.88 328.85 373.69 328.92 367.63 329.42 361.76 330.21 353.01 334.66 336.58 338.45 329.03 342.92 321.78 354.91 309.28 362.29 304.28 367.38 301.19 372.96 298.71 378.99 296.92" stroke-dasharray="0 0" transform="rotate(59.25, 400, 400)" opacity="0.76"></path><path d="M385.63 308.22C396.35 305.38 408.15 305.34 420.52 307.74 433.16 310.62 446.64 315.82 460.2 322.79 473.81 330.07 486.85 338.91 497.78 348.68 507.12 358.56 512.72 369.19 513.11 380 510.42 390.81 502.85 400.76 492.07 409.56 480.13 418.46 466.63 426.4 452.99 433.21 439.71 440.4 426.69 446.75 414.5 452.02 402.65 457.92 391.23 462.9 380.64 466.44 370.04 470.5 361.14 472.47 354.2 472.4 344.94 471.14 337.3 457.37 338.29 445.49 338.55 436.9 339.7 426.73 341.51 415.38 341.25 404.03 341.47 392.62 342.27 381.66 341.81 370.68 342.82 360.07 345.56 350.37 348.01 340.61 352.64 331.74 359.37 324.38 366.09 317.09 374.9 311.48 385.63 308.22" stroke-dasharray="0 0" transform="rotate(62.07142857142857, 400, 400)" opacity="0.80"></path><path d="M393.72 319.52C403.1 317.01 413.54 316.85 424.52 318.73 435.62 320.95 447.3 325.12 458.77 330.81 470.08 336.72 480.62 344 489.19 352.15 496.47 360.37 500.71 369.34 500.85 378.59 498.78 387.83 492.83 396.48 484.23 404.26 474.62 412.12 463.44 419.26 451.85 425.48 440.32 431.97 428.78 437.74 417.9 442.53 407.2 447.76 397 452.11 387.75 455.14 374.74 459.34 357.59 458.88 353.63 454.08 351.4 450.2 350.77 444.56 351.58 437.44 351.53 430.25 352.29 421.66 353.77 411.98 353.67 402.3 354.15 392.47 355.23 382.98 355.26 373.47 356.49 364.27 359.09 355.84 361.32 347.4 365.32 339.75 371.09 333.41 376.77 327.16 384.33 322.34 393.72 319.52" stroke-dasharray="0 0" transform="rotate(64.89285714285714, 400, 400)" opacity="0.83"></path><path d="M402.44 330.82C410.43 328.67 419.3 328.43 428.55 329.85 437.82 331.49 447.41 334.73 456.61 339.23 465.56 343.89 473.69 349.7 480.1 356.3 485.55 362.96 488.63 370.31 488.6 378.01 487.05 385.71 482.55 393.03 475.93 399.72 468.53 406.48 459.7 412.7 450.32 418.19 440.83 423.87 431.15 428.93 421.9 433.14 412.72 437.63 403.97 441.32 396.1 443.84 377.9 446.95 364.82 437.21 364.77 429.08 364.44 423.2 364.86 416.14 366.03 408.11 366.06 400.09 366.73 391.88 367.99 383.92 368.46 375.96 369.92 368.23 372.45 361.15 374.62 354.09 378.17 347.7 383.15 342.41 388.02 337.21 394.46 333.2 402.44 330.82" stroke-dasharray="0 0" transform="rotate(67.71428571428571, 400, 400)" opacity="0.86"></path><path d="M410.92 342.13C417.44 340.35 424.57 340.08 431.88 341.09 439.17 342.25 446.54 344.66 453.43 348.07 460.1 351.59 466 356.04 470.5 361.17 475.43 369.23 473.63 387.43 467.17 395.94 461.79 401.5 455.21 406.7 448.07 411.33 440.77 416.07 433.16 420.32 425.77 423.84 418.39 427.53 411.27 430.53 404.85 432.54 389.85 434.84 378.33 426.98 377.81 420.54 377.27 415.91 377.41 410.31 378.28 403.93 378.4 397.54 379.18 390.98 380.52 384.6 381.31 378.23 382.92 372.03 385.34 366.36 387.48 360.71 390.67 355.61 394.91 351.39 399.06 347.25 404.4 344.04 410.92 342.13" stroke-dasharray="0 0" transform="rotate(70.53571428571429, 400, 400)" opacity="0.90"></path><path d="M418.29 353.43C428.24 350.79 439.43 352.5 449.02 357.32 457.96 362.33 463.95 370.16 464.08 379.43 462.15 388.68 454.67 397.65 444.82 404.85 434.45 412.31 422.93 418.33 413.1 421.24 400.03 424.17 389.5 412.67 390.54 399.59 390.43 390.06 392.92 380.02 397.5 371.52 401.34 363.12 408.34 356.39 418.29 353.43" stroke-dasharray="0 0" transform="rotate(73.35714285714286, 400, 400)" opacity="0.93"></path><path d="M423.81 364.73C437.24 361.24 451.2 368.98 451.83 381.37 448.89 393.74 433.35 406.22 420.03 409.93 406.71 414.28 400.17 407.88 402.8 395.26 402.24 382.63 410.37 368.81 423.81 364.73" stroke-dasharray="0 0" transform="rotate(76.17857142857143, 400, 400)" opacity="0.97"></path></g></svg>