<svg xmlns="http://www.w3.org/2000/svg" version="1.1" xmlns:xlink="http://www.w3.org/1999/xlink" xmlns:svgjs="http://svgjs.dev/svgjs" viewBox="0 0 800 800"><defs><linearGradient x1="50%" y1="0%" x2="50%" y2="100%" id="ccchaos-grad"><stop stop-color="hsl(205, 69%, 60%)" stop-opacity="1" offset="0%"></stop><stop stop-color="hsl(205, 69%, 80%)" stop-opacity="1" offset="100%"></stop></linearGradient></defs><g stroke-width="1.5" stroke="url(#ccchaos-grad)" fill="none" stroke-linecap="round"><path d="M372.97 54.5C383.73 54.78 394.3 56.2 404.67 58.68 415.04 61.63 425.24 65.48 435.28 70.09 445.39 74.86 455.4 80.18 465.37 85.9 475.5 91.48 485.7 97.27 496.03 103.2 506.65 108.75 517.54 114.34 528.75 119.94 540.39 125.08 552.45 130.25 564.96 135.45 577.92 140.26 591.33 145.18 605.11 150.27 619.18 155.11 633.44 160.22 647.68 165.65 661.77 170.98 675.46 176.72 688.42 182.89 700.57 189.09 711.47 195.79 720.77 202.97 728.6 210.24 734.4 218.03 737.95 226.28 739.72 234.65 739.19 243.48 736.42 252.72 732.3 262.06 726.46 271.78 719.28 281.81 711.98 291.92 704.36 302.31 696.99 312.92 691.08 323.57 686.47 334.4 683.61 345.38 683.36 356.37 685.31 367.47 689.49 378.64 696.18 389.82 704.33 400.8 713.36 411.57 723.36 422.35 733 432.94 741.65 443.33 749.47 453.77 755.27 464.06 758.71 474.21 760.21 484.47 758.98 494.67 755.1 504.84 749.17 515.18 740.89 525.58 730.62 536.05 718.98 546.78 706.03 557.66 692.18 568.69 677.95 580.02 663.47 591.51 649.08 603.13 635.09 614.98 621.58 626.87 608.7 638.7 596.62 650.53 585.25 662.1 574.58 673.22 564.73 683.98 555.45 694.01 546.64 703.07 538.45 711.36 530.51 718.41 522.69 724.02 515.24 728.58 507.7 731.56 499.97 732.93 492.41 733.28 484.51 732.17 476.21 729.7 467.96 726.73 459.23 722.88 450.02 718.43 440.79 714.32 431.05 710.24 420.81 706.49 410.55 703.94 399.81 702.23 388.61 701.49 377.42 702.38 366.07 704.24 354.63 706.92 343.24 710.78 331.8 714.94 320.39 719.1 309.06 723.57 297.81 727.41 286.72 730.34 275.77 732.74 265.02 733.77 254.56 733.31 244.29 731.83 234.36 728.72 224.84 724.04 215.56 718.3 206.72 711.14 198.4 702.75 190.3 693.59 182.73 683.49 175.71 672.67 168.86 661.5 162.53 649.91 156.71 638.07 150.95 626.24 145.63 614.37 140.71 602.55 135.7 590.97 131 579.52 126.58 568.24 121.92 557.26 117.45 546.44 113.17 535.76 108.57 525.34 104.11 515 99.84 504.7 95.25 494.58 90.88 484.42 86.78 474.2 82.49 464.08 78.55 453.82 75.05 443.4 71.52 433.03 68.53 422.46 66.16 411.69 63.94 400.93 62.43 389.95 61.7 378.77 61.24 367.6 61.63 356.49 62.84 345.49 64.35 334.5 66.66 323.65 69.73 312.98 73.02 302.35 77 291.94 81.59 281.8 86.26 271.74 91.44 262 97.04 252.62 102.55 243.36 108.37 234.5 114.43 226.09 120.23 217.81 126.21 210 132.31 202.7 138.07 195.5 143.95 188.79 149.94 182.58 155.6 176.39 161.43 170.65 167.44 165.33 173.21 159.92 179.25 154.82 185.58 150.01 191.8 144.96 198.39 140.07 205.36 135.31 212.33 130.15 219.73 125.04 227.55 119.95 235.44 114.4 243.77 108.86 252.49 103.36 261.31 97.47 270.52 91.71 280.05 86.16 289.67 80.45 299.59 75.14 309.75 70.35 319.96 65.72 330.37 61.84 340.93 58.85 351.5 56.31 362.2 54.83 372.96 54.5" stroke-dasharray="0 0" transform="rotate(0, 400, 400)" opacity="0.05"></path><path d="M372.54 65.66C382.91 65.92 393.19 67.29 403.35 69.68 413.53 72.53 423.63 76.25 433.66 80.72 443.77 85.37 453.88 90.57 464.02 96.19 474.33 101.7 484.78 107.45 495.41 113.36 506.31 118.93 517.5 124.57 529.01 130.22 540.87 135.46 553.12 140.71 565.73 145.99 578.68 150.88 591.95 155.86 605.44 160.97 619.06 165.8 632.69 170.86 646.13 176.18 659.28 181.36 671.85 186.9 683.56 192.82 694.39 198.71 703.91 205.05 711.81 211.82 718.31 218.65 722.86 225.94 725.31 233.69 726.18 241.51 724.98 249.78 721.79 258.44 717.49 267.19 711.74 276.32 704.88 285.77 698.05 295.28 691.04 305.1 684.35 315.16 679.09 325.25 675.06 335.56 672.65 346.05 672.65 356.55 674.65 367.21 678.66 377.99 684.98 388.77 692.63 399.42 701.1 409.92 710.51 420.44 719.64 430.82 727.91 441.08 735.54 451.38 741.38 461.59 745.12 471.73 747.15 481.97 746.69 492.2 743.78 502.43 738.98 512.84 731.93 523.31 722.92 533.87 712.54 544.65 700.76 555.56 687.97 566.59 674.63 577.85 660.85 589.22 646.97 600.64 633.27 612.2 619.85 623.71 606.88 635.06 594.51 646.32 582.73 657.22 571.57 667.6 561.1 677.56 551.19 686.72 541.74 694.9 532.88 702.31 524.33 708.5 515.98 713.31 508.01 717.16 500.07 719.54 492.04 720.43 484.22 720.44 476.18 719.13 467.87 716.62 459.62 713.72 451.01 710.06 442.02 705.88 433.03 702.08 423.61 698.32 413.77 694.88 403.92 692.57 393.66 691.01 383 690.34 372.34 691.16 361.57 692.86 350.74 695.29 339.95 698.84 329.15 702.68 318.41 706.53 307.75 710.74 297.19 714.4 286.81 717.27 276.56 719.72 266.53 720.96 256.81 720.85 247.25 719.86 238.05 717.36 229.26 713.4 220.66 708.47 212.5 702.17 204.84 694.65 197.36 686.38 190.37 677.13 183.89 667.11 177.54 656.68 171.66 645.74 166.24 634.45 160.83 623.09 155.81 611.58 151.15 600.04 146.35 588.64 141.82 577.3 137.54 566.08 132.99 555.09 128.6 544.22 124.38 533.49 119.82 522.97 115.4 512.55 111.13 502.19 106.56 492 102.19 481.81 98.07 471.6 93.76 461.49 89.79 451.31 86.24 441.03 82.66 430.8 79.62 420.43 77.18 409.93 74.9 399.44 73.32 388.8 72.52 378.01 72.02 367.23 72.35 356.57 73.51 346.06 74.99 335.56 77.26 325.23 80.29 315.12 83.57 305.04 87.52 295.21 92.07 285.67 96.73 276.2 101.89 267.04 107.47 258.27 112.97 249.58 118.78 241.29 124.82 233.44 130.63 225.67 136.61 218.36 142.71 211.51 148.48 204.72 154.36 198.38 160.33 192.48 165.97 186.57 171.75 181.03 177.68 175.87 183.35 170.56 189.24 165.53 195.38 160.73 201.37 155.66 207.67 150.72 214.31 145.87 220.9 140.65 227.88 135.45 235.25 130.26 242.64 124.66 250.43 119.07 258.61 113.54 266.84 107.67 275.45 101.95 284.4 96.46 293.41 90.85 302.73 85.65 312.31 80.98 321.93 76.49 331.79 72.73 341.84 69.84 351.91 67.4 362.15 65.98 372.53 65.66" stroke-dasharray="0 0" transform="rotate(2.821428571428571, 400, 400)" opacity="0.08"></path><path d="M373.67 76.81C383.71 77.06 393.73 78.37 403.71 80.67 413.71 83.41 423.72 87 433.74 91.33 443.84 95.85 454.01 100.92 464.29 106.42 474.72 111.85 485.34 117.54 496.17 123.4 507.23 128.98 518.58 134.65 530.23 140.34 542.15 145.65 554.39 150.99 566.91 156.34 579.64 161.32 592.56 166.38 605.56 171.52 618.55 176.39 631.4 181.43 643.89 186.69 655.98 191.78 667.36 197.17 677.78 202.89 687.29 208.54 695.45 214.58 702.02 221.02 707.28 227.47 710.7 234.35 712.18 241.64 712.29 248.98 710.54 256.74 707.05 264.89 702.68 273.1 697.08 281.68 690.59 290.59 684.27 299.55 677.86 308.83 671.83 318.37 667.19 327.94 663.71 337.75 661.72 347.78 661.95 357.81 663.99 368.05 667.84 378.45 673.8 388.85 680.97 399.18 688.89 409.42 697.72 419.68 706.33 429.86 714.22 439.97 721.61 450.13 727.43 460.25 731.39 470.35 733.87 480.53 734.09 490.75 732.06 500.99 728.3 511.38 722.41 521.86 714.62 532.41 705.49 543.14 694.91 553.98 683.22 564.9 670.88 575.97 657.94 587.1 644.71 598.2 631.49 609.36 618.35 620.38 605.49 631.16 593.06 641.77 581.07 651.95 569.58 661.53 558.68 670.65 548.27 678.95 538.31 686.25 528.88 692.82 519.78 698.19 510.94 702.27 502.48 705.46 494.12 707.3 485.78 707.78 477.66 707.51 469.43 706.06 461.03 703.54 452.73 700.74 444.17 697.28 435.32 693.38 426.5 689.88 417.34 686.44 407.85 683.29 398.35 681.21 388.51 679.8 378.35 679.18 368.19 679.94 357.97 681.49 347.75 683.69 337.55 686.94 327.38 690.46 317.31 694.01 307.3 697.94 297.43 701.41 287.76 704.2 278.19 706.67 268.88 708.05 259.88 708.24 251.02 707.67 242.51 705.72 234.41 702.42 226.47 698.24 218.96 692.75 211.91 686.09 205.01 678.69 198.55 670.3 192.57 661.11 186.66 651.46 181.18 641.24 176.1 630.59 171 619.79 166.23 608.75 161.77 597.6 157.15 586.5 152.75 575.4 148.56 564.35 144.09 553.46 139.75 542.65 135.56 531.95 131.03 521.44 126.62 511 122.35 500.65 117.78 490.44 113.4 480.26 109.26 470.11 104.94 460.04 100.94 449.95 97.35 439.82 93.75 429.73 90.66 419.56 88.16 409.32 85.84 399.09 84.21 388.77 83.35 378.37 82.79 367.96 83.08 357.73 84.18 347.69 85.61 337.65 87.84 327.82 90.81 318.24 94.05 308.68 97.95 299.39 102.46 290.41 107.09 281.47 112.21 272.87 117.74 264.64 123.23 256.48 129.02 248.7 135.05 241.34 140.87 234.03 146.85 227.14 152.96 220.68 158.76 214.24 164.65 208.19 170.63 202.54 176.28 196.83 182.05 191.46 187.93 186.39 193.55 181.15 199.35 176.14 205.35 171.31 211.17 166.2 217.26 161.2 223.64 156.27 229.94 150.96 236.57 145.68 243.56 140.42 250.53 134.77 257.87 129.15 265.58 123.61 273.3 117.78 281.39 112.11 289.82 106.7 298.28 101.21 307.06 96.13 316.14 91.6 325.23 87.25 334.59 83.62 344.19 80.84 353.79 78.49 363.63 77.12 373.66 76.81" stroke-dasharray="0 0" transform="rotate(5.642857142857142, 400, 400)" opacity="0.12"></path><path d="M376.31 87.97C386.05 88.2 395.82 89.46 405.64 91.66 415.48 94.29 425.39 97.75 435.37 101.92 445.43 106.3 455.63 111.23 465.97 116.6 476.44 121.92 487.13 127.53 498.03 133.34 509.13 138.9 520.49 144.57 532.1 150.29 543.91 155.67 555.96 161.07 568.18 166.5 580.51 171.57 592.91 176.7 605.24 181.9 617.45 186.82 629.37 191.88 640.81 197.11 651.76 202.15 661.91 207.45 671.03 213.02 679.24 218.5 686.11 224.31 691.44 230.47 695.56 236.61 697.98 243.14 698.62 250.05 698.09 256.97 695.92 264.29 692.24 271.98 687.9 279.71 682.52 287.8 676.44 296.22 670.63 304.68 664.83 313.45 659.45 322.52 655.4 331.6 652.43 340.95 650.83 350.54 651.26 360.13 653.33 369.96 657.01 380 662.63 390.04 669.33 400.06 676.72 410.04 684.98 420.03 693.08 430.01 700.57 439.95 707.69 449.95 713.45 459.95 717.56 469.95 720.4 480.04 721.21 490.18 719.96 500.37 717.16 510.67 712.35 521.06 705.73 531.51 697.81 542.1 688.43 552.75 677.88 563.44 666.6 574.22 654.6 584.99 642.16 595.67 629.57 606.32 616.9 616.77 604.33 626.89 592.03 636.79 580.03 646.2 568.42 654.96 557.27 663.24 546.52 670.68 536.19 677.14 526.32 682.89 516.78 687.51 507.52 690.9 498.62 693.51 489.88 694.87 481.24 695 472.82 694.51 464.38 692.96 455.87 690.47 447.47 687.79 438.91 684.54 430.16 680.93 421.44 677.73 412.49 674.59 403.29 671.73 394.1 669.86 384.64 668.59 374.95 668.03 365.25 668.73 355.55 670.12 345.89 672.11 336.26 675.07 326.7 678.29 317.27 681.55 307.89 685.2 298.68 688.46 289.7 691.13 280.8 693.58 272.17 695.08 263.86 695.5 255.66 695.29 247.82 693.83 240.37 691.12 233.04 687.62 226.12 682.9 219.63 677.05 213.24 670.5 207.26 662.97 201.71 654.61 196.19 645.78 191.04 636.32 186.26 626.38 181.4 616.21 176.84 605.74 172.54 595.08 168.04 584.4 163.74 573.63 159.61 562.86 155.19 552.19 150.88 541.56 146.69 531 142.17 520.58 137.76 510.22 133.48 499.95 128.91 489.79 124.52 479.68 120.35 469.62 116.02 459.64 112.01 449.67 108.39 439.7 104.77 429.77 101.65 419.81 99.12 409.83 96.76 399.86 95.08 389.85 94.17 379.81 93.57 369.78 93.8 359.95 94.84 350.35 96.22 340.75 98.39 331.39 101.29 322.3 104.47 313.22 108.31 304.43 112.75 295.96 117.32 287.52 122.39 279.42 127.87 271.68 133.32 263.97 139.08 256.64 145.09 249.7 150.92 242.79 156.91 236.25 163.02 230.11 168.85 223.95 174.77 218.14 180.77 212.68 186.46 207.12 192.24 201.84 198.12 196.83 203.72 191.62 209.47 186.6 215.39 181.73 221.11 176.56 227.05 171.48 233.25 166.46 239.32 161.08 245.69 155.73 252.38 150.4 259.01 144.73 265.98 139.1 273.29 133.57 280.59 127.79 288.24 122.2 296.23 116.89 304.21 111.53 312.53 106.59 321.16 102.19 329.78 97.99 338.7 94.5 347.91 91.82 357.1 89.57 366.57 88.26 376.31 87.97" stroke-dasharray="0 0" transform="rotate(8.464285714285714, 400, 400)" opacity="0.15"></path><path d="M380.31 99.12C389.76 99.34 399.31 100.54 408.95 102.65 418.62 105.16 428.41 108.48 438.32 112.49 448.3 116.72 458.45 121.5 468.76 126.72 479.19 131.93 489.83 137.44 500.68 143.16 511.67 148.69 522.89 154.34 534.29 160.07 545.82 165.49 557.5 170.95 569.25 176.44 581.01 181.59 592.72 186.8 604.24 192.06 615.54 197.04 626.45 202.14 636.76 207.38 646.53 212.41 655.44 217.66 663.29 223.13 670.25 228.48 675.91 234.13 680.1 240.08 683.2 245.98 684.74 252.22 684.69 258.81 683.65 265.38 681.18 272.32 677.41 279.62 673.16 286.92 668.07 294.58 662.43 302.57 657.15 310.57 651.96 318.89 647.19 327.52 643.7 336.15 641.22 345.06 639.97 354.25 640.59 363.43 642.66 372.87 646.19 382.56 651.47 392.25 657.72 401.96 664.59 411.67 672.31 421.4 679.9 431.15 686.97 440.91 693.8 450.71 699.44 460.54 703.64 470.41 706.76 480.35 708.06 490.34 707.51 500.39 705.56 510.53 701.75 520.74 696.22 530.99 689.47 541.32 681.27 551.69 671.88 562.04 661.71 572.43 650.72 582.74 639.17 592.89 627.35 602.96 615.29 612.76 603.2 622.17 591.22 631.32 579.41 639.92 567.85 647.85 556.63 655.29 545.74 661.9 535.2 667.55 525.03 672.54 515.17 676.45 505.61 679.23 496.36 681.32 487.3 682.27 478.4 682.12 469.71 681.45 461.07 679.85 452.44 677.43 443.93 674.89 435.34 671.87 426.66 668.53 418.03 665.62 409.24 662.78 400.29 660.19 391.36 658.52 382.25 657.39 372.97 656.87 363.69 657.51 354.47 658.77 345.35 660.55 336.25 663.24 327.26 666.16 318.44 669.13 309.66 672.51 301.08 675.55 292.74 678.08 284.47 680.48 276.48 682.04 268.81 682.65 261.22 682.73 253.98 681.69 247.13 679.52 240.35 676.64 233.96 672.62 227.97 667.54 222.02 661.8 216.46 655.11 211.28 647.58 206.08 639.58 201.22 630.91 196.67 621.72 192 612.26 187.59 602.43 183.4 592.33 178.99 582.17 174.75 571.85 170.65 561.46 166.25 551.12 161.95 540.76 157.75 530.44 153.22 520.21 148.8 510.02 144.5 499.91 139.92 489.88 135.52 479.91 131.34 470 127.01 460.15 122.99 450.34 119.36 440.56 115.73 430.82 112.6 421.09 110.04 411.37 107.66 401.67 105.95 391.97 104.99 382.28 104.35 372.6 104.53 363.16 105.5 353.97 106.82 344.78 108.91 335.86 111.73 327.22 114.83 318.59 118.59 310.25 122.94 302.24 127.44 294.24 132.44 286.58 137.85 279.26 143.25 271.96 148.97 265.01 154.94 258.43 160.75 251.84 166.74 245.6 172.86 239.71 178.73 233.77 184.68 228.13 190.71 222.8 196.45 217.34 202.26 212.13 208.16 207.13 213.78 201.92 219.53 196.86 225.41 191.93 231.07 186.7 236.93 181.54 243 176.44 248.92 171 255.11 165.59 261.57 160.21 267.94 154.53 274.62 148.91 281.62 143.42 288.58 137.71 295.87 132.22 303.48 127.02 311.07 121.8 319 117.01 327.24 112.77 335.46 108.72 344.01 105.37 352.86 102.81 361.7 100.65 370.85 99.4 380.3 99.12" stroke-dasharray="0 0" transform="rotate(11.285714285714285, 400, 400)" opacity="0.19"></path><path d="M385.43 110.28C394.62 110.49 403.95 111.63 413.4 113.63 422.88 116.03 432.51 119.2 442.29 123.05 452.13 127.12 462.15 131.73 472.34 136.79 482.62 141.86 493.1 147.25 503.75 152.88 514.49 158.35 525.41 163.96 536.45 169.67 547.54 175.11 558.69 180.6 569.81 186.14 580.87 191.36 591.76 196.64 602.36 201.97 612.67 207.02 622.49 212.17 631.65 217.44 640.23 222.49 647.92 227.71 654.55 233.13 660.34 238.41 664.89 243.94 668.05 249.73 670.27 255.44 671.07 261.46 670.45 267.79 669.02 274.08 666.36 280.71 662.6 287.67 658.52 294.61 653.76 301.89 648.59 309.5 643.84 317.1 639.23 325.02 635.07 333.24 632.1 341.47 630.07 349.99 629.15 358.79 629.92 367.58 632 376.66 635.37 386.01 640.33 395.35 646.14 404.75 652.52 414.19 659.69 423.64 666.78 433.13 673.44 442.67 679.95 452.24 685.43 461.86 689.65 471.53 692.97 481.25 694.69 491.03 694.72 500.86 693.54 510.75 690.64 520.68 686.13 530.63 680.48 540.63 673.42 550.61 665.17 560.53 656.13 570.42 646.2 580.19 635.62 589.74 624.67 599.16 613.36 608.25 601.88 616.91 590.4 625.28 578.94 633.07 567.63 640.17 556.53 646.8 545.67 652.61 535.08 657.49 524.78 661.78 514.76 665.06 505 667.29 495.52 668.92 486.24 669.53 477.14 669.15 468.24 668.35 459.45 666.74 450.73 664.41 442.12 662.04 433.51 659.24 424.89 656.19 416.31 653.56 407.67 651 398.95 648.67 390.24 647.19 381.43 646.18 372.53 645.72 363.64 646.3 354.86 647.43 346.23 649.02 337.61 651.44 329.16 654.08 320.9 656.77 312.67 659.87 304.66 662.68 296.92 665.06 289.23 667.37 281.82 668.96 274.73 669.71 267.7 670.03 261 669.34 254.66 667.63 248.37 665.31 242.43 661.94 236.87 657.57 231.31 652.59 226.09 646.7 221.22 639.99 216.28 632.81 211.63 624.95 207.25 616.53 202.73 607.82 198.42 598.68 194.3 589.23 189.95 579.66 185.73 569.87 181.63 559.96 177.23 550.04 172.92 540.06 168.69 530.07 164.16 520.13 159.71 510.21 155.39 500.34 150.82 490.53 146.41 480.76 142.22 471.06 137.9 461.41 133.88 451.8 130.25 442.25 126.63 432.73 123.5 423.24 120.93 413.81 118.54 404.38 116.82 394.99 115.82 385.65 115.14 376.31 115.26 367.23 116.16 358.43 117.41 349.63 119.42 341.11 122.14 332.88 125.15 324.66 128.81 316.73 133.05 309.12 137.46 301.51 142.36 294.23 147.67 287.28 153 280.32 158.66 273.69 164.58 267.4 170.37 261.08 176.35 255.07 182.46 249.36 188.35 243.59 194.33 238.08 200.39 232.82 206.18 227.43 212.04 222.23 217.98 217.22 223.64 211.99 229.41 206.88 235.3 201.87 240.95 196.59 246.77 191.36 252.77 186.18 258.61 180.69 264.67 175.24 270.97 169.85 277.16 164.18 283.63 158.59 290.39 153.15 297.08 147.55 304.08 142.17 311.4 137.1 318.67 132.04 326.27 127.41 334.19 123.32 342.08 119.44 350.3 116.24 358.84 113.79 367.37 111.74 376.23 110.54 385.42 110.28" stroke-dasharray="0 0" transform="rotate(14.107142857142858, 400, 400)" opacity="0.22"></path><path d="M391.38 121.43C400.32 121.63 409.42 122.71 418.65 124.61 427.92 126.9 437.35 129.92 446.93 133.59 456.56 137.49 466.36 141.93 476.32 146.81 486.35 151.74 496.54 156.99 506.86 162.49 517.23 167.88 527.71 173.43 538.24 179.09 548.75 184.53 559.25 190.03 569.62 195.59 579.85 200.88 589.83 206.21 599.44 211.6 608.7 216.72 617.41 221.92 625.41 227.23 632.83 232.31 639.36 237.54 644.84 242.94 649.56 248.18 653.1 253.63 655.37 259.31 656.83 264.89 657.02 270.74 655.96 276.87 654.26 282.94 651.51 289.31 647.84 295.99 643.99 302.63 639.6 309.59 634.91 316.86 630.7 324.11 626.66 331.68 623.06 339.54 620.6 347.39 618.97 355.55 618.36 363.99 619.27 372.43 621.34 381.15 624.54 390.16 629.19 399.17 634.59 408.25 640.48 417.39 647.14 426.54 653.73 435.76 659.97 445.03 666.13 454.33 671.42 463.69 675.61 473.09 679.07 482.53 681.1 492.03 681.64 501.55 681.11 511.11 679.03 520.69 675.45 530.25 670.83 539.81 664.86 549.32 657.72 558.72 649.8 568.06 640.95 577.21 631.39 586.1 621.39 594.82 610.94 603.17 600.2 611.05 589.35 618.63 578.41 625.62 567.5 631.91 556.7 637.76 546.04 642.82 535.57 646.99 525.31 650.63 515.27 653.34 505.46 655.09 495.87 656.34 486.49 656.67 477.29 656.11 468.27 655.24 459.38 653.64 450.61 651.44 441.95 649.23 433.34 646.68 424.78 643.9 416.28 641.55 407.77 639.26 399.25 637.18 390.75 635.87 382.22 634.98 373.67 634.56 365.12 635.1 356.74 636.1 348.56 637.51 340.38 639.68 332.41 642.05 324.66 644.46 316.93 647.28 309.45 649.87 302.24 652.08 295.05 654.28 288.16 655.85 281.58 656.69 275.03 657.19 268.8 656.8 262.91 655.49 257.04 653.66 251.49 650.86 246.27 647.14 241.02 642.88 236.08 637.75 231.44 631.82 226.7 625.45 222.21 618.39 217.96 610.75 213.53 602.81 209.28 594.41 205.19 585.65 200.86 576.73 196.64 567.55 192.52 558.19 188.1 548.78 183.76 539.27 179.5 529.7 174.95 520.14 170.49 510.56 166.15 501.01 161.58 491.5 157.17 482.01 152.99 472.58 148.69 463.19 144.69 453.84 141.07 444.56 137.48 435.3 134.36 426.09 131.79 416.95 129.41 407.82 127.67 398.75 126.64 389.74 125.93 380.74 126 372.02 126.83 363.58 128 355.14 129.91 346.99 132.52 339.13 135.43 331.27 138.97 323.7 143.08 316.45 147.37 309.18 152.15 302.22 157.35 295.58 162.59 288.91 168.17 282.54 174 276.48 179.75 270.37 185.7 264.53 191.79 258.96 197.68 253.3 203.69 247.87 209.77 242.66 215.61 237.3 221.52 232.1 227.5 227.05 233.22 221.79 239.04 216.62 244.95 211.55 250.63 206.21 256.45 200.92 262.43 195.68 268.22 190.16 274.21 184.7 280.41 179.3 286.49 173.67 292.81 168.15 299.39 162.79 305.89 157.3 312.68 152.05 319.75 147.13 326.78 142.24 334.11 137.79 341.76 133.87 349.38 130.16 357.32 127.1 365.59 124.77 373.84 122.82 382.43 121.68 391.37 121.43" stroke-dasharray="0 0" transform="rotate(16.928571428571427, 400, 400)" opacity="0.25"></path><path d="M397.82 132.59C406.51 132.77 415.36 133.79 424.35 135.59 433.36 137.76 442.53 140.62 451.84 144.13 461.19 147.85 470.7 152.1 480.33 156.8 490 161.55 499.79 166.65 509.66 172.01 519.54 177.28 529.46 182.74 539.35 188.34 549.18 193.74 558.91 199.23 568.43 204.79 577.77 210.11 586.78 215.48 595.35 220.91 603.55 226.09 611.15 231.35 618.02 236.69 624.34 241.82 629.77 247.07 634.21 252.46 639.29 260.39 642.82 277.06 641.3 285.89 639.44 291.79 636.69 297.96 633.18 304.4 629.61 310.8 625.62 317.49 621.43 324.47 617.74 331.42 614.25 338.67 611.19 346.21 609.18 353.73 607.94 361.55 607.59 369.65 608.63 377.75 610.67 386.14 613.72 394.81 618.06 403.48 623.06 412.24 628.5 421.06 634.64 429.9 640.75 438.8 646.56 447.77 652.38 456.75 657.44 465.79 661.55 474.87 665.07 483.97 667.34 493.11 668.29 502.25 668.33 511.41 666.96 520.55 664.22 529.64 660.54 538.7 655.6 547.67 649.52 556.47 642.68 565.19 634.92 573.68 626.39 581.86 617.4 589.85 607.87 597.44 597.97 604.55 587.87 611.34 577.58 617.55 567.22 623.08 556.88 628.19 546.58 632.54 536.39 636.07 526.33 639.13 516.43 641.34 506.71 642.68 497.16 643.6 487.79 643.7 478.6 643.03 469.56 642.12 460.66 640.58 451.91 638.51 443.25 636.49 434.69 634.18 426.22 631.68 417.8 629.58 409.43 627.56 401.11 625.7 392.82 624.57 384.54 623.78 376.31 623.41 368.07 623.89 360.06 624.78 352.28 626.02 344.5 627.96 336.95 630.06 329.66 632.21 322.37 634.76 315.34 637.11 308.6 639.14 301.86 641.21 295.41 642.74 289.27 643.62 280.21 644.18 263.61 640.57 256.05 636.29 251.05 632.68 246.32 628.25 241.84 623.07 237.25 617.47 232.87 611.19 228.68 604.33 224.31 597.17 220.09 589.53 216 581.49 211.66 573.27 207.42 564.75 203.26 556 198.82 547.17 194.44 538.19 190.15 529.12 185.58 520.02 181.11 510.88 176.75 501.72 172.19 492.58 167.8 483.44 163.63 474.35 159.37 465.28 155.41 456.24 151.81 447.27 148.26 438.32 145.18 429.41 142.62 420.59 140.26 411.77 138.52 403.02 137.47 394.36 136.73 385.69 136.74 377.31 137.49 369.21 138.58 361.11 140.39 353.3 142.88 345.77 145.66 338.24 149.07 330.99 153.03 324.04 157.19 317.07 161.83 310.39 166.89 303.99 172.02 297.56 177.48 291.4 183.22 285.52 188.9 279.57 194.78 273.86 200.83 268.39 206.71 262.81 212.72 257.42 218.81 252.23 224.68 246.87 230.64 241.65 236.65 236.56 242.44 231.26 248.3 226.04 254.25 220.91 259.98 215.52 265.83 210.19 271.8 204.92 277.6 199.4 283.56 193.94 289.71 188.58 295.72 183.01 301.95 177.57 308.41 172.32 314.77 166.97 321.4 161.88 328.29 157.12 335.13 152.42 342.25 148.15 349.67 144.4 357.06 140.86 364.76 137.95 372.78 135.75 380.78 133.9 389.13 132.82 397.81 132.59" stroke-dasharray="0 0" transform="rotate(19.75, 400, 400)" opacity="0.29"></path><path d="M404.39 143.74C412.81 143.91 421.39 144.87 430.09 146.57 438.8 148.61 447.66 151.33 456.64 154.65 465.64 158.19 474.76 162.25 483.97 166.74 493.19 171.32 502.48 176.23 511.79 181.43 521.08 186.57 530.34 191.91 539.5 197.41 548.56 202.75 557.45 208.2 566.07 213.73 574.47 219.05 582.48 224.44 590 229.88 597.16 235.11 603.7 240.41 609.49 245.78 614.78 250.95 619.22 256.23 622.72 261.62 626.58 269.55 628.43 286.05 626.53 294.72 624.6 300.49 621.93 306.49 618.65 312.74 615.4 318.94 611.83 325.41 608.14 332.13 604.96 338.83 602 345.8 599.44 353.04 597.86 360.27 596.96 367.78 596.86 375.56 597.99 383.33 600.01 391.39 602.89 399.72 606.94 408.05 611.56 416.47 616.56 424.96 622.22 433.45 627.85 442.02 633.24 450.63 638.68 459.25 643.49 467.93 647.47 476.62 651 485.32 653.44 494.04 654.72 502.74 655.22 511.42 654.47 520.06 652.47 528.61 649.64 537.11 645.64 545.48 640.55 553.64 634.76 561.7 628.05 569.49 620.56 576.94 612.59 584.19 604.03 591.03 595.03 597.36 585.77 603.4 576.24 608.86 566.55 613.66 556.8 618.09 547.01 621.81 537.24 624.76 527.54 627.31 517.92 629.09 508.44 630.08 499.07 630.74 489.84 630.67 480.77 629.93 471.82 629.01 463.01 627.56 454.35 625.64 445.77 623.82 437.31 621.74 428.96 619.51 420.67 617.67 412.47 615.89 404.36 614.25 396.26 613.27 388.24 612.59 380.3 612.25 372.36 612.69 364.68 613.47 357.26 614.55 349.83 616.27 342.66 618.12 335.76 620.02 328.85 622.31 322.22 624.42 315.87 626.26 309.51 628.18 303.43 629.63 297.65 630.53 289.09 631.25 273.34 628.59 266.1 625.05 261.28 622.03 256.69 618.24 252.33 613.74 247.83 608.87 243.5 603.34 239.35 597.24 235 590.85 230.77 583.96 226.65 576.66 222.3 569.16 218.02 561.33 213.81 553.24 209.34 545.05 204.94 536.66 200.61 528.14 196.03 519.58 191.55 510.93 187.2 502.23 182.66 493.53 178.3 484.81 174.16 476.11 169.95 467.42 166.04 458.75 162.49 450.13 158.99 441.52 155.95 432.96 153.42 424.47 151.09 415.99 149.36 407.58 148.29 399.25 147.53 390.92 147.49 382.87 148.16 375.1 149.17 367.33 150.87 359.83 153.22 352.6 155.87 345.37 159.12 338.4 162.92 331.71 166.92 325 171.4 318.54 176.3 312.36 181.28 306.12 186.61 300.13 192.22 294.38 197.8 288.55 203.6 282.94 209.57 277.53 215.42 272 221.4 266.64 227.47 261.44 233.36 256.08 239.34 250.84 245.38 245.71 251.21 240.38 257.12 235.12 263.11 229.94 268.89 224.53 274.78 219.18 280.77 213.9 286.59 208.41 292.56 202.99 298.68 197.68 304.66 192.21 310.84 186.88 317.21 181.76 323.49 176.57 330 171.65 336.75 167.07 343.44 162.57 350.39 158.49 357.62 154.92 364.81 151.56 372.3 148.81 380.09 146.73 387.86 144.98 395.96 143.96 404.38 143.74" stroke-dasharray="0 0" transform="rotate(22.57142857142857, 400, 400)" opacity="0.32"></path><path d="M410.71 154.9C418.85 155.05 427.12 155.95 435.49 157.55 443.87 159.47 452.36 162.03 460.93 165.17 469.52 168.52 478.18 172.37 486.88 176.66 495.57 181.04 504.28 185.76 512.95 190.77 521.57 195.75 530.1 200.95 538.46 206.32 546.71 211.57 554.71 216.95 562.39 222.41 569.85 227.71 576.87 233.08 583.38 238.52 589.53 243.76 595.06 249.08 599.87 254.46 604.23 259.67 607.78 264.97 610.46 270.36 613.29 278.29 613.83 294.68 611.72 303.22 609.81 308.88 607.29 314.76 604.28 320.85 601.38 326.88 598.25 333.15 595.05 339.66 592.36 346.13 589.9 352.85 587.82 359.82 586.63 366.78 586.04 373.99 586.15 381.46 587.36 388.93 589.34 396.66 592.07 404.64 595.83 412.63 600.08 420.7 604.66 428.83 609.85 436.96 615.02 445.14 619.99 453.36 625.06 461.59 629.58 469.85 633.41 478.11 636.89 486.36 639.42 494.6 640.94 502.79 641.83 510.96 641.59 519.04 640.24 527 638.17 534.9 635.01 542.62 630.84 550.11 626.03 557.48 620.32 564.56 613.85 571.28 606.89 577.8 599.32 583.89 591.25 589.49 582.9 594.81 574.21 599.56 565.28 603.7 556.23 607.51 547.05 610.65 537.84 613.1 528.62 615.2 519.43 616.61 510.31 617.33 501.25 617.78 492.29 617.6 483.47 616.82 474.72 615.93 466.09 614.58 457.61 612.84 449.19 611.22 440.9 609.37 432.74 607.4 424.62 605.8 416.61 604.25 408.72 602.82 400.85 601.98 393.08 601.4 385.42 601.1 377.76 601.49 370.38 602.17 363.28 603.1 356.16 604.61 349.33 606.23 342.77 607.89 336.19 609.92 329.89 611.8 323.87 613.45 314.94 615.88 298.4 618.26 290.76 617.84 283.28 616.34 269.33 609.34 262.78 603.86 258.33 599.66 254.03 594.84 249.87 589.46 245.51 583.81 241.26 577.66 237.1 571.09 232.71 564.32 228.39 557.2 224.14 549.8 219.64 542.27 215.21 534.52 210.86 526.6 206.29 518.62 201.82 510.52 197.47 502.34 192.98 494.14 188.66 485.89 184.57 477.63 180.43 469.37 176.58 461.11 173.09 452.89 169.67 444.67 166.68 436.48 164.2 428.35 161.91 420.24 160.19 412.17 159.11 404.19 158.33 396.2 158.25 388.48 158.84 381.02 159.75 373.56 161.34 366.35 163.55 359.4 166.05 352.44 169.13 345.72 172.75 339.26 176.58 332.77 180.88 326.52 185.59 320.5 190.41 314.43 195.57 308.57 201.02 302.92 206.47 297.19 212.15 291.65 218.01 286.28 223.79 280.79 229.71 275.45 235.74 270.24 241.62 264.88 247.59 259.62 253.63 254.45 259.49 249.1 265.43 243.83 271.44 238.62 277.27 233.22 283.19 227.89 289.21 222.62 295.06 217.19 301.04 211.84 307.14 206.62 313.12 201.27 319.26 196.08 325.58 191.11 331.8 186.1 338.22 181.38 344.85 176.99 351.42 172.69 358.23 168.82 365.29 165.43 372.31 162.26 379.6 159.66 387.16 157.7 394.71 156.05 402.55 155.1 410.7 154.9" stroke-dasharray="0 0" transform="rotate(25.392857142857146, 400, 400)" opacity="0.36"></path><path d="M416.41 166.05C424.25 166.19 432.18 167.04 440.17 168.53 448.18 170.33 456.25 172.73 464.36 175.68 472.47 178.84 480.61 182.48 488.74 186.55 496.85 190.71 504.91 195.23 512.88 200.03 520.78 204.83 528.53 209.86 536.07 215.08 543.47 220.2 550.58 225.47 557.33 230.84 563.86 236.08 569.93 241.41 575.47 246.8 580.69 252.04 585.3 257.34 589.22 262.72 594.14 270.58 599.53 286.55 599.95 294.71 599.63 300.08 598.61 305.59 596.93 311.26 595.11 316.84 592.81 322.61 590.11 328.55 587.58 334.45 584.88 340.54 582.17 346.85 579.95 353.12 577.96 359.61 576.31 366.33 575.48 373.03 575.17 379.97 575.47 387.13 576.74 394.29 578.68 401.7 581.25 409.33 584.73 416.97 588.63 424.67 592.81 432.41 597.55 440.15 602.27 447.94 606.83 455.73 611.52 463.53 615.74 471.33 619.38 479.1 622.76 486.87 625.32 494.59 627.01 502.23 628.19 509.83 628.37 517.33 627.57 524.66 626.15 531.93 623.74 538.99 620.41 545.79 616.49 552.47 611.73 558.84 606.22 564.84 600.25 570.65 593.65 576.03 586.54 580.93 579.12 585.58 571.3 589.69 563.2 593.22 554.93 596.47 546.48 599.11 537.91 601.12 529.29 602.85 520.64 603.96 512 604.46 503.38 604.75 494.81 604.5 486.33 603.73 477.89 602.9 469.55 601.68 461.34 600.11 453.17 598.69 445.12 597.08 437.2 595.35 429.31 593.98 421.54 592.65 413.89 591.41 406.27 590.71 398.75 590.21 391.37 589.94 383.98 590.3 376.89 590.89 370.08 591.67 363.25 592.99 356.7 594.39 350.44 595.82 344.14 597.6 338.12 599.25 332.37 600.7 323.82 602.9 307.93 605.21 300.55 605 293.27 603.88 279.58 598.11 273.07 593.46 268.64 589.87 264.33 585.7 260.15 580.99 255.77 576.04 251.48 570.6 247.28 564.75 242.85 558.7 238.49 552.29 234.2 545.57 229.69 538.73 225.24 531.64 220.88 524.35 216.33 516.99 211.88 509.47 207.57 501.85 203.14 494.19 198.89 486.46 194.86 478.69 190.81 470.9 187.04 463.1 183.63 455.3 180.29 447.5 177.38 439.72 174.95 431.98 172.71 424.24 171.02 416.54 169.94 408.91 169.14 401.28 169.01 393.88 169.52 386.73 170.35 379.56 171.81 372.64 173.87 365.95 176.21 359.24 179.12 352.76 182.54 346.5 186.17 340.21 190.27 334.13 194.77 328.25 199.39 322.32 204.36 316.58 209.62 311.02 214.92 305.38 220.44 299.89 226.17 294.55 231.84 289.11 237.66 283.78 243.6 278.56 249.43 273.21 255.36 267.95 261.37 262.77 267.24 257.43 273.18 252.16 279.19 246.96 285.04 241.59 290.98 236.3 297 231.1 302.88 225.75 308.86 220.5 314.95 215.4 320.93 210.2 327.04 205.18 333.3 200.38 339.48 195.58 345.82 191.06 352.35 186.88 358.82 182.8 365.49 179.13 372.38 175.94 379.24 172.95 386.33 170.52 393.66 168.68 400.98 167.13 408.56 166.24 416.4 166.05" stroke-dasharray="0 0" transform="rotate(28.214285714285715, 400, 400)" opacity="0.39"></path><path d="M421.18 177.21C428.69 177.34 436.24 178.12 443.83 179.51 451.41 181.18 459.02 183.43 466.62 186.19 474.22 189.15 481.79 192.58 489.3 196.42 496.77 200.36 504.15 204.65 511.38 209.23 518.54 213.83 525.5 218.66 532.2 223.69 538.76 228.66 545.01 233.79 550.86 239.04 556.5 244.18 561.69 249.42 566.34 254.74 570.72 259.93 574.51 265.19 577.65 270.53 581.54 278.37 585.4 294.26 585.38 302.36 584.37 310.42 579.54 327.07 576.16 335.71 574.01 341.47 571.75 347.41 569.5 353.53 567.73 359.61 566.18 365.89 564.93 372.36 564.41 378.82 564.36 385.48 564.81 392.34 566.13 399.2 568.01 406.27 570.42 413.55 573.64 420.83 577.21 428.14 581 435.48 585.31 442.81 589.61 450.16 593.76 457.5 598.06 464.84 601.98 472.15 605.39 479.41 608.63 486.65 611.17 493.83 612.96 500.89 614.34 507.91 614.86 514.79 614.51 521.49 613.64 528.1 611.89 534.5 609.29 540.62 606.19 546.62 602.29 552.3 597.68 557.61 592.65 562.74 586.99 567.46 580.81 571.71 574.32 575.74 567.41 579.27 560.16 582.27 552.73 585.03 545.05 587.23 537.21 588.87 529.28 590.29 521.26 591.17 513.19 591.5 505.11 591.69 497.03 591.41 488.99 590.68 480.97 589.93 473.02 588.84 465.15 587.47 457.32 586.24 449.58 584.85 441.96 583.37 434.36 582.21 426.87 581.08 419.51 580.02 412.16 579.44 404.92 579.02 397.81 578.79 390.7 579.11 383.88 579.61 377.34 580.27 370.78 581.4 364.5 582.6 358.48 583.81 349.54 586.06 332.87 589.98 325.1 591.28 317.47 592.14 303.14 591.24 296.37 589.33 289.59 586.51 276.49 577.74 270.11 571.86 265.7 567.56 261.38 562.79 257.12 557.62 252.68 552.26 248.29 546.54 243.97 540.5 239.46 534.34 235.02 527.91 230.66 521.26 226.15 514.54 221.75 507.63 217.5 500.59 213.14 493.51 208.97 486.32 205.03 479.07 201.08 471.8 197.42 464.47 194.1 457.13 190.86 449.79 188.04 442.44 185.67 435.1 183.49 427.77 181.84 420.45 180.76 413.18 179.95 405.91 179.78 398.84 180.22 391.99 180.95 385.13 182.28 378.48 184.19 372.04 186.37 365.58 189.08 359.31 192.3 353.24 195.72 347.14 199.59 341.22 203.87 335.48 208.27 329.68 213.02 324.05 218.06 318.56 223.16 313.01 228.5 307.58 234.04 302.28 239.56 296.87 245.25 291.57 251.07 286.37 256.81 281.05 262.66 275.8 268.59 270.64 274.42 265.33 280.32 260.1 286.29 254.94 292.14 249.65 298.07 244.44 304.07 239.32 309.95 234.1 315.92 228.99 321.98 224.03 327.94 219.02 334.01 214.19 340.21 209.59 346.33 205 352.6 200.71 359.01 196.75 365.37 192.89 371.91 189.44 378.63 186.45 385.31 183.65 392.2 181.37 399.29 179.66 406.36 178.21 413.66 177.39 421.17 177.21" stroke-dasharray="0 0" transform="rotate(31.035714285714285, 400, 400)" opacity="0.42"></path><path d="M424.73 188.36C431.88 188.48 439.04 189.2 446.17 190.5 453.31 192.04 460.42 194.13 467.47 196.7 474.52 199.47 481.49 202.67 488.35 206.27 495.18 209.98 501.86 214.03 508.35 218.37 514.76 222.74 520.94 227.36 526.83 232.18 532.58 236.97 538 241.92 543.02 247 547.84 252.01 552.22 257.13 556.08 262.33 561.25 270.03 568.33 285.65 570.15 293.56 571.02 301.39 569.67 317.36 567.69 325.55 566.23 330.97 564.46 336.52 562.46 342.2 560.69 347.83 558.86 353.61 557.05 359.54 555.7 365.44 554.54 371.5 553.66 377.73 553.43 383.94 553.59 390.33 554.18 396.89 555.53 403.44 557.34 410.17 559.6 417.08 562.57 423.99 565.81 430.9 569.24 437.81 573.14 444.72 577.02 451.62 580.77 458.48 584.7 465.33 588.29 472.14 591.46 478.86 594.52 485.57 597 492.17 598.82 498.64 600.34 505.06 601.1 511.33 601.11 517.39 600.1 526.24 593.6 542.42 588.25 549.59 584.08 554.1 579.32 558.2 574.03 561.87 568.45 565.35 562.42 568.37 556.04 570.9 549.46 573.23 542.6 575.07 535.53 576.41 528.35 577.58 521.02 578.28 513.61 578.5 506.14 578.63 498.63 578.34 491.12 577.68 483.61 577.03 476.12 576.09 468.68 574.91 461.26 573.88 453.9 572.71 446.64 571.44 439.39 570.49 432.23 569.54 425.18 568.65 418.14 568.18 411.2 567.84 404.38 567.63 397.56 567.92 391.01 568.34 384.72 568.88 378.42 569.84 372.37 570.85 366.58 571.87 357.96 573.78 341.83 577.14 334.27 578.28 326.82 579.08 312.7 578.47 305.98 576.9 299.23 574.59 286.1 567.16 279.66 562.11 275.24 558.39 270.88 554.24 266.6 549.7 262.14 544.99 257.74 539.93 253.41 534.55 248.92 529.05 244.51 523.28 240.19 517.27 235.74 511.18 231.41 504.89 227.24 498.44 222.98 491.95 218.92 485.33 215.09 478.61 211.26 471.87 207.72 465.06 204.51 458.2 201.39 451.33 198.66 444.43 196.37 437.52 194.26 430.61 192.65 423.69 191.59 416.78 190.77 409.88 190.56 403.15 190.92 396.61 191.55 390.06 192.76 383.68 194.51 377.48 196.51 371.26 199.03 365.21 202.03 359.33 205.23 353.42 208.86 347.65 212.88 342.04 217.04 336.38 221.54 330.86 226.34 325.46 231.21 319.99 236.33 314.63 241.65 309.38 246.99 304.05 252.5 298.79 258.14 293.63 263.75 288.37 269.47 283.17 275.28 278.05 281.02 272.82 286.84 267.66 292.74 262.59 298.53 257.4 304.41 252.31 310.34 247.32 316.19 242.25 322.11 237.32 328.11 232.54 334.03 227.73 340.04 223.11 346.15 218.73 352.2 214.39 358.36 210.33 364.65 206.6 370.89 202.98 377.27 199.75 383.8 196.95 390.3 194.34 396.96 192.22 403.78 190.63 410.59 189.29 417.57 188.53 424.72 188.36" stroke-dasharray="0 0" transform="rotate(33.857142857142854, 400, 400)" opacity="0.46"></path><path d="M426.88 199.52C433.64 199.62 440.36 200.29 447.02 201.48 453.68 202.91 460.27 204.83 466.76 207.22 473.24 209.78 479.6 212.76 485.81 216.11 491.98 219.58 497.97 223.38 503.73 227.47 509.42 231.6 514.85 235.97 519.97 240.56 524.97 245.13 529.63 249.88 533.89 254.76 537.98 259.6 541.64 264.56 544.83 269.61 549.06 277.12 554.64 292.42 555.95 300.19 556.5 307.91 555.09 323.62 553.34 331.64 551.39 339.68 546.92 356.22 544.82 364.76 543.86 370.47 543.06 376.31 542.5 382.28 542.52 388.24 542.87 394.35 543.57 400.6 544.93 406.83 546.67 413.22 548.77 419.74 551.5 426.27 554.44 432.77 557.53 439.25 561.03 445.72 564.51 452.15 567.89 458.52 571.43 464.87 574.7 471.16 577.61 477.34 580.47 483.49 582.83 489.53 584.64 495.4 586.69 504.06 587.01 520.24 585.23 527.63 582.23 534.56 572.61 546.54 566.18 551.46 561.46 554.45 556.3 557.03 550.76 559.16 545.03 561.14 538.99 562.68 532.71 563.78 526.31 564.76 519.72 565.33 513 565.48 506.21 565.58 499.33 565.33 492.41 564.76 485.47 564.22 478.51 563.44 471.56 562.44 464.62 561.6 457.7 560.63 450.85 559.58 444 558.81 437.22 558.04 430.52 557.3 423.82 556.93 417.21 556.65 410.7 556.48 404.18 556.73 397.91 557.08 391.87 557.51 382.92 558.74 366.1 561.58 358.2 562.96 350.44 564.39 335.74 566.05 328.76 566.06 321.8 565.6 308.37 562.39 301.84 559.59 295.21 556.11 282.13 546.79 275.65 541.03 271.21 536.93 266.82 532.48 262.52 527.72 258.08 522.85 253.72 517.7 249.46 512.31 245.11 506.84 240.87 501.17 236.8 495.31 232.67 489.41 228.74 483.36 225.03 477.19 221.35 470.99 217.94 464.7 214.86 458.33 211.86 451.95 209.25 445.52 207.05 439.04 205.02 432.57 203.46 426.06 202.41 419.54 201.6 413.02 201.34 406.64 201.63 400.4 202.17 394.16 203.25 388.07 204.84 382.12 206.67 376.15 208.98 370.32 211.74 364.63 214.71 358.91 218.09 353.32 221.84 347.85 225.74 342.34 229.97 336.93 234.49 331.64 239.1 326.28 243.96 321.02 249.03 315.85 254.14 310.6 259.42 305.43 264.86 300.34 270.28 295.16 275.82 290.05 281.47 285.03 287.06 279.91 292.75 274.86 298.51 269.91 304.21 264.87 309.98 259.93 315.81 255.11 321.57 250.24 327.4 245.5 333.3 240.93 339.13 236.35 345.04 231.97 351.03 227.83 356.97 223.74 363 219.93 369.13 216.44 375.22 213.06 381.41 210.05 387.72 207.46 394.01 205.04 400.41 203.08 406.94 201.61 413.46 200.38 420.1 199.67 426.87 199.52" stroke-dasharray="0 0" transform="rotate(36.67857142857143, 400, 400)" opacity="0.49"></path><path d="M427.48 210.67C440.18 211.08 452.55 213.52 464.41 217.73 476.2 222.61 487.34 228.98 497.57 236.53 507.5 244.32 516.28 253.01 523.6 262.34 530.38 271.56 535.49 281.27 538.75 291.3 541.42 301.07 542.31 311.16 541.53 321.51 540.64 331.61 538.63 342.06 535.89 352.82 534.11 363.43 532.49 374.48 531.45 385.91 532.44 397.29 534.6 409.15 537.95 421.41 543.42 433.66 549.31 445.75 555.09 457.49 561.56 469.2 566.83 480.49 570.44 491.13 573.4 501.6 574.07 511.25 572.4 519.84 569.57 528.06 564.43 535.03 557.29 540.55 549.2 545.58 539.5 549.1 528.63 551.04 517.27 552.65 505.13 552.9 492.59 551.92 479.91 551.18 467.03 549.72 454.24 547.78 441.45 546.86 428.78 545.99 416.4 545.32 404.02 546.13 392.45 547.12 381.7 548.16 370.85 550.18 360.7 551.71 351.21 552.49 341.5 553.48 332.31 553.22 323.6 551.58 314.51 549.6 305.74 546.03 297.3 540.93 288.36 535.35 279.66 528.3 271.27 520.02 262.46 511.37 254.03 501.66 246.18 491.15 238.22 480.46 231.11 469.14 225.15 457.42 219.57 445.65 215.49 433.56 213.23 421.3 211.85 409.05 212.55 397.2 215.18 385.84 218.69 374.43 223.98 363.41 230.76 352.83 238.12 342.11 246.7 331.7 256.22 321.65 265.92 311.35 276.31 301.3 287.17 291.57 297.94 281.58 309.09 271.91 320.47 262.71 331.66 253.4 343.12 244.7 354.8 236.9 366.33 229.32 378.18 222.9 390.29 217.97 402.36 213.69 414.78 211.17 427.47 210.67" stroke-dasharray="0 0" transform="rotate(39.5, 400, 400)" opacity="0.53"></path><path d="M426.52 221.83C438.35 222.19 449.7 224.41 460.44 228.26 471.1 232.72 481.02 238.58 489.97 245.58 498.66 252.83 506.2 260.97 512.36 269.77 518.09 278.52 522.31 287.79 524.92 297.4 527.13 306.83 527.85 316.59 527.18 326.58 526.58 336.38 525.09 346.49 523.05 356.85 521.94 367.09 520.98 377.66 520.51 388.53 521.79 399.36 523.99 410.54 527.13 421.98 532.07 433.43 537.3 444.61 542.4 455.37 548.17 466.08 552.92 476.3 556.27 485.83 559.2 495.2 560.18 503.75 559.15 511.26 557.21 518.47 553.23 524.51 547.41 529.23 540.78 533.58 532.6 536.6 523.23 538.24 513.4 539.69 502.69 539.97 491.45 539.2 480.05 538.71 468.32 537.6 456.51 536.05 444.68 535.4 432.85 534.74 421.17 534.17 409.49 534.86 398.47 535.64 388.12 536.4 377.7 538.03 367.85 539.21 358.56 539.74 349.08 540.53 340.01 540.26 331.36 538.79 322.38 537.12 313.68 534.07 305.27 529.66 296.47 524.89 287.9 518.79 279.66 511.53 271.1 503.96 262.95 495.37 255.4 485.95 247.81 476.38 241.04 466.13 235.38 455.4 230.11 444.62 226.24 433.43 224.06 421.99 222.68 410.54 223.22 399.37 225.54 388.56 228.68 377.71 233.47 367.16 239.67 356.95 246.44 346.63 254.38 336.56 263.25 326.79 272.35 316.84 282.16 307.12 292.46 297.72 302.75 288.14 313.43 278.9 324.36 270.16 335.17 261.37 346.24 253.22 357.46 245.94 368.6 238.92 379.96 233.01 391.48 228.49 402.98 224.57 414.69 222.27 426.51 221.83" stroke-dasharray="0 0" transform="rotate(42.32142857142857, 400, 400)" opacity="0.56"></path><path d="M424.04 232.98C434.96 233.3 445.31 235.3 454.96 238.8 464.54 242.85 473.31 248.2 481.1 254.62 488.69 261.31 495.16 268.86 500.36 277.07 505.24 285.3 508.78 294.05 510.94 303.16 512.87 312.16 513.55 321.48 513.11 331.03 512.86 340.45 511.91 350.14 510.53 360.02 510.03 369.82 509.66 379.88 509.66 390.13 511.17 400.36 513.39 410.83 516.3 421.45 520.75 432.07 525.36 442.34 529.81 452.12 534.89 461.87 539.11 471.06 542.16 479.55 544.96 487.9 546.12 495.43 545.57 501.97 544.33 508.28 541.3 513.52 536.62 517.57 531.28 521.37 524.48 523.99 516.51 525.43 508.12 526.78 498.81 527.14 488.87 526.6 478.75 526.36 468.19 525.57 457.41 524.38 446.61 523.97 435.66 523.49 424.73 523.01 413.79 523.61 403.36 524.2 393.46 524.7 383.5 525.98 373.99 526.83 364.94 527.12 355.72 527.69 346.84 527.35 338.3 525.99 329.5 524.54 320.93 521.89 312.65 518.06 304.05 513.96 295.7 508.68 287.7 502.32 279.47 495.73 271.66 488.16 264.46 479.77 257.27 471.25 250.9 462.03 245.57 452.26 240.62 442.46 236.97 432.18 234.88 421.56 233.51 410.93 233.9 400.47 235.93 390.26 238.69 380.02 242.98 369.98 248.59 360.21 254.73 350.36 262.01 340.7 270.17 331.32 278.6 321.79 287.74 312.49 297.39 303.52 307.1 294.43 317.21 285.69 327.56 277.47 337.87 269.26 348.42 261.69 359.08 254.98 369.71 248.52 380.49 243.12 391.34 239.02 402.18 235.45 413.12 233.38 424.04 232.98" stroke-dasharray="0 0" transform="rotate(45.14285714285714, 400, 400)" opacity="0.59"></path><path d="M420.19 244.14C430.18 244.41 439.54 246.21 448.16 249.36 456.71 252.99 464.44 257.83 471.22 263.67 477.84 269.77 483.41 276.71 487.84 284.29 492.06 291.93 495.11 300.09 496.99 308.62 498.77 317.1 499.54 325.91 499.4 334.94 499.52 343.88 499.09 353.06 498.33 362.39 498.37 371.67 498.51 381.14 498.92 390.73 500.59 400.31 502.79 410.04 505.48 419.83 509.45 429.61 513.48 438.98 517.32 447.82 521.75 456.63 525.44 464.85 528.14 472.37 531.34 483.08 529.88 499.9 525.03 505.69 520.79 509.03 515.21 511.36 508.51 512.68 501.44 513.98 493.45 514.44 484.76 514.13 475.91 514.14 466.52 513.64 456.8 512.77 447.04 512.58 437.02 512.26 426.87 511.86 416.73 512.36 406.93 512.78 397.53 513.06 388.09 514.02 378.98 514.58 370.22 514.62 361.33 514.97 352.7 514.53 344.36 513.23 335.82 511.91 327.49 509.57 319.42 506.2 311.12 502.66 303.08 498.07 295.39 492.51 287.56 486.77 280.16 480.12 273.37 472.68 266.64 465.14 260.68 456.89 255.71 448.06 251.1 439.2 247.7 429.83 245.71 420.04 244.36 410.25 244.61 400.52 246.35 390.96 248.74 381.37 252.53 371.92 257.54 362.66 263.04 353.35 269.61 344.19 277.03 335.27 284.74 326.27 293.14 317.48 302.05 309.01 311.07 300.49 320.5 292.33 330.17 284.69 339.86 277.11 349.77 270.15 359.77 264.01 369.77 258.14 379.88 253.25 389.98 249.56 400.08 246.35 410.2 244.48 420.19 244.14" stroke-dasharray="0 0" transform="rotate(47.96428571428571, 400, 400)" opacity="0.63"></path><path d="M415.19 255.29C424.24 255.52 432.63 257.12 440.29 259.93 447.89 263.16 454.69 267.49 460.59 272.74 466.38 278.25 471.22 284.54 475.06 291.45 478.77 298.45 481.5 305.97 483.24 313.85 484.99 321.73 485.91 329.94 486.11 338.36 486.61 346.73 486.67 355.32 486.46 364.03 486.97 372.71 487.53 381.54 488.26 390.42 490.04 399.3 492.19 408.26 494.65 417.2 498.17 426.14 501.67 434.62 504.94 442.56 508.74 450.47 511.9 457.79 514.24 464.42 517.16 473.88 516.54 488.6 512.76 493.67 507.16 497.71 490.05 501.61 479.16 501.82 471.5 502.04 463.26 501.81 454.58 501.22 445.87 501.21 436.8 501.03 427.49 500.7 418.17 501.13 409.06 501.4 400.23 501.49 391.36 502.16 382.71 502.44 374.33 502.27 365.86 502.39 357.58 501.84 349.53 500.56 341.35 499.31 333.34 497.2 325.59 494.2 317.7 491.11 310.04 487.1 302.76 482.22 295.4 477.22 288.47 471.39 282.14 464.81 275.9 458.15 270.4 450.81 265.81 442.89 261.56 434.94 258.41 426.45 256.53 417.5 255.21 408.56 255.34 399.6 256.8 390.73 258.83 381.85 262.13 373.03 266.54 364.37 271.4 355.67 277.25 347.1 283.89 338.74 290.83 330.34 298.44 322.14 306.54 314.27 314.79 306.38 323.44 298.86 332.34 291.85 341.3 284.93 350.46 278.61 359.7 273.07 368.97 267.79 378.3 263.41 387.59 260.12 396.89 257.25 406.13 255.59 415.19 255.29" stroke-dasharray="0 0" transform="rotate(50.78571428571429, 400, 400)" opacity="0.66"></path><path d="M409.31 266.45C417.43 266.64 424.9 268.04 431.67 270.51 438.39 273.36 444.37 277.19 449.53 281.85 454.63 286.75 458.88 292.39 462.28 298.6 465.62 304.92 468.13 311.74 469.85 318.93 471.63 326.14 472.75 333.67 473.3 341.4 474.15 349.12 474.65 357.04 474.92 365.06 475.81 373.07 476.71 381.19 477.69 389.32 479.53 397.46 481.59 405.62 483.83 413.71 486.93 421.8 489.92 429.42 492.67 436.49 495.88 443.55 498.54 450.03 500.5 455.87 502.98 470.66 495.52 485.3 489.07 487.51 484.24 488.83 478.54 489.53 472.13 489.66 465.59 490.07 458.43 490.08 450.78 489.73 443.09 489.88 434.97 489.81 426.52 489.55 418.08 489.9 409.71 490.04 401.5 489.98 393.28 490.39 385.18 490.44 377.27 490.08 369.3 489.99 361.47 489.32 353.83 488.03 346.1 486.81 338.53 484.86 331.21 482.16 323.8 479.41 316.64 475.88 309.83 471.59 303.02 467.22 296.62 462.11 290.79 456.31 285.08 450.46 280.06 443.96 275.88 436.89 272 429.8 269.1 422.17 267.35 414.08 266.09 405.99 266.1 397.83 267.3 389.7 268.98 381.56 271.8 373.45 275.62 365.45 279.84 357.44 284.96 349.53 290.82 341.81 296.95 334.09 303.72 326.56 310.97 319.35 318.37 312.16 326.17 305.33 334.22 298.99 342.35 292.76 350.68 287.1 359.08 282.16 367.51 277.46 376 273.59 384.42 270.69 392.85 268.16 401.19 266.7 409.31 266.45" stroke-dasharray="0 0" transform="rotate(53.60714285714286, 400, 400)" opacity="0.69"></path><path d="M402.91 277.6C410.1 277.76 416.7 278.97 422.65 281.12 428.58 283.59 433.83 286.92 438.37 291.01 442.88 295.31 446.67 300.27 449.74 305.77 452.81 311.39 455.2 317.48 456.96 323.91 458.81 330.4 460.14 337.18 461.01 344.17 462.17 351.17 463.04 358.35 463.71 365.62 464.89 372.88 466.04 380.24 467.21 387.59 469.05 394.94 471 402.28 473.01 409.52 475.7 416.76 478.22 423.54 480.5 429.8 484.25 438.9 489.06 454.2 489.6 460.26 486.17 469.32 471.63 476.94 463.83 477.67 458.29 478.24 452.15 478.45 445.48 478.31 438.78 478.57 431.61 478.6 424.05 478.39 416.49 478.68 408.91 478.72 401.4 478.53 393.89 478.73 386.43 478.58 379.08 478.06 371.71 477.77 364.43 476.99 357.31 475.68 350.14 474.47 343.11 472.63 336.32 470.17 329.48 467.7 322.89 464.56 316.65 460.77 310.44 456.94 304.62 452.46 299.34 447.36 294.19 442.23 289.67 436.51 285.91 430.25 282.42 423.98 279.79 417.19 278.18 409.95 276.97 402.7 276.88 395.36 277.84 388.01 279.2 380.66 281.56 373.31 284.8 366.05 288.39 358.78 292.79 351.6 297.86 344.61 303.18 337.62 309.09 330.83 315.45 324.34 321.96 317.9 328.86 311.79 335.99 306.16 343.22 300.63 350.64 295.64 358.13 291.3 365.67 287.18 373.26 283.8 380.76 281.29 388.29 279.08 395.71 277.81 402.91 277.6" stroke-dasharray="0 0" transform="rotate(56.42857142857143, 400, 400)" opacity="0.73"></path><path d="M396.34 288.76C405.52 289.39 421.11 295.28 427.43 300.23 433.15 306.09 441.71 320.58 444.68 328.9 446.61 334.61 448.13 340.61 449.28 346.8 450.68 353.02 451.84 359.4 452.82 365.86 454.21 372.34 455.53 378.88 456.8 385.41 458.59 391.94 460.4 398.45 462.19 404.85 465.54 414.22 471.46 430.68 473.55 437.66 472.88 455.06 460.99 464.92 454.46 465.86 447.22 466.73 429.98 467.34 420.2 467.24 413.54 467.46 406.79 467.42 400.04 467.13 393.3 467.16 386.55 466.85 379.87 466.2 373.19 465.76 366.56 464.88 360.06 463.56 353.54 462.34 347.16 460.6 340.99 458.33 334.81 456.09 328.87 453.28 323.26 449.93 317.7 446.56 312.51 442.62 307.81 438.16 303.25 433.68 299.24 428.67 295.91 423.18 292.81 417.68 290.47 411.71 289 405.31 287.87 398.91 287.7 392.4 288.43 385.87 289.49 379.34 291.42 372.79 294.11 366.32 297.1 359.85 300.79 353.46 305.08 347.24 309.59 341.05 314.64 335.04 320.09 329.31 325.69 323.65 331.65 318.3 337.84 313.38 344.12 308.57 350.59 304.24 357.14 300.51 363.73 296.95 370.37 294.05 376.94 291.9 383.54 290.01 390.04 288.93 396.34 288.76" stroke-dasharray="0 0" transform="rotate(59.25, 400, 400)" opacity="0.76"></path><path d="M389.97 299.91C400.82 300.33 409.9 303.76 417.02 309.54 424.15 315.92 429.5 324.32 433.13 333.96 437.21 343.85 440.17 354.76 442.24 365.99 445.57 377.28 448.66 388.81 451.36 399.92 455.61 411.04 458.74 420.62 460.4 428.41 462.44 439.18 454.49 451.85 444.29 454.22 436.54 455.96 426.71 456.6 415.2 456.08 403.67 456.72 391.66 456.18 379.81 454.53 367.97 453.55 356.26 450.95 345.31 446.73 334.46 442.67 324.5 436.67 316.23 428.91 308.43 421.11 302.7 411.52 299.83 400.4 298.01 389.28 299.44 377.74 303.57 366.44 308.62 355.2 316.03 344.28 325.02 334.36 334.53 324.68 345.25 316.23 356.36 309.79 367.66 303.94 379.13 300.42 389.97 299.91" stroke-dasharray="0 0" transform="rotate(62.07142857142857, 400, 400)" opacity="0.80"></path><path d="M384.18 311.07C393.34 311.37 401.14 314.18 407.42 318.94 413.74 324.17 418.72 331.13 422.38 339.19 426.43 347.46 429.59 356.66 431.96 366.17 435.25 375.74 438.18 385.54 440.54 395.01 444.01 404.47 446.39 412.65 447.49 419.35 448.84 428.69 442.04 440.24 433.61 442.77 427.25 444.54 419.06 445.3 409.32 444.93 399.58 445.39 389.3 444.73 379.08 443.04 368.9 441.86 358.8 439.33 349.38 435.47 340.1 431.77 331.62 426.52 324.6 419.82 318 413.13 313.13 404.94 310.65 395.47 308.96 386 309.97 376.19 313.2 366.6 317.13 357.08 323.06 347.86 330.35 339.55 338.06 331.46 346.85 324.45 356.07 319.16 365.43 314.33 375.02 311.45 384.18 311.07" stroke-dasharray="0 0" transform="rotate(64.89285714285714, 400, 400)" opacity="0.83"></path><path d="M379.29 322.22C386.84 322.43 393.4 324.65 398.86 328.44 404.37 332.59 408.92 338.15 412.48 344.65 416.34 351.33 419.51 358.81 421.97 366.59 425.06 374.44 427.72 382.51 429.71 390.34 433.33 401.59 435.54 418.62 433.34 424.25 429.62 428.97 414.24 433.62 402.92 433.77 394.92 434.1 386.42 433.37 377.93 431.73 369.5 430.47 361.13 428.07 353.33 424.61 345.68 421.29 338.71 416.75 332.97 411.09 327.56 405.44 323.56 398.61 321.47 390.77 319.96 382.93 320.6 374.85 323.03 366.99 325.94 359.19 330.49 351.69 336.19 344.98 342.18 338.44 349.13 332.83 356.5 328.63 363.99 324.78 371.75 322.5 379.29 322.22" stroke-dasharray="0 0" transform="rotate(67.71428571428571, 400, 400)" opacity="0.86"></path><path d="M375.59 333.38C384.24 334.34 398.16 343.31 403.45 350.44 406.94 355.57 409.9 361.36 412.24 367.45 414.99 373.58 417.27 379.93 418.89 386.17 422.1 402.12 417.47 418.04 411.96 420.44 407.88 421.99 402.64 422.77 396.35 422.62 390.05 422.83 383.34 422.12 376.64 420.62 369.99 419.36 363.4 417.2 357.27 414.21 351.27 411.33 345.83 407.52 341.36 402.89 337.12 398.27 333.98 392.77 332.3 386.54 331 380.31 331.34 373.94 333.06 367.79 335.09 361.69 338.39 355.87 342.62 350.71 347.04 345.68 352.25 341.39 357.89 338.22 363.59 335.29 369.61 333.56 375.59 333.38" stroke-dasharray="0 0" transform="rotate(70.53571428571429, 400, 400)" opacity="0.90"></path><path d="M373.28 344.53C382.19 344.85 389.8 349.52 395.28 356.61 401.25 364.01 405.88 373.39 408.07 382.69 411.3 395.7 402.43 410.44 389.98 411.46 380.68 411.91 370.33 409.24 361.34 404.32 352.69 399.69 345.85 392.29 343.12 382.99 341.27 373.68 344.02 364.27 349.72 356.82 355.87 349.68 364.36 344.94 373.28 344.53" stroke-dasharray="0 0" transform="rotate(73.35714285714286, 400, 400)" opacity="0.93"></path><path d="M372.5 355.69C384.35 356.29 394.64 367.73 397.24 380.09 401.64 392.45 396.41 400.95 384.19 400.31 371.96 401.07 357.88 392.66 353.95 380.3 351.61 367.93 360.63 356.4 372.5 355.69" stroke-dasharray="0 0" transform="rotate(76.17857142857143, 400, 400)" opacity="0.97"></path></g></svg>